<svg width="468" height="140" viewBox="0 0 468 140" fill="none" xmlns="http://www.w3.org/2000/svg">
<g filter="url(#filter0_ddddd_344_226)">
<path d="M49.8587 27.3948V14.4492C49.8587 12.0659 51.6907 10.1343 53.9511 10.1343H93.5127C95.7731 10.1343 97.6051 12.0665 97.6051 14.4492V27.3948H104.426V10.8532C104.426 6.0866 100.761 2.22266 96.2408 2.22266H51.2224C46.7017 2.22266 43.0371 6.0866 43.0371 10.8532V27.3948H49.8587Z" fill="#5F77E1"/>
<path d="M104.428 28.6114H97.6065C96.9675 28.6114 96.4488 28.0646 96.4488 27.3908V14.4453C96.4488 12.7388 95.1326 11.3509 93.5141 11.3509H53.9525C52.3341 11.3509 51.0178 12.7388 51.0178 14.4453V27.3908C51.0178 28.0646 50.4991 28.6114 49.8601 28.6114H43.0385C42.3995 28.6114 41.8809 28.0646 41.8809 27.3908V10.8492C41.8809 5.41738 46.0722 0.998047 51.2238 0.998047H96.2422C101.394 0.998047 105.586 5.41738 105.586 10.8492V27.3908C105.586 28.0646 105.067 28.6114 104.428 28.6114ZM98.7642 26.1701H103.27V10.8492C103.27 6.76375 100.117 3.43933 96.2416 3.43933H51.2238C47.3491 3.43933 44.1962 6.76314 44.1962 10.8492V26.1701H48.7019V14.4453C48.7019 11.393 51.0571 8.90964 53.9519 8.90964H93.5136C96.4083 8.90964 98.7636 11.393 98.7636 14.4453V26.1701H98.7642Z" fill="#5F77E1"/>
<path d="M130.803 129.999H16.4378C9.65736 129.999 4.16016 124.202 4.16016 117.053V40.3381C4.16016 33.1882 9.65736 27.3926 16.4378 27.3926H130.803C137.584 27.3926 143.081 33.1888 143.081 40.3381V117.053C143.081 124.202 137.583 129.999 130.803 129.999Z" fill="#E0EBFC"/>
<path d="M4.16016 40.3381V69.3461H143.081V40.3381C143.081 33.1882 137.583 27.3926 130.803 27.3926H16.4378C9.65736 27.3926 4.16016 33.1888 4.16016 40.3381Z" fill="white"/>
<path d="M130.802 131.219H16.4373C9.02937 131.219 3.00195 124.864 3.00195 117.053V40.338C3.00195 32.5272 9.02937 26.1719 16.4373 26.1719H130.802C138.211 26.1719 144.238 32.5272 144.238 40.338V117.053C144.238 124.864 138.211 131.219 130.802 131.219ZM16.4373 28.6132C10.3057 28.6132 5.3173 33.8729 5.3173 40.338V117.053C5.3173 123.518 10.3057 128.778 16.4373 128.778H130.802C136.934 128.778 141.922 123.518 141.922 117.053V40.338C141.922 33.8729 136.934 28.6132 130.802 28.6132H16.4373Z" fill="#5F77E1"/>
<path d="M143.08 70.5667H4.15962C3.52059 70.5667 3.00195 70.0198 3.00195 69.346V40.338C3.00195 32.5272 9.02937 26.1719 16.4373 26.1719H130.802C138.211 26.1719 144.238 32.5272 144.238 40.338V69.346C144.238 70.0198 143.719 70.5667 143.08 70.5667ZM5.3173 68.1254H141.922V40.338C141.922 33.8729 136.934 28.6132 130.802 28.6132H16.4373C10.3057 28.6132 5.3173 33.8729 5.3173 40.338V68.1254Z" fill="#5F77E1"/>
<path d="M42.1861 77.7341H20.8138C19.6839 77.7341 18.7676 76.7679 18.7676 75.5766V64.0696C18.7676 62.8783 19.6839 61.9121 20.8138 61.9121H42.1861C43.316 61.9121 44.2323 62.8783 44.2323 64.0696V75.5766C44.2323 76.7679 43.316 77.7341 42.1861 77.7341Z" fill="#5F77E1"/>
<path d="M126.651 77.7341H105.279C104.149 77.7341 103.232 76.7679 103.232 75.5766V64.0696C103.232 62.8783 104.149 61.9121 105.279 61.9121H126.651C127.781 61.9121 128.697 62.8783 128.697 64.0696V75.5766C128.697 76.7679 127.781 77.7341 126.651 77.7341Z" fill="#5F77E1"/>
<path d="M89.5512 91.8895H80.684V82.5399C80.684 81.5073 79.8899 80.6699 78.9105 80.6699H68.2698C67.2904 80.6699 66.4962 81.5073 66.4962 82.5399V91.8895H57.629C56.6496 91.8895 55.8555 92.7268 55.8555 93.7595V104.979C55.8555 106.012 56.6496 106.849 57.629 106.849H66.4962V116.199C66.4962 117.231 67.2904 118.069 68.2698 118.069H78.9105C79.8899 118.069 80.684 117.231 80.684 116.199V106.849H89.5512C90.5306 106.849 91.3248 106.012 91.3248 104.979V93.7595C91.3248 92.7268 90.5306 91.8895 89.5512 91.8895Z" fill="#5F77E1"/>
<path d="M42.1861 78.9566H20.8132C19.0466 78.9566 17.6094 77.4412 17.6094 75.5785V64.0715C17.6094 62.2088 19.0466 60.6934 20.8132 60.6934H42.1856C43.9522 60.6934 45.3894 62.2088 45.3894 64.0715V75.5785C45.39 77.4412 43.9528 78.9566 42.1861 78.9566ZM20.8132 63.134C20.323 63.134 19.9247 63.5539 19.9247 64.0709V75.5779C19.9247 76.0948 20.323 76.5147 20.8132 76.5147H42.1856C42.6758 76.5147 43.0741 76.0948 43.0741 75.5779V64.0709C43.0741 63.5539 42.6758 63.134 42.1856 63.134H20.8132Z" fill="#5F77E1"/>
<path d="M126.65 78.9566H105.278C103.511 78.9566 102.074 77.4412 102.074 75.5785V64.0715C102.074 62.2088 103.511 60.6934 105.278 60.6934H126.65C128.417 60.6934 129.854 62.2088 129.854 64.0715V75.5785C129.854 77.4412 128.417 78.9566 126.65 78.9566ZM105.278 63.134C104.788 63.134 104.39 63.5539 104.39 64.0709V75.5779C104.39 76.0948 104.788 76.5147 105.278 76.5147H126.65C127.141 76.5147 127.539 76.0948 127.539 75.5779V64.0709C127.539 63.5539 127.141 63.134 126.65 63.134H105.278Z" fill="#5F77E1"/>
<path d="M35.9903 85.168H26.4407C25.3108 85.168 24.3945 84.2018 24.3945 83.0105V67.9075C24.3945 66.7161 25.3108 65.75 26.4407 65.75H35.9903C37.1202 65.75 38.0365 66.7161 38.0365 67.9075V83.0105C38.0365 84.2018 37.1202 85.168 35.9903 85.168Z" fill="#5F77E1"/>
<path d="M120.74 85.168H111.191C110.061 85.168 109.145 84.2018 109.145 83.0105V67.9075C109.145 66.7161 110.061 65.75 111.191 65.75H120.74C121.87 65.75 122.787 66.7161 122.787 67.9075V83.0105C122.787 84.2018 121.87 85.168 120.74 85.168Z" fill="#5F77E1"/>
<path d="M35.9879 86.3853H26.4382C24.6716 86.3853 23.2344 84.8698 23.2344 83.0071V67.9035C23.2344 66.0408 24.6716 64.5254 26.4382 64.5254H35.9879C37.7545 64.5254 39.1917 66.0408 39.1917 67.9035V83.0071C39.1917 84.8698 37.7545 86.3853 35.9879 86.3853ZM26.4382 66.9667C25.948 66.9667 25.5497 67.3866 25.5497 67.9035V83.0071C25.5497 83.5241 25.948 83.944 26.4382 83.944H35.9879C36.4781 83.944 36.8764 83.5241 36.8764 83.0071V67.9035C36.8764 67.3866 36.4781 66.9667 35.9879 66.9667H26.4382Z" fill="#5F77E1"/>
<path d="M120.739 86.3853H111.19C109.424 86.3853 107.986 84.8698 107.986 83.0071V67.9035C107.986 66.0408 109.424 64.5254 111.19 64.5254H120.739C122.506 64.5254 123.943 66.0408 123.943 67.9035V83.0071C123.943 84.8698 122.506 86.3853 120.739 86.3853ZM111.19 66.9667C110.7 66.9667 110.302 67.3866 110.302 67.9035V83.0071C110.302 83.5241 110.7 83.944 111.19 83.944H120.739C121.23 83.944 121.628 83.5241 121.628 83.0071V67.9035C121.628 67.3866 121.23 66.9667 120.739 66.9667H111.19Z" fill="#5F77E1"/>
<path d="M39.4835 23.1934H53.8073C54.561 23.1934 55.1716 23.8372 55.1716 24.6319V27.3887H38.1191V24.6319C38.1191 23.8372 38.7298 23.1934 39.4835 23.1934Z" fill="white"/>
<path d="M93.6553 23.1934H107.979C108.733 23.1934 109.344 23.8372 109.344 24.6319V27.3887H92.291V24.6319C92.2916 23.8372 92.9023 23.1934 93.6553 23.1934Z" fill="white"/>
<path d="M55.1731 28.6152H38.1206C37.4815 28.6152 36.9629 28.0683 36.9629 27.3945V24.6377C36.9629 23.1717 38.0945 21.9785 39.4849 21.9785H53.8087C55.1991 21.9785 56.3307 23.1717 56.3307 24.6377V27.3945C56.3307 28.0683 55.8127 28.6152 55.1731 28.6152ZM39.2782 26.1739H54.0154V24.6377C54.0154 24.5175 53.9228 24.4198 53.8087 24.4198H39.4849C39.3708 24.4198 39.2782 24.5175 39.2782 24.6377V26.1739Z" fill="#5F77E1"/>
<path d="M109.345 28.6171H92.2924C91.6534 28.6171 91.1348 28.0703 91.1348 27.3965V24.6396C91.1348 23.1736 92.2658 21.9805 93.6562 21.9805H107.98C109.37 21.9805 110.502 23.1736 110.502 24.6396V27.3965C110.503 28.0703 109.984 28.6171 109.345 28.6171ZM93.4501 26.1758H108.187V24.6396C108.187 24.5194 108.095 24.4218 107.981 24.4218H93.6567C93.5433 24.4218 93.4507 24.5194 93.4507 24.6396L93.4501 26.1758Z" fill="#5F77E1"/>
</g>
<path d="M171.498 55.9441H187.017L201.394 98.2401L215.772 55.9441H231.29V62.0298H225.965V106.912H231.29V112.998H213.642V106.912H218.967V66.0617L204.741 106.912H198.047L183.822 66.0617V106.912H189.147V112.998H171.498V106.912H176.823V62.0298H171.498V55.9441ZM243.484 63.5513H279.694V78.4614H273.608V69.637H255.808V85.2318H273.608V91.3175H255.808V106.912H273.608V98.0879H279.694V112.998H243.484V106.912H248.809V69.637H243.484V63.5513ZM291.846 63.5513H324.253L332.164 71.9192V104.63L324.253 112.998H291.846V106.912H297.171V69.637H291.846V63.5513ZM304.17 106.456H321.21L325.166 102.424V74.1253L321.286 70.0935H304.17V106.456ZM387.653 112.998H371.526V106.912H375.938L363.615 87.5139H356.692V106.912H362.017V112.998H344.368V106.912H349.693V62.0298H344.368V55.9441H362.017V62.0298H356.692V81.4282H363.082L375.254 62.0298H370.765V55.9441H386.893V62.0298H383.089L369.244 84.0146L383.774 106.912H387.653V112.998ZM394.496 106.912H400.581V62.0298H394.496V55.9441H413.666V62.0298H407.58V106.912H413.666V112.998H394.496V106.912ZM452.128 112.998H429.915V106.912H437.522V62.0298H426.263V70.8542H420.482V55.9441H461.561V70.8542H455.779V62.0298H444.521V106.912H452.128V112.998Z" fill="#5F77E1"/>
<defs>
<filter id="filter0_ddddd_344_226" x="0.0313785" y="0.998047" width="147.177" height="136.162" filterUnits="userSpaceOnUse" color-interpolation-filters="sRGB">
<feFlood flood-opacity="0" result="BackgroundImageFix"/>
<feColorMatrix in="SourceAlpha" type="matrix" values="0 0 0 0 0 0 0 0 0 0 0 0 0 0 0 0 0 0 127 0" result="hardAlpha"/>
<feOffset dy="1.12989"/>
<feGaussianBlur stdDeviation="0.564943"/>
<feComposite in2="hardAlpha" operator="out"/>
<feColorMatrix type="matrix" values="0 0 0 0 0 0 0 0 0 0 0 0 0 0 0 0 0 0 0.25 0"/>
<feBlend mode="normal" in2="BackgroundImageFix" result="effect1_dropShadow_344_226"/>
<feColorMatrix in="SourceAlpha" type="matrix" values="0 0 0 0 0 0 0 0 0 0 0 0 0 0 0 0 0 0 127 0" result="hardAlpha"/>
<feOffset dy="1.12989"/>
<feGaussianBlur stdDeviation="0.564943"/>
<feComposite in2="hardAlpha" operator="out"/>
<feColorMatrix type="matrix" values="0 0 0 0 0 0 0 0 0 0 0 0 0 0 0 0 0 0 0.25 0"/>
<feBlend mode="normal" in2="effect1_dropShadow_344_226" result="effect2_dropShadow_344_226"/>
<feColorMatrix in="SourceAlpha" type="matrix" values="0 0 0 0 0 0 0 0 0 0 0 0 0 0 0 0 0 0 127 0" result="hardAlpha"/>
<feOffset dy="1.12989"/>
<feGaussianBlur stdDeviation="0.564943"/>
<feComposite in2="hardAlpha" operator="out"/>
<feColorMatrix type="matrix" values="0 0 0 0 0 0 0 0 0 0 0 0 0 0 0 0 0 0 0.25 0"/>
<feBlend mode="normal" in2="effect2_dropShadow_344_226" result="effect3_dropShadow_344_226"/>
<feColorMatrix in="SourceAlpha" type="matrix" values="0 0 0 0 0 0 0 0 0 0 0 0 0 0 0 0 0 0 127 0" result="hardAlpha"/>
<feOffset dy="2.97057"/>
<feGaussianBlur stdDeviation="1.48529"/>
<feComposite in2="hardAlpha" operator="out"/>
<feColorMatrix type="matrix" values="0 0 0 0 0 0 0 0 0 0 0 0 0 0 0 0 0 0 0.25 0"/>
<feBlend mode="normal" in2="effect3_dropShadow_344_226" result="effect4_dropShadow_344_226"/>
<feColorMatrix in="SourceAlpha" type="matrix" values="0 0 0 0 0 0 0 0 0 0 0 0 0 0 0 0 0 0 127 0" result="hardAlpha"/>
<feOffset dy="2.97057"/>
<feGaussianBlur stdDeviation="1.48529"/>
<feComposite in2="hardAlpha" operator="out"/>
<feColorMatrix type="matrix" values="0 0 0 0 0 0 0 0 0 0 0 0 0 0 0 0 0 0 0.25 0"/>
<feBlend mode="normal" in2="effect4_dropShadow_344_226" result="effect5_dropShadow_344_226"/>
<feBlend mode="normal" in="SourceGraphic" in2="effect5_dropShadow_344_226" result="shape"/>
</filter>
</defs>
</svg>
