<svg width="291" height="58" viewBox="0 0 291 58" fill="none" xmlns="http://www.w3.org/2000/svg">
<path d="M0.0857554 0.946042H15.6044L29.982 43.242L44.3596 0.946042H59.8783V7.0318H54.5533V51.9142H59.8783V58H42.2296V51.9142H47.5546V11.0636L33.3292 51.9142H26.6349L12.4094 11.0636V51.9142H17.7344V58H0.0857554V51.9142H5.41079V7.0318H0.0857554V0.946042ZM72.0718 8.55324H108.282V23.4633H102.196V14.639H84.3955V30.2337H102.196V36.3195H84.3955V51.9142H102.196V43.0899H108.282V58H72.0718V51.9142H77.3968V14.639H72.0718V8.55324ZM120.434 8.55324H152.841L160.752 16.9212V49.6321L152.841 58H120.434V51.9142H125.759V14.639H120.434V8.55324ZM132.758 51.4578H149.798L153.753 47.426V19.1272L149.874 15.0954H132.758V51.4578ZM216.241 58H200.114V51.9142H204.526L192.202 32.5159H185.28V51.9142H190.605V58H172.956V51.9142H178.281V7.0318H172.956V0.946042H190.605V7.0318H185.28V26.4301H191.67L203.841 7.0318H199.353V0.946042H215.48V7.0318H211.677L197.832 29.0166L212.362 51.9142H216.241V58ZM223.084 51.9142H229.169V7.0318H223.084V0.946042H242.254V7.0318H236.168V51.9142H242.254V58H223.084V51.9142ZM280.716 58H258.503V51.9142H266.11V7.0318H254.851V15.8561H249.07V0.946042H290.149V15.8561H284.367V7.0318H273.109V51.9142H280.716V58Z" fill="white"/>
</svg>
