<svg width="35" height="40" viewBox="0 0 35 40" fill="none" xmlns="http://www.w3.org/2000/svg">
<path d="M13.3333 36.1905H20.9524C20.9524 38.2857 19.2381 40 17.1429 40C15.0476 40 13.3333 38.2857 13.3333 36.1905ZM34.2857 32.381V34.2857H0V32.381L3.80952 28.5714V17.1429C3.80952 11.2381 7.61905 6.09524 13.3333 4.38095V3.80952C13.3333 1.71429 15.0476 0 17.1429 0C19.2381 0 20.9524 1.71429 20.9524 3.80952V4.38095C26.6667 6.09524 30.4762 11.2381 30.4762 17.1429V28.5714L34.2857 32.381ZM26.6667 17.1429C26.6667 11.8095 22.4762 7.61905 17.1429 7.61905C11.8095 7.61905 7.61905 11.8095 7.61905 17.1429V30.4762H26.6667V17.1429Z" fill="#2F2E41"/>
</svg>
