<svg width="45" height="45" viewBox="0 0 45 45" fill="none" xmlns="http://www.w3.org/2000/svg">
<g clip-path="url(#clip0_363_304)">
<path d="M31.875 22.5C26.7 22.5 22.5 26.7 22.5 31.875C22.5 37.05 26.7 41.25 31.875 41.25C37.05 41.25 41.25 37.05 41.25 31.875C41.25 26.7 37.05 22.5 31.875 22.5ZM34.9688 36.2812L30.9375 32.25V26.25H32.8125V31.4813L36.2812 34.95L34.9688 36.2812ZM33.75 5.625H27.7875C27 3.45 24.9375 1.875 22.5 1.875C20.0625 1.875 18 3.45 17.2125 5.625H11.25C9.1875 5.625 7.5 7.3125 7.5 9.375V37.5C7.5 39.5625 9.1875 41.25 11.25 41.25H22.7062C21.6 40.1813 20.7 38.9062 20.0437 37.5H11.25V9.375H15V15H30V9.375H33.75V18.9C35.0812 19.0875 36.3375 19.4813 37.5 20.025V9.375C37.5 7.3125 35.8125 5.625 33.75 5.625ZM22.5 9.375C21.4688 9.375 20.625 8.53125 20.625 7.5C20.625 6.46875 21.4688 5.625 22.5 5.625C23.5312 5.625 24.375 6.46875 24.375 7.5C24.375 8.53125 23.5312 9.375 22.5 9.375Z" fill="#F29D38"/>
</g>
<defs>
<clipPath id="clip0_363_304">
<rect width="45" height="45" fill="white"/>
</clipPath>
</defs>
</svg>
