<svg width="61" height="61" viewBox="0 0 61 61" fill="none" xmlns="http://www.w3.org/2000/svg">
<path d="M42.3153 4.50525C39.3562 1.50175 35.5094 0 31.9584 0C28.4075 0 24.2647 1.50175 21.6015 4.50525L4.43867 21.3249C-1.47956 27.3319 -1.47956 36.6427 4.43867 42.6497C10.3569 48.6567 19.5301 48.6567 25.4484 42.6497L42.3153 25.5298C47.9376 19.8231 47.9376 10.2119 42.3153 4.50525ZM38.1726 21.3249L29.887 29.7346L19.2342 19.2224L6.21414 32.4378C6.21414 30.035 6.80596 27.3319 8.87734 25.5298L25.7443 8.4098C27.2238 6.90805 29.5911 6.007 31.6625 6.007C33.7339 6.007 36.1012 6.90805 37.8766 8.4098C41.4276 12.3144 41.4276 17.7207 38.1726 21.3249ZM52.3763 15.3178C52.3763 17.7206 51.7845 19.8231 51.1927 22.2259C54.1518 25.8301 54.1518 31.2364 50.8967 34.5402L42.6112 42.95L38.1726 38.4448L29.887 46.8546C26.0402 50.7592 20.7138 52.8616 15.6833 52.8616C16.2751 53.7626 16.8669 54.6637 17.7547 55.5648C23.6729 61.5718 32.8462 61.5718 38.7644 55.5648L55.6313 38.4448C61.5496 32.4378 61.5496 23.1269 55.6313 17.1199C54.1518 16.5192 53.264 15.9185 52.3763 15.3178Z" fill="white"/>
</svg>
