<svg width="46" height="46" viewBox="0 0 46 46" fill="none" xmlns="http://www.w3.org/2000/svg">
<path d="M33.8295 12.1702C31.0503 9.39102 27.2362 7.66602 23.0003 7.66602C18.9337 7.66602 15.0336 9.28149 12.158 12.157C9.28246 15.0326 7.66699 18.9327 7.66699 22.9993C7.66699 27.066 9.28246 30.9661 12.158 33.8417C15.0336 36.7172 18.9337 38.3327 23.0003 38.3327C30.1495 38.3327 36.1103 33.4452 37.8162 26.8327H33.8295C32.2578 31.2985 28.0028 34.4993 23.0003 34.4993C19.9503 34.4993 17.0253 33.2877 14.8686 31.1311C12.7119 28.9744 11.5003 26.0493 11.5003 22.9993C11.5003 19.9494 12.7119 17.0243 14.8686 14.8676C17.0253 12.711 19.9503 11.4993 23.0003 11.4993C26.182 11.4993 29.0187 12.8218 31.0887 14.911L24.917 21.0827H38.3337V7.66602L33.8295 12.1702Z" fill="black"/>
</svg>
