<svg width="105" height="106" viewBox="0 0 105 106" fill="none" xmlns="http://www.w3.org/2000/svg">
<g clip-path="url(#clip0_316_254)">
<rect width="105" height="105" rx="19.963" fill="#F3F3F3"/>
<rect x="35.9333" y="19.1645" width="47.9111" height="47.9111" rx="23.9556" fill="#ACB2BE"/>
<rect x="-29.9443" y="79.8519" width="179.667" height="179.667" rx="89.8333" fill="#ACB2BE"/>
</g>
<path d="M82.6001 86.6393C82.6001 84.4342 84.3876 82.6467 86.5927 82.6467H105V105.047H82.6001V86.6393Z" fill="#EFFFF8"/>
<path d="M97.2246 87.8512L97.2243 87.8506L96.5617 87.5849V87.3853L96.5615 87.3853L91.738 87.3853C91.4419 87.3853 91.176 87.5715 91.0767 87.8512C91.0767 87.8513 91.0766 87.8515 91.0766 87.8516L90.6132 89.1462H88.6155C87.8103 89.1462 87.158 89.7985 87.158 90.6037V97.7732C87.158 98.5784 87.8103 99.2307 88.6155 99.2307H99.6842C100.489 99.2307 101.142 98.5784 101.142 97.7732V90.6037C101.142 89.7985 100.489 89.1462 99.6842 89.1462H97.6867L97.2246 87.8512ZM91.5509 90.6775H91.6915L91.7389 90.5451L92.0077 89.7936L92.0078 89.7934L92.3205 88.9166H95.9776L96.2904 89.7934L96.2904 89.7936L96.5593 90.5451L96.6066 90.6775H96.7472H99.6104V97.6994H88.6893V90.6775H91.5509ZM94.1499 91.2845C92.6497 91.2845 91.4346 92.4996 91.4346 93.9998C91.4346 95.4999 92.6497 96.715 94.1499 96.715C95.65 96.715 96.8651 95.4999 96.8651 93.9998C96.8651 92.4996 95.65 91.2845 94.1499 91.2845ZM94.1499 95.3095C93.4268 95.3095 92.8401 94.7228 92.8401 93.9998C92.8401 93.2767 93.4268 92.69 94.1499 92.69C94.8729 92.69 95.4596 93.2767 95.4596 93.9998C95.4596 94.7228 94.8729 95.3095 94.1499 95.3095Z" fill="#91A0F6" stroke="#91A0F6" stroke-width="0.399259"/>
<defs>
<clipPath id="clip0_316_254">
<rect width="105" height="105" rx="19.963" fill="white"/>
</clipPath>
</defs>
</svg>
