<svg width="378" height="154" viewBox="0 0 378 154" fill="none" xmlns="http://www.w3.org/2000/svg">
<rect width="378" height="154" rx="10" fill="#91A0F6" fill-opacity="0.5"/>
<g clip-path="url(#clip0_1_761)">
<path d="M322.694 130.507C322.737 132.567 322.452 134.621 321.851 136.592C321.83 136.664 321.804 136.735 321.779 136.807H309.37C309.548 135.934 309.829 135.086 310.209 134.28C311.242 132.09 312.928 130.216 314.593 128.355C316.885 125.791 319.124 123.247 319.478 119.912C320.386 121.296 321.112 122.792 321.636 124.363C320.994 124.6 320.406 124.961 319.903 125.424C319.764 125.555 319.617 125.744 319.688 125.925C319.756 126.077 319.941 126.127 320.106 126.161C320.502 126.237 320.898 126.313 321.294 126.384C321.606 126.447 321.922 126.506 322.238 126.565C322.516 127.862 322.669 129.182 322.694 130.507Z" fill="#F2F2F2"/>
<path d="M333.117 129.143C331.127 130.351 329.863 132.221 328.83 134.314C327.932 134.518 327.102 134.954 326.424 135.577C326.28 135.708 326.133 135.897 326.209 136.078C326.272 136.23 326.462 136.28 326.626 136.314C327.018 136.39 327.418 136.466 327.81 136.537C327.772 136.626 327.734 136.718 327.697 136.807H314.546C315.143 136.002 315.804 135.247 316.523 134.55C316.679 134.394 316.839 134.246 317.003 134.095C318.68 132.581 320.605 131.367 322.693 130.507C325.984 129.132 329.583 128.661 333.117 129.143Z" fill="#F2F2F2"/>
<path d="M316.738 136.807H305.029C304.965 135.87 304.971 134.93 305.046 133.994C305.3 131.097 306.179 128.289 307.623 125.764C309.068 123.239 311.043 121.057 313.413 119.369C312.806 121.529 313.118 123.677 313.75 125.833C313.661 125.862 313.573 125.887 313.493 125.921C312.851 126.158 312.263 126.519 311.76 126.982C311.621 127.113 311.474 127.302 311.545 127.483C311.609 127.635 311.798 127.686 311.963 127.719C312.359 127.795 312.755 127.871 313.147 127.942C313.463 128.006 313.779 128.065 314.095 128.128C314.243 128.153 314.39 128.182 314.538 128.212C314.559 128.262 314.572 128.309 314.593 128.355C315.335 130.397 316.144 132.457 316.523 134.55C316.617 135.075 316.682 135.605 316.717 136.137C316.73 136.36 316.738 136.584 316.738 136.807Z" fill="#F2F2F2"/>
<path d="M227.14 33.9186C229.329 33.9186 231.103 32.1459 231.103 29.9593C231.103 27.7726 229.329 26 227.14 26C224.951 26 223.177 27.7726 223.177 29.9593C223.177 32.1459 224.951 33.9186 227.14 33.9186Z" fill="#FD6584"/>
<path d="M236.01 28.0848C235.898 27.7185 235.681 27.393 235.386 27.1483C235.092 26.9035 234.732 26.7502 234.351 26.7071C234.342 26.7059 234.334 26.7075 234.325 26.7069C234.314 26.7035 234.303 26.7009 234.292 26.6991C232.479 26.4651 230.387 27.3311 229.632 29.0477C229.448 28.7966 229.205 28.5942 228.925 28.4578C228.645 28.3214 228.336 28.2552 228.024 28.2649C227.623 28.2916 227.239 28.4414 226.926 28.6937C226.612 28.9461 226.384 29.2888 226.273 29.6753C226.261 29.7226 226.264 29.7724 226.283 29.8176C226.301 29.8627 226.334 29.9009 226.375 29.9264C226.495 30.0278 226.637 30.0997 226.789 30.1364C227.118 30.2061 227.449 30.2699 227.78 30.3279C228.427 30.441 229.077 30.5324 229.73 30.6022C231.057 30.7442 232.392 30.7946 233.726 30.753C234.17 30.7392 234.598 30.7245 235.005 30.5286C235.301 30.3825 235.554 30.162 235.739 29.8887C235.913 29.626 236.028 29.3284 236.075 29.0167C236.121 28.7051 236.099 28.387 236.01 28.0848Z" fill="#F0F0F0"/>
<path d="M227.773 33.3638C227.661 32.9976 227.444 32.6721 227.15 32.4273C226.855 32.1826 226.495 32.0292 226.114 31.9861C226.105 31.9849 226.097 31.9865 226.089 31.986C226.078 31.9826 226.066 31.98 226.055 31.9782C224.243 31.7442 222.151 32.6102 221.395 34.3267C221.211 34.0757 220.968 33.8732 220.688 33.7368C220.408 33.6004 220.099 33.5342 219.788 33.5439C219.386 33.5707 219.002 33.7204 218.689 33.9728C218.376 34.2252 218.148 34.5679 218.036 34.9543C218.024 35.0016 218.028 35.0515 218.046 35.0966C218.065 35.1418 218.097 35.1799 218.139 35.2055C218.258 35.3068 218.4 35.3788 218.553 35.4155C218.882 35.4851 219.212 35.5489 219.543 35.6069C220.19 35.72 220.84 35.8114 221.494 35.8812C222.821 36.0232 224.155 36.0737 225.489 36.0321C225.933 36.0183 226.361 36.0035 226.768 35.8077C227.065 35.6616 227.317 35.441 227.502 35.1677C227.677 34.9051 227.791 34.6074 227.838 34.2958C227.885 33.9841 227.863 33.666 227.773 33.3638Z" fill="#F0F0F0"/>
<path d="M265.896 94.8164C265.796 94.9634 265.532 95.1383 265.429 95.2829L265.539 94.9506L265.502 94.8737L265.268 94.4072L259.325 82.441L259.323 82.4386L249.248 62.1629V62.1605L249.017 61.6964V61.6941L244.031 51.6589L243.795 51.1831C243.973 51.1878 244.15 51.1948 244.328 51.2041L244.566 51.6822L249.538 61.6941L249.54 61.6964L249.771 62.1605V62.1629L259.589 81.9232V81.9255L259.82 82.3896V82.392L265.763 94.3489L265.842 94.5098L265.896 94.8164Z" fill="#3F3D56"/>
<path d="M265.233 62.1628H220.756C220.875 62.0066 220.997 61.8503 221.123 61.6964H264.867C264.993 61.8503 265.114 62.0066 265.233 62.1628Z" fill="#3F3D56"/>
<path d="M270.868 81.9255C270.854 82.0817 270.838 82.238 270.817 82.3919H259.423V81.9255H270.868Z" fill="#3F3D56"/>
<path d="M222.449 60.1595V97.6885C222.287 97.5182 222.133 97.3457 221.982 97.1731V60.6749C222.133 60.5023 222.287 60.3297 222.449 60.1595Z" fill="#3F3D56"/>
<path d="M265.647 94.4069H222.215V94.8734H265.647V94.4069Z" fill="#3F3D56"/>
<path d="M265.609 94.8164H265.663V94.7395C265.646 94.7662 265.628 94.7919 265.609 94.8164ZM265.249 62.1056C265.13 61.9494 265.009 61.7931 264.883 61.6392C262.404 58.5312 259.289 55.9875 255.747 54.1781C252.205 52.3687 248.317 51.3353 244.344 51.1468C244.167 51.1375 243.989 51.1305 243.812 51.1259C243.546 51.1189 243.279 51.1142 243.011 51.1142C239.151 51.1121 235.332 51.9098 231.795 53.4568C228.259 55.0039 225.082 57.2666 222.465 60.1023C222.304 60.2726 222.15 60.4451 221.998 60.6177C221.702 60.9512 221.415 61.2917 221.139 61.6392C221.013 61.7931 220.892 61.9494 220.773 62.1056C216.828 67.2437 214.793 73.5919 215.017 80.0636C215.24 86.5353 217.708 92.7282 221.998 97.5824C222.15 97.7549 222.304 97.9275 222.465 98.0978C225.286 101.15 228.752 103.536 232.612 105.081C236.472 106.626 240.628 107.292 244.778 107.03C248.928 106.769 252.968 105.586 256.603 103.569C260.237 101.551 263.376 98.7491 265.791 95.3668C265.894 95.2222 265.996 95.0776 266.097 94.9307C268.685 91.1836 270.312 86.8579 270.833 82.3347C270.854 82.1808 270.87 82.0246 270.884 81.8683C270.975 80.9588 271.021 80.036 271.022 79.1C271.029 72.9538 268.999 66.978 265.249 62.1056ZM270.364 82.3347C269.856 86.6764 268.311 90.8324 265.859 94.4526C265.796 94.5482 265.73 94.6438 265.663 94.7395C265.646 94.7662 265.628 94.7919 265.609 94.8164C265.593 94.8421 265.574 94.8677 265.555 94.8934C263.174 98.2925 260.054 101.109 256.428 103.132C252.802 105.154 248.765 106.331 244.619 106.573C240.474 106.815 236.327 106.116 232.49 104.528C228.653 102.941 225.226 100.507 222.465 97.4074C222.304 97.2302 222.148 97.053 221.998 96.871C217.893 92.0394 215.588 85.9382 215.471 79.6019C215.355 73.2656 217.436 67.0842 221.361 62.1056C221.485 61.9494 221.608 61.7931 221.737 61.6392C221.821 61.5343 221.907 61.4316 221.998 61.329C222.148 61.1471 222.304 60.9699 222.465 60.7926C225.044 57.8937 228.208 55.5739 231.75 53.986C235.291 52.3981 239.129 51.5783 243.011 51.5806C243.359 51.5806 243.704 51.5876 244.047 51.6016C244.227 51.6063 244.405 51.6156 244.582 51.6249C248.381 51.8419 252.093 52.8439 255.485 54.5676C258.876 56.2913 261.873 58.6993 264.285 61.6392C264.414 61.7931 264.538 61.9494 264.661 62.1056C269.066 67.7015 271.129 74.7849 270.418 81.8683C270.401 82.0246 270.385 82.1808 270.364 82.3347ZM265.609 94.8164H265.663V94.7395C265.646 94.7662 265.628 94.7919 265.609 94.8164Z" fill="#CCCCCC"/>
<path d="M239.481 42.2399C239.481 42.3681 239.477 42.4953 239.468 42.6214C239.422 43.3487 239.238 44.0606 238.926 44.7196C238.924 44.7252 238.921 44.7305 238.919 44.7357C238.904 44.7663 238.889 44.7968 238.874 44.827C238.781 45.0134 238.679 45.1946 238.566 45.3697C238.053 46.1739 237.349 46.8393 236.517 47.3071C235.685 47.7749 234.75 48.0308 233.795 48.0521L233.853 51.3584L234.603 50.9636L234.737 51.2181L233.859 51.6804L233.966 57.8211L233.967 57.9031L233.387 58.0322L233.388 57.9498L233.571 48.0525C232.802 48.0415 232.044 47.8781 231.339 47.5718C230.635 47.2655 229.998 46.8224 229.466 46.2683C229.43 46.2305 229.394 46.1915 229.358 46.1529L229.354 46.1484C228.911 45.6657 228.553 45.1117 228.294 44.5098C228.3 44.5162 228.306 44.5222 228.312 44.5286C225.914 38.5083 227.309 35.7175 231.071 37.0355C231.091 37.0255 231.112 37.0158 231.132 37.0058C232.448 36.3725 233.954 36.2563 235.352 36.6802C236.749 37.1041 237.937 38.0372 238.678 39.2946C238.713 39.3541 238.748 39.4148 238.781 39.4759C239.241 40.3244 239.482 41.2746 239.481 42.2399Z" fill="#E5E5E5"/>
<path d="M246.323 37.119C246.253 38.2741 245.954 39.4037 245.443 40.4423C244.461 42.4293 242.736 43.9359 240.586 44.4979C240.582 44.4998 240.578 44.5006 240.574 44.5003C240.033 44.6412 239.478 44.7202 238.919 44.7358H238.872C238.814 44.7381 238.756 44.7381 238.697 44.7381C238.658 44.7381 238.618 44.7381 238.578 44.7358C236.577 44.705 234.668 43.8889 233.263 42.4638C231.859 41.0388 231.071 39.119 231.071 37.119V37.035C231.075 36.5488 231.145 36.0653 231.281 35.5984C231.281 35.5961 231.284 35.5938 231.284 35.5914C231.537 34.78 231.994 34.047 232.612 33.4622C234.141 31.9509 236.561 31.0018 238.697 29.4998C243.375 26.2115 246.811 29.4835 246.323 37.119Z" fill="#E5E5E5"/>
<path opacity="0.2" d="M245.443 40.4423C244.461 42.4293 242.736 43.9359 240.586 44.4979C240.582 44.4998 240.578 44.5006 240.574 44.5002C240.035 44.634 239.482 44.7076 238.926 44.7195H238.872C238.774 44.7218 238.676 44.7218 238.578 44.7195C236.571 44.6694 234.665 43.8319 233.271 42.3881C231.878 40.9443 231.109 39.0103 231.132 37.0047C231.139 36.5324 231.189 36.0617 231.281 35.5984C231.281 35.5961 231.284 35.5937 231.284 35.5914C231.537 34.78 231.995 34.047 232.612 33.4622C232.405 34.4504 232.396 35.47 232.586 36.4616C232.777 37.4532 233.163 38.3971 233.722 39.2384C234.281 40.0797 235.001 40.8017 235.842 41.3623C236.682 41.9229 237.626 42.3109 238.618 42.5039C238.69 42.5179 238.763 42.5319 238.835 42.5436C239.045 42.5786 239.255 42.6042 239.468 42.6205C240.562 42.7093 241.663 42.5605 242.694 42.1846C243.725 41.8086 244.663 41.2143 245.443 40.4423Z" fill="black"/>
<path d="M238.956 49.4921L240.107 48.8866L239.931 48.5532L238.948 49.0704L238.874 44.8272V44.8266L238.872 44.7368V44.7208L238.834 42.5439L238.781 39.476L238.74 37.1188H238.718L238.678 39.2945V39.2951L238.619 42.5047L238.578 44.7194L238.578 44.7378L238.566 45.3697L238.333 58.045L238.331 58.1287L239.11 58.3471L239.109 58.2627L238.956 49.4921Z" fill="#3F3D56"/>
<path d="M266.737 64.5022C261.896 63.5331 257.039 62.654 252.124 62.116C247.463 61.5683 242.764 61.4325 238.079 61.7103C233.848 61.9954 229.581 62.6639 225.607 64.1881C222.544 65.3625 219.28 67.1395 217.625 70.1029C216.031 72.9595 216.653 76.2537 218.389 78.8893C220.478 82.0604 223.736 84.2335 227.123 85.8218C230.98 87.6301 235.105 88.8023 239.235 89.7992C241.33 90.3049 243.436 90.7619 245.542 91.2166C245.982 91.3115 246.169 90.6372 245.728 90.542C241.481 89.625 237.221 88.705 233.079 87.3776C229.246 86.1492 225.324 84.5757 222.185 81.9963C219.646 79.9096 217.231 76.8617 217.381 73.3963C217.532 69.9029 220.466 67.4637 223.341 65.9623C226.935 64.0861 231.018 63.1721 235.018 62.6945C239.599 62.1845 244.218 62.1217 248.811 62.507C254.95 62.9737 260.997 64.0562 267.022 65.2687" fill="black"/>
<path d="M244.01 70.0659C246.047 71.0831 247.287 72.4267 247.287 73.9003C247.287 77.0749 241.538 79.6483 234.446 79.6483C231.362 79.6483 228.533 79.1615 226.319 78.3507C228.671 79.5249 232.084 80.2642 235.884 80.2642C242.976 80.2642 248.726 77.6907 248.726 74.5162C248.726 72.7219 246.888 71.1199 244.01 70.0659Z" fill="#F1F1F1"/>
<path d="M248.541 72.2464C250.84 73.3943 252.24 74.9103 252.24 76.5732C252.24 80.1552 245.752 83.0591 237.749 83.0591C234.27 83.0591 231.078 82.5097 228.58 81.5949C231.233 82.9198 235.084 83.754 239.372 83.754C247.375 83.754 253.863 80.8502 253.863 77.2681C253.863 75.2434 251.789 73.4358 248.541 72.2464Z" fill="#F1F1F1"/>
<path d="M242.276 71.0263C243.711 71.743 244.585 72.6896 244.585 73.7278C244.585 75.9643 240.534 77.7774 235.538 77.7774C233.591 77.8026 231.654 77.4933 229.812 76.8632C231.469 77.6904 233.874 78.2113 236.551 78.2113C241.548 78.2113 245.598 76.3982 245.598 74.1617C245.598 72.8975 244.304 71.7689 242.276 71.0263Z" fill="#F1F1F1"/>
<path d="M234.633 75.3094C231.682 75.3094 230.247 74.5005 229.563 73.8219C229.438 73.6974 229.353 73.5386 229.318 73.3657C229.284 73.1928 229.301 73.0136 229.369 72.8508C229.436 72.6879 229.551 72.5487 229.698 72.4509C229.844 72.353 230.017 72.3009 230.193 72.3011H240.489C240.629 72.301 240.766 72.3445 240.88 72.4257C240.995 72.5069 241.081 72.6216 241.127 72.7539C241.173 72.8862 241.176 73.0296 241.137 73.164C241.097 73.2983 241.017 73.4171 240.907 73.5037C239.858 74.3275 237.918 75.3094 234.633 75.3094Z" fill="#3F3D56"/>
<path d="M236.771 64.9574C235.969 64.3481 234.961 64.0728 233.96 64.189C235.737 64.6275 234.335 67.0819 235.953 69.6274C236.836 71.0145 235.12 71.6946 233.486 71.8808C234.36 72.0918 235.281 71.9954 236.093 71.6079C236.905 71.2204 237.559 70.5654 237.944 69.753C238.33 68.9407 238.424 68.0204 238.21 67.1471C237.996 66.2737 237.488 65.5005 236.771 64.9574Z" fill="#3F3D56"/>
<path d="M234.949 63.6779H234.57V72.6933H234.949V63.6779Z" fill="#3F3D56"/>
<path d="M271.431 66.2081C270.424 65.4997 269.287 64.9963 268.086 64.7268C266.884 64.4573 265.641 64.4268 264.428 64.6372C263.215 64.8476 262.055 65.2947 261.014 65.9529C259.974 66.6112 259.073 67.4678 258.364 68.4737C255.382 72.7043 252.39 83.7981 254.502 90.2247C260.803 83.5759 270.482 82.885 273.699 79.2629C277.136 75.3925 275.665 69.1875 271.431 66.2081Z" fill="#6C63FF"/>
<path d="M265.904 75.7881C267.593 75.7881 268.962 74.4201 268.962 72.7325C268.962 71.045 267.593 69.6769 265.904 69.6769C264.215 69.6769 262.846 71.045 262.846 72.7325C262.846 74.4201 264.215 75.7881 265.904 75.7881Z" fill="white"/>
<path d="M251.917 93.5525C253.023 93.5525 253.92 92.6565 253.92 91.5511C253.92 90.4458 253.023 89.5498 251.917 89.5498C250.811 89.5498 249.914 90.4458 249.914 91.5511C249.914 92.6565 250.811 93.5525 251.917 93.5525Z" fill="#6C63FF"/>
<path opacity="0.2" d="M269.176 72.0274C269.379 72.3739 269.511 72.7569 269.565 73.1545C269.62 73.552 269.595 73.9564 269.493 74.3445C269.391 74.7326 269.213 75.0968 268.97 75.4163C268.727 75.7358 268.424 76.0044 268.077 76.2068C267.73 76.4091 267.347 76.5412 266.949 76.5955C266.551 76.6498 266.146 76.6253 265.758 76.5233C265.37 76.4214 265.005 76.244 264.685 76.0013C264.365 75.7585 264.097 75.4553 263.894 75.1088C264.44 75.5872 265.138 75.856 265.865 75.8669C266.591 75.8779 267.297 75.6303 267.857 75.1684C268.417 74.7066 268.794 74.0607 268.921 73.3464C269.048 72.632 268.917 71.8959 268.55 71.2696C268.798 71.4868 269.01 71.7427 269.176 72.0274Z" fill="#231F20"/>
<path opacity="0.2" d="M273.704 79.2773C270.488 82.8994 260.808 83.5903 254.508 90.2391C254.312 89.6311 254.16 89.0093 254.055 88.3789C260.353 82.3345 269.493 81.5707 272.601 78.071C275.383 74.9388 274.95 70.2777 272.439 67.0345C275.882 70.2234 276.855 75.7305 273.704 79.2773Z" fill="#231F20"/>
<path d="M306.686 134.548H304.403L303.317 125.751H306.686L306.686 134.548Z" fill="#FFB6B6"/>
<path d="M307.268 136.759L299.907 136.759V136.666C299.907 135.907 300.209 135.179 300.746 134.642C301.283 134.105 302.012 133.803 302.772 133.803H302.772L304.117 132.784L306.625 133.804L307.268 133.804L307.268 136.759Z" fill="#2F2E41"/>
<path d="M297.839 133.111L295.612 133.613L292.613 125.271L295.9 124.529L297.839 133.111Z" fill="#FFB6B6"/>
<path d="M298.894 135.139L291.714 136.759L291.693 136.668C291.526 135.928 291.66 135.151 292.066 134.509C292.472 133.868 293.116 133.413 293.857 133.246L293.857 133.246L294.944 131.956L297.616 132.398L298.243 132.256L298.894 135.139Z" fill="#2F2E41"/>
<path d="M309.577 80.7648C310.647 83.99 310.534 87.4909 309.32 91.2483L308.801 112.403C309.659 113.347 310.197 117.195 308.875 119.95C307.11 123.629 308.326 128.717 307.078 131.158H303.458L302.569 121.22L301.785 120.1L301.666 111.136C301.185 109.999 300.628 108.871 301.606 107.554L301.58 105.997L301.441 97.6976L295.982 105.673C295.827 107.478 294.903 108.424 293.681 109.035L295.371 116.491C298.328 119.019 297.605 122.933 297.654 126.556L298.623 130.831L294.168 131.229L292.202 125.431L289.992 121.858L286.147 107.576L288.828 101.359L289.924 98.8179L296.044 84.628L309.577 80.7648Z" fill="#2F2E41"/>
<path d="M271.757 69.2624C271.935 69.4404 272.151 69.5772 272.388 69.663C272.625 69.7489 272.878 69.7818 273.129 69.7593C273.38 69.7369 273.623 69.6597 273.842 69.5333C274.06 69.4068 274.247 69.234 274.391 69.0272L280.293 70.6846L279.324 67.6526L273.869 66.5436C273.505 66.3248 273.073 66.2469 272.656 66.3248C272.239 66.4026 271.864 66.6307 271.604 66.9658C271.344 67.3009 271.215 67.7198 271.244 68.1431C271.272 68.5664 271.454 68.9646 271.757 69.2624Z" fill="#FFB8B8"/>
<path d="M276.583 66.8136L282.344 66.7714C283.897 66.3375 285.535 66.3004 287.106 66.6636L287.412 66.7342L289.816 66.4618C291.249 63.5997 293.908 61.012 297.478 58.6281C298.017 58.1946 298.641 57.88 299.309 57.7048C299.978 57.5297 300.677 57.4981 301.359 57.6121C302.041 57.7261 302.691 57.9831 303.266 58.3661C303.841 58.7492 304.329 59.2497 304.697 59.8346C305.361 60.8936 305.595 62.1661 305.35 63.3916C305.106 64.6172 304.402 65.703 303.382 66.4268L292.504 72.8167C291.55 73.3774 290.466 73.6801 289.359 73.6951L289.332 73.7088L283.127 71.386L279.935 70.9802L275.606 69.7233L276.583 66.8136Z" fill="#6C63FF"/>
<path d="M299.694 53.3837C302.695 53.3837 305.129 50.9527 305.129 47.9538C305.129 44.955 302.695 42.524 299.694 42.524C296.692 42.524 294.259 44.955 294.259 47.9538C294.259 50.9527 296.692 53.3837 299.694 53.3837Z" fill="#FFB8B8"/>
<path d="M304.769 51.3975C305.172 50.8232 305.458 49.9035 305.626 49.2313C305.852 48.3462 305.889 47.4236 305.735 46.5232C305.582 45.6229 305.24 44.7649 304.733 44.0048C304.546 43.6951 304.278 43.4422 303.957 43.2735C303.628 43.1268 303.195 43.1617 302.966 43.4392C302.965 43.1957 302.914 42.955 302.817 42.7318C302.719 42.5086 302.577 42.3078 302.399 42.1416C302.04 41.8112 301.608 41.569 301.139 41.4341C300.235 41.1587 299.274 41.1329 298.356 41.3595C297.439 41.5862 296.6 42.0567 295.928 42.7213C295.666 42.9879 295.76 41.6556 295.468 41.8903C295.186 42.1424 294.817 42.2742 294.439 42.2574C294.066 42.2178 293.382 43.5424 293.378 43.1687C292.987 43.5605 292.814 45.2131 292.937 45.753C293.059 46.293 294.881 46.0543 295.403 46.2394C295.749 46.362 296.125 46.3661 296.483 46.4459C297.12 46.6104 297.675 47.0021 298.042 47.5472C298.41 48.0923 298.565 48.753 298.478 49.4046C298.708 49.0967 298.985 48.8278 299.3 48.6083C299.459 48.4999 299.641 48.431 299.832 48.4072C300.023 48.3834 300.216 48.4055 300.397 48.4715C300.56 48.5589 300.703 48.6785 300.818 48.8232C300.933 48.9679 301.017 49.1346 301.065 49.3129C301.184 49.662 301.23 50.0327 301.351 50.381C301.705 51.4032 301.888 52.4762 302.876 52.7186C303.656 52.9098 304.219 52.1815 304.769 51.3975Z" fill="#2F2E41"/>
<path d="M310.041 79.6884L309.444 78.4961C308.714 73.9747 307.992 69.7575 308.972 65.9642C309.034 62.6527 308.009 59.5417 305.165 57.8428L303.882 57.0761L303.232 55.43L297.251 55.576L297.233 57.7338L295.091 61.1473V61.1613L295.225 79.7359L295.816 81.6528L294.924 83.8827L295.398 85.3055L307.189 83.422L308.56 83.2022C308.719 83.1515 308.871 83.085 309.016 83.0034C309.508 82.7305 309.894 82.2999 310.111 81.7812C310.123 81.7513 310.134 81.7232 310.145 81.6933C310.237 81.4512 310.291 81.1959 310.303 80.9371C310.324 80.5053 310.234 80.0752 310.041 79.6884Z" fill="#6C63FF"/>
<path opacity="0.2" d="M310.303 80.937C310.29 81.1959 310.237 81.4511 310.144 81.6933L309.016 83.0034C308.871 83.085 308.719 83.1515 308.56 83.2022L307.189 83.422L309.173 79.6955L304.813 70.1584L310.303 80.937Z" fill="black"/>
<path d="M315.048 91.9679C314.829 91.8187 314.646 91.6235 314.511 91.3958C314.376 91.1681 314.292 90.9136 314.266 90.6502C314.24 90.3868 314.272 90.1208 314.36 89.8711C314.448 89.6214 314.589 89.3939 314.775 89.2048L311.905 83.444L315.227 83.8482L317.443 89.2568C317.74 89.589 317.905 90.0187 317.907 90.4644C317.908 90.9101 317.746 91.3408 317.451 91.675C317.156 92.0092 316.748 92.2236 316.305 92.2775C315.863 92.3315 315.415 92.2213 315.048 91.9679Z" fill="#FFB8B8"/>
<path d="M303.415 72.1466L305.592 71.8462C305.592 71.8462 305.802 75.1254 306.843 75.6224C307.884 76.1194 307.533 76.2012 307.656 76.7273C307.779 77.2534 308.335 78.0485 309.16 78.411C309.985 78.7735 313.737 87.8892 313.737 87.8892L316.896 87.1531C316.604 86.3617 316.411 85.537 316.323 84.698C316.212 83.4295 314.773 80.4365 314.299 79.9922C313.825 79.5479 314.013 78.7646 313.767 77.7124C313.522 76.6602 313.692 77.6359 313.283 75.8822C312.873 74.1285 308.272 63.6188 308.079 61.9996C307.886 60.3804 305.628 59.4273 305.628 59.4273L303.873 59.8363L303.415 72.1466Z" fill="#6C63FF"/>
<path d="M267.259 137H335.781C335.839 137 335.895 136.977 335.936 136.936C335.977 136.895 336 136.839 336 136.781C336 136.723 335.977 136.667 335.936 136.626C335.895 136.585 335.839 136.561 335.781 136.561H267.259C267.201 136.561 267.145 136.585 267.104 136.626C267.063 136.667 267.04 136.723 267.04 136.781C267.04 136.839 267.063 136.895 267.104 136.936C267.145 136.977 267.201 137 267.259 137Z" fill="#CCCCCC"/>
</g>
<g clip-path="url(#clip1_1_761)">
<path d="M136.558 131.712L136.528 131.709L89.442 127.335L46.6249 131.312C45.507 131.416 44.3936 131.071 43.5296 130.354C42.6657 129.637 42.122 128.606 42.0182 127.489C42.0061 127.358 42 127.228 42 127.097V25.2654C41.9957 24.2092 42.3881 23.1899 43.0996 22.4093C43.8111 21.6287 44.7897 21.1437 45.8418 21.0503L89.442 17L89.4721 17.0029L136.558 21.3769L179.375 17.3994C180.493 17.2956 181.606 17.6401 182.47 18.3571C183.334 19.0742 183.878 20.1051 183.982 21.223C183.994 21.3532 184 21.4837 184 21.6145V123.446C184.004 124.502 183.612 125.522 182.9 126.302C182.189 127.083 181.21 127.568 180.158 127.661L136.558 131.712Z" fill="#3F3D56"/>
<path d="M107.637 54.6726C98.5221 48.0344 88.9321 41.7398 79.1352 35.9646L78.6435 35.6748V55.262H108.446L107.637 54.6726ZM79.2948 54.6107V36.8162C88.6146 42.3293 97.7406 48.3112 106.443 54.6107L79.2948 54.6107ZM153.765 94.9265C149.823 90.8283 145.779 86.8235 141.634 82.9121C140.491 81.8326 139.341 80.7618 138.183 79.6996C131.122 73.2129 123.828 67.0436 116.302 61.1919L116.214 61.1235H78.6435V95.4785H154.296L153.765 94.9265ZM79.2948 94.8272V61.7748H115.991C123.248 67.4198 130.308 73.3806 137.172 79.6573C138.364 80.7465 139.548 81.8445 140.723 82.9511C144.833 86.8132 148.846 90.7719 152.764 94.8272H79.2948ZM153.765 94.9265C149.823 90.8283 145.779 86.8235 141.634 82.9121C140.491 81.8326 139.341 80.7618 138.183 79.6996C131.122 73.2129 123.828 67.0436 116.302 61.1919L116.214 61.1235H78.6435V95.4785H154.296L153.765 94.9265ZM79.2948 94.8272V61.7748H115.991C123.248 67.4198 130.308 73.3806 137.172 79.6573C138.364 80.7465 139.548 81.8445 140.723 82.9511C144.833 86.8132 148.846 90.7719 152.764 94.8272H79.2948ZM107.637 54.6726C98.5221 48.0344 88.9321 41.7398 79.1352 35.9646L78.6435 35.6748V55.262H108.446L107.637 54.6726ZM79.2948 54.6107V36.8162C88.6146 42.3293 97.7406 48.3112 106.443 54.6107L79.2948 54.6107ZM107.637 54.6726C98.5221 48.0344 88.9321 41.7398 79.1352 35.9646L78.6435 35.6748V55.262H108.446L107.637 54.6726ZM79.2948 54.6107V36.8162C88.6146 42.3293 97.7406 48.3112 106.443 54.6107L79.2948 54.6107ZM153.765 94.9265C149.823 90.8283 145.779 86.8235 141.634 82.9121C140.491 81.8326 139.341 80.7618 138.183 79.6996C131.122 73.2129 123.828 67.0436 116.302 61.1919L116.214 61.1235H78.6435V95.4785H154.296L153.765 94.9265ZM79.2948 94.8272V61.7748H115.991C123.248 67.4198 130.308 73.3806 137.172 79.6573C138.364 80.7465 139.548 81.8445 140.723 82.9511C144.833 86.8132 148.846 90.7719 152.764 94.8272H79.2948ZM46.4084 101.34V101.991H72.1307V111.435H46.4084V112.086H72.782V101.34H46.4084ZM78.6435 117.948V124.547L79.2948 124.486V118.599H179.592V117.948L78.6435 117.948ZM179.592 101.991V101.34H78.6435V112.086H179.592V111.435H79.2948V101.991L179.592 101.991ZM118.77 54.6107C106.276 44.9725 93.0809 36.2783 79.2948 28.6003V22.0061L78.6435 22.0663V28.7116L79.145 29.263C92.8749 36.9201 106.016 45.5876 118.461 55.1936L118.549 55.262H179.592V54.6107L118.77 54.6107ZM72.1307 54.6107H46.4084V55.262H72.782V22.6102L72.1307 22.6704L72.1307 54.6107ZM179.592 61.1235H125.928L126.63 61.6999C133.237 67.1365 139.724 72.9024 146.092 78.9979C146.997 79.8641 147.899 80.7373 148.798 81.6176C153.272 85.9893 157.659 90.5038 161.958 95.161L162.495 95.4785H179.592V94.8272H162.536C158.283 90.2161 153.938 85.7386 149.501 81.3946C148.614 80.5251 147.723 79.6616 146.829 78.8041C140.6 72.827 134.237 67.1506 127.742 61.7748H179.592V61.1235ZM46.4084 117.948V118.599H72.1307V125.151L72.782 125.09V117.948H46.4084ZM46.4084 61.1235V61.7748H72.1307V94.8272H46.4084V95.4785H72.782V61.1235H46.4084ZM107.637 54.6726C98.5221 48.0344 88.9321 41.7398 79.1352 35.9646L78.6435 35.6748V55.262H108.446L107.637 54.6726ZM79.2948 54.6107V36.8162C88.6146 42.3293 97.7406 48.3112 106.443 54.6107L79.2948 54.6107ZM153.765 94.9265C149.823 90.8283 145.779 86.8235 141.634 82.9121C140.491 81.8326 139.341 80.7618 138.183 79.6996C131.122 73.2129 123.828 67.0436 116.302 61.1919L116.214 61.1235H78.6435V95.4785H154.296L153.765 94.9265ZM79.2948 94.8272V61.7748H115.991C123.248 67.4198 130.308 73.3806 137.172 79.6573C138.364 80.7465 139.548 81.8445 140.723 82.9511C144.833 86.8132 148.846 90.7719 152.764 94.8272H79.2948ZM107.637 54.6726C98.5221 48.0344 88.9321 41.7398 79.1352 35.9646L78.6435 35.6748V55.262H108.446L107.637 54.6726ZM79.2948 54.6107V36.8162C88.6146 42.3293 97.7406 48.3112 106.443 54.6107L79.2948 54.6107ZM153.765 94.9265C149.823 90.8283 145.779 86.8235 141.634 82.9121C140.491 81.8326 139.341 80.7618 138.183 79.6996C131.122 73.2129 123.828 67.0436 116.302 61.1919L116.214 61.1235H78.6435V95.4785H154.296L153.765 94.9265ZM79.2948 94.8272V61.7748H115.991C123.248 67.4198 130.308 73.3806 137.172 79.6573C138.364 80.7465 139.548 81.8445 140.723 82.9511C144.833 86.8132 148.846 90.7719 152.764 94.8272H79.2948Z" fill="white"/>
<path d="M114.729 59.8582C114.729 68.1053 99.7961 86.4775 99.7961 86.4775C99.7961 86.4775 84.8633 68.1053 84.8633 59.8582C84.8633 55.8977 86.4366 52.0995 89.237 49.2991C92.0374 46.4986 95.8357 44.9254 99.7961 44.9254C103.757 44.9254 107.555 46.4986 110.355 49.2991C113.156 52.0995 114.729 55.8977 114.729 59.8582Z" fill="#6C63FF"/>
<path d="M106.623 59.2089C106.623 60.559 106.222 61.8788 105.472 63.0014C104.722 64.124 103.656 64.999 102.409 65.5157C101.161 66.0324 99.7888 66.1675 98.4646 65.9041C97.1404 65.6407 95.9241 64.9906 94.9694 64.0359C94.0147 63.0812 93.3645 61.8648 93.1011 60.5406C92.8377 59.2165 92.9729 57.8439 93.4896 56.5965C94.0063 55.3491 94.8812 54.283 96.0038 53.5329C97.1264 52.7828 98.4463 52.3824 99.7964 52.3824C100.693 52.382 101.581 52.5583 102.409 52.9012C103.238 53.2442 103.99 53.747 104.624 54.3809C105.258 55.0149 105.761 55.7676 106.104 56.596C106.447 57.4244 106.623 58.3123 106.623 59.2089Z" fill="white"/>
<path d="M99.7961 97.2551C102.019 97.2551 103.821 95.4529 103.821 93.2297C103.821 91.0066 102.019 89.2043 99.7961 89.2043C97.573 89.2043 95.7708 91.0066 95.7708 93.2297C95.7708 95.4529 97.573 97.2551 99.7961 97.2551Z" fill="#6C63FF"/>
<path d="M138.365 42.6968C141.652 42.6968 144.316 40.0322 144.316 36.7453C144.316 33.4584 141.652 30.7938 138.365 30.7938C135.078 30.7938 132.413 33.4584 132.413 36.7453C132.413 40.0322 135.078 42.6968 138.365 42.6968Z" fill="#FF6584"/>
<path d="M157.028 55.0857H127.832C127.795 55.0861 127.758 55.0832 127.722 55.077L141.531 31.1587C141.615 31.0098 141.737 30.8858 141.885 30.7996C142.033 30.7134 142.201 30.668 142.372 30.668C142.544 30.668 142.712 30.7134 142.859 30.7996C143.007 30.8858 143.13 31.0098 143.214 31.1587L152.481 47.2098L152.925 47.9778L157.028 55.0857Z" fill="white"/>
<path opacity="0.2" d="M157.028 55.0856H147.06L151.953 47.9777L152.305 47.4657L152.481 47.2097L152.925 47.9777L157.028 55.0856Z" fill="black"/>
<path d="M173.284 55.0857H148.032L152.925 47.9778L153.277 47.4658L159.654 38.2029C160.072 37.5958 161.078 37.558 161.569 38.0884C161.602 38.1246 161.633 38.1628 161.661 38.2029L173.284 55.0857Z" fill="white"/>
<path d="M175.158 88.8023C176.821 88.8023 178.17 87.4537 178.17 85.7902C178.17 84.1266 176.821 82.778 175.158 82.778C173.494 82.778 172.146 84.1266 172.146 85.7902C172.146 87.4537 173.494 88.8023 175.158 88.8023Z" fill="white"/>
<path d="M175.448 94.863H174.832L175.113 85.3365L175.448 94.863Z" fill="#CBCBCB"/>
<path d="M175.167 87.1421L175.829 86.2256L175.158 87.369L175.085 87.2419L175.167 87.1421Z" fill="#CBCBCB"/>
<path d="M175.095 88.0673L174.432 87.1511L175.104 88.2942L175.176 88.1672L175.095 88.0673Z" fill="#CBCBCB"/>
<path d="M166.593 85.9119C169.05 85.9119 171.042 83.9202 171.042 81.4632C171.042 79.0063 169.05 77.0145 166.593 77.0145C164.136 77.0145 162.144 79.0063 162.144 81.4632C162.144 83.9202 164.136 85.9119 166.593 85.9119Z" fill="white"/>
<path d="M167.022 94.863H166.111L166.526 80.7932L167.022 94.863Z" fill="#CBCBCB"/>
<path d="M166.607 83.4598L167.585 82.1066L166.593 83.7949L166.486 83.6073L166.607 83.4598Z" fill="#CBCBCB"/>
<path d="M166.5 84.8266L165.521 83.4734L166.513 85.1616L166.62 84.9741L166.5 84.8266Z" fill="#CBCBCB"/>
<path d="M63.3085 88.8023C64.9721 88.8023 66.3207 87.4537 66.3207 85.7902C66.3207 84.1266 64.9721 82.778 63.3085 82.778C61.645 82.778 60.2964 84.1266 60.2964 85.7902C60.2964 87.4537 61.645 88.8023 63.3085 88.8023Z" fill="white"/>
<path d="M63.5991 94.863H62.9822L63.2634 85.3365L63.5991 94.863Z" fill="#CBCBCB"/>
<path d="M63.3176 87.1421L63.98 86.2256L63.3085 87.369L63.2361 87.2419L63.3176 87.1421Z" fill="#CBCBCB"/>
<path d="M63.245 88.0673L62.5825 87.1511L63.254 88.2942L63.3265 88.1672L63.245 88.0673Z" fill="#CBCBCB"/>
<path d="M54.7436 85.9119C57.2006 85.9119 59.1923 83.9202 59.1923 81.4632C59.1923 79.0063 57.2006 77.0145 54.7436 77.0145C52.2867 77.0145 50.2949 79.0063 50.2949 81.4632C50.2949 83.9202 52.2867 85.9119 54.7436 85.9119Z" fill="white"/>
<path d="M55.1724 94.863H54.2612L54.6767 80.7932L55.1724 94.863Z" fill="#CBCBCB"/>
<path d="M54.757 83.4598L55.7351 82.1066L54.7436 83.7949L54.6365 83.6073L54.757 83.4598Z" fill="#CBCBCB"/>
<path d="M54.6499 84.8266L53.6716 83.4734L54.6633 85.1616L54.7704 84.9741L54.6499 84.8266Z" fill="#CBCBCB"/>
</g>
<defs>
<clipPath id="clip0_1_761">
<rect width="121" height="111" fill="white" transform="translate(215 26)"/>
</clipPath>
<clipPath id="clip1_1_761">
<rect width="142" height="114.712" fill="white" transform="translate(42 17)"/>
</clipPath>
</defs>
</svg>
