<svg width="249" height="227" viewBox="0 0 249 227" fill="none" xmlns="http://www.w3.org/2000/svg">
<g filter="url(#filter0_ddddd_1_372)">
<path d="M98.1698 29.2942V14.9255C98.1698 12.2802 100.203 10.1362 102.712 10.1362H146.623C149.132 10.1362 151.165 12.2809 151.165 14.9255V29.2942H158.736V10.9342C158.736 5.64355 154.668 1.35483 149.651 1.35483H99.6834C94.6657 1.35483 90.5983 5.64355 90.5983 10.9342V29.2942H98.1698Z" fill="#5F77E1"/>
<path d="M158.737 30.649H151.165C150.456 30.649 149.88 30.0421 149.88 29.2942V14.9255C149.88 13.0315 148.419 11.491 146.623 11.491H102.712C100.916 11.491 99.4547 13.0315 99.4547 14.9255V29.2942C99.4547 30.0421 98.879 30.649 98.1697 30.649H90.5982C89.8889 30.649 89.3133 30.0421 89.3133 29.2942V10.9342C89.3133 4.90517 93.9654 0 99.6834 0H149.651C155.369 0 160.021 4.90517 160.021 10.9342V29.2942C160.021 30.0421 159.446 30.649 158.737 30.649ZM152.45 27.9394H157.451V10.9342C157.451 6.39955 153.952 2.70967 149.65 2.70967H99.6834C95.3827 2.70967 91.8832 6.39887 91.8832 10.9342V27.9394H96.8842V14.9255C96.8842 11.5378 99.4984 8.78135 102.711 8.78135H146.622C149.835 8.78135 152.449 11.5378 152.449 14.9255V27.9394H152.45Z" fill="#5F77E1"/>
<path d="M188.01 143.18H61.0722C53.5463 143.18 47.4448 136.747 47.4448 128.811V43.6629C47.4448 35.727 53.5463 29.2942 61.0722 29.2942H188.01C195.536 29.2942 201.637 35.7276 201.637 43.6629V128.811C201.637 136.747 195.536 143.18 188.01 143.18Z" fill="#E0EBFC"/>
<path d="M47.4448 43.6629V75.8598H201.637V43.6629C201.637 35.727 195.536 29.2942 188.01 29.2942H61.0722C53.5463 29.2942 47.4448 35.7276 47.4448 43.6629Z" fill="white"/>
<path d="M188.01 144.535H61.0723C52.85 144.535 46.1599 137.481 46.1599 128.811V43.6629C46.1599 34.9933 52.85 27.9394 61.0723 27.9394H188.01C196.233 27.9394 202.922 34.9933 202.922 43.6629V128.811C202.922 137.481 196.233 144.535 188.01 144.535ZM61.0723 30.649C54.2666 30.649 48.7298 36.487 48.7298 43.6629V128.811C48.7298 135.987 54.2666 141.825 61.0723 141.825H188.01C194.816 141.825 200.352 135.987 200.352 128.811V43.6629C200.352 36.487 194.816 30.649 188.01 30.649H61.0723Z" fill="#5F77E1"/>
<path d="M201.637 77.2146H47.4449C46.7356 77.2146 46.1599 76.6077 46.1599 75.8598V43.6629C46.1599 34.9933 52.85 27.9394 61.0723 27.9394H188.01C196.233 27.9394 202.922 34.9933 202.922 43.6629V75.8598C202.922 76.6077 202.347 77.2146 201.637 77.2146ZM48.7298 74.505H200.352V43.6629C200.352 36.487 194.816 30.649 188.01 30.649H61.0723C54.2666 30.649 48.7298 36.487 48.7298 43.6629V74.505Z" fill="#5F77E1"/>
<path d="M89.6525 85.1729H65.9306C64.6765 85.1729 63.6595 84.1006 63.6595 82.7783V70.0063C63.6595 68.6839 64.6765 67.6116 65.9306 67.6116H89.6525C90.9066 67.6116 91.9236 68.6839 91.9236 70.0063V82.7783C91.9236 84.1006 90.9066 85.1729 89.6525 85.1729Z" fill="#5F77E1"/>
<path d="M183.404 85.1729H159.682C158.428 85.1729 157.411 84.1006 157.411 82.7783V70.0063C157.411 68.6839 158.428 67.6116 159.682 67.6116H183.404C184.658 67.6116 185.675 68.6839 185.675 70.0063V82.7783C185.675 84.1006 184.659 85.1729 183.404 85.1729Z" fill="#5F77E1"/>
<path d="M142.225 100.885H132.383V90.5076C132.383 89.3614 131.502 88.432 130.415 88.432H118.604C117.517 88.432 116.636 89.3614 116.636 90.5076V100.885H106.794C105.707 100.885 104.825 101.814 104.825 102.961V115.413C104.825 116.56 105.707 117.489 106.794 117.489H116.636V127.866C116.636 129.013 117.517 129.942 118.604 129.942H130.415C131.502 129.942 132.383 129.013 132.383 127.866V117.489H142.225C143.312 117.489 144.194 116.56 144.194 115.413V102.961C144.194 101.814 143.312 100.885 142.225 100.885Z" fill="#5F77E1"/>
<path d="M89.6525 86.5278H65.93C63.9692 86.5278 62.3739 84.8458 62.3739 82.7783V70.0063C62.3739 67.9388 63.9692 66.2568 65.93 66.2568H89.6519C91.6127 66.2568 93.2079 67.9388 93.2079 70.0063V82.7783C93.2086 84.8458 91.6133 86.5278 89.6525 86.5278ZM65.93 68.9658C65.3858 68.9658 64.9438 69.4318 64.9438 70.0056V82.7776C64.9438 83.3514 65.3858 83.8175 65.93 83.8175H89.6519C90.196 83.8175 90.6381 83.3514 90.6381 82.7776V70.0056C90.6381 69.4318 90.196 68.9658 89.6519 68.9658H65.93Z" fill="#5F77E1"/>
<path d="M183.404 86.5278H159.682C157.721 86.5278 156.126 84.8458 156.126 82.7783V70.0063C156.126 67.9388 157.721 66.2568 159.682 66.2568H183.404C185.365 66.2568 186.96 67.9388 186.96 70.0063V82.7783C186.96 84.8458 185.365 86.5278 183.404 86.5278ZM159.682 68.9658C159.138 68.9658 158.696 69.4318 158.696 70.0056V82.7776C158.696 83.3514 159.138 83.8175 159.682 83.8175H183.404C183.948 83.8175 184.39 83.3514 184.39 82.7776V70.0056C184.39 69.4318 183.948 68.9658 183.404 68.9658H159.682Z" fill="#5F77E1"/>
<path d="M82.7755 93.4218H72.1761C70.922 93.4218 69.905 92.3494 69.905 91.0271V74.2638C69.905 72.9415 70.922 71.8691 72.1761 71.8691H82.7755C84.0296 71.8691 85.0467 72.9415 85.0467 74.2638V91.0271C85.0467 92.3494 84.0296 93.4218 82.7755 93.4218Z" fill="#5F77E1"/>
<path d="M176.843 93.4218H166.244C164.99 93.4218 163.973 92.3494 163.973 91.0271V74.2638C163.973 72.9415 164.99 71.8691 166.244 71.8691H176.843C178.097 71.8691 179.114 72.9415 179.114 74.2638V91.0271C179.114 92.3494 178.097 93.4218 176.843 93.4218Z" fill="#5F77E1"/>
<path d="M82.7756 94.7766H72.1762C70.2154 94.7766 68.6201 93.0946 68.6201 91.0271V74.2631C68.6201 72.1956 70.2154 70.5136 72.1762 70.5136H82.7756C84.7365 70.5136 86.3317 72.1956 86.3317 74.2631V91.0271C86.3317 93.0946 84.7365 94.7766 82.7756 94.7766ZM72.1762 73.2233C71.632 73.2233 71.19 73.6893 71.19 74.2631V91.0271C71.19 91.6009 71.632 92.067 72.1762 92.067H82.7756C83.3198 92.067 83.7618 91.6009 83.7618 91.0271V74.2631C83.7618 73.6893 83.3198 73.2233 82.7756 73.2233H72.1762Z" fill="#5F77E1"/>
<path d="M176.843 94.7766H166.244C164.283 94.7766 162.688 93.0946 162.688 91.0271V74.2631C162.688 72.1956 164.283 70.5136 166.244 70.5136H176.843C178.803 70.5136 180.399 72.1956 180.399 74.2631V91.0271C180.399 93.0946 178.803 94.7766 176.843 94.7766ZM166.244 73.2233C165.7 73.2233 165.258 73.6893 165.258 74.2631V91.0271C165.258 91.6009 165.7 92.067 166.244 92.067H176.843C177.387 92.067 177.829 91.6009 177.829 91.0271V74.2631C177.829 73.6893 177.387 73.2233 176.843 73.2233H166.244Z" fill="#5F77E1"/>
<path d="M86.6554 24.6376H102.554C103.39 24.6376 104.068 25.3523 104.068 26.2343V29.2942H85.1411V26.2343C85.1411 25.3523 85.8189 24.6376 86.6554 24.6376Z" fill="white"/>
<path d="M146.78 24.6376H162.679C163.515 24.6376 164.193 25.3523 164.193 26.2343V29.2942H145.266V26.2343C145.267 25.3523 145.944 24.6376 146.78 24.6376Z" fill="white"/>
<path d="M104.068 30.649H85.1411C84.4318 30.649 83.8561 30.0421 83.8561 29.2942V26.2343C83.8561 24.6072 85.1122 23.2828 86.6554 23.2828H102.554C104.097 23.2828 105.353 24.6072 105.353 26.2343V29.2942C105.353 30.0421 104.778 30.649 104.068 30.649ZM86.426 27.9394H102.783V26.2343C102.783 26.1009 102.68 25.9925 102.554 25.9925H86.6554C86.5288 25.9925 86.426 26.1009 86.426 26.2343V27.9394Z" fill="#5F77E1"/>
<path d="M164.194 30.6491H145.267C144.557 30.6491 143.982 30.0421 143.982 29.2942V26.2343C143.982 24.6072 145.237 23.2828 146.78 23.2828H162.679C164.222 23.2828 165.478 24.6072 165.478 26.2343V29.2942C165.479 30.0421 164.903 30.6491 164.194 30.6491ZM146.552 27.9394H162.909V26.2343C162.909 26.1009 162.806 25.9925 162.679 25.9925H146.781C146.655 25.9925 146.552 26.1009 146.552 26.2343L146.552 27.9394Z" fill="#5F77E1"/>
</g>
<path d="M5.0164 157.506H17.8082L29.6594 192.37L41.5107 157.506H54.3025V162.523H49.9132V199.519H54.3025V204.535H39.7549V199.519H44.1443V165.846L32.4185 199.519H26.9004L15.1746 165.846V199.519H19.5639V204.535H5.0164V199.519H9.40574V162.523H5.0164V157.506ZM64.3534 163.777H94.201V176.067H89.1846V168.793H74.5116V181.648H89.1846V186.664H74.5116V199.519H89.1846V192.245H94.201V204.535H64.3534V199.519H68.7428V168.793H64.3534V163.777ZM104.218 163.777H130.93L137.451 170.674V197.637L130.93 204.535H104.218V199.519H108.607V168.793H104.218V163.777ZM114.376 199.142H128.422L131.682 195.819V172.493L128.484 169.169H114.376V199.142ZM183.19 204.535H169.897V199.519H173.534L163.375 183.529H157.669V199.519H162.059V204.535H147.511V199.519H151.9V162.523H147.511V157.506H162.059V162.523H157.669V178.512H162.936L172.969 162.523H169.27V157.506H182.563V162.523H179.428L168.015 180.644L179.992 199.519H183.19V204.535ZM188.83 199.519H193.847V162.523H188.83V157.506H204.632V162.523H199.615V199.519H204.632V204.535H188.83V199.519ZM236.335 204.535H218.026V199.519H224.296V162.523H215.016V169.796H210.25V157.506H244.111V169.796H239.345V162.523H230.065V199.519H236.335V204.535Z" fill="white"/>
<defs>
<filter id="filter0_ddddd_1_372" x="42.8628" y="0" width="163.357" height="151.129" filterUnits="userSpaceOnUse" color-interpolation-filters="sRGB">
<feFlood flood-opacity="0" result="BackgroundImageFix"/>
<feColorMatrix in="SourceAlpha" type="matrix" values="0 0 0 0 0 0 0 0 0 0 0 0 0 0 0 0 0 0 127 0" result="hardAlpha"/>
<feOffset dy="1.2541"/>
<feGaussianBlur stdDeviation="0.62705"/>
<feComposite in2="hardAlpha" operator="out"/>
<feColorMatrix type="matrix" values="0 0 0 0 0 0 0 0 0 0 0 0 0 0 0 0 0 0 0.25 0"/>
<feBlend mode="normal" in2="BackgroundImageFix" result="effect1_dropShadow_1_372"/>
<feColorMatrix in="SourceAlpha" type="matrix" values="0 0 0 0 0 0 0 0 0 0 0 0 0 0 0 0 0 0 127 0" result="hardAlpha"/>
<feOffset dy="1.2541"/>
<feGaussianBlur stdDeviation="0.62705"/>
<feComposite in2="hardAlpha" operator="out"/>
<feColorMatrix type="matrix" values="0 0 0 0 0 0 0 0 0 0 0 0 0 0 0 0 0 0 0.25 0"/>
<feBlend mode="normal" in2="effect1_dropShadow_1_372" result="effect2_dropShadow_1_372"/>
<feColorMatrix in="SourceAlpha" type="matrix" values="0 0 0 0 0 0 0 0 0 0 0 0 0 0 0 0 0 0 127 0" result="hardAlpha"/>
<feOffset dy="1.2541"/>
<feGaussianBlur stdDeviation="0.62705"/>
<feComposite in2="hardAlpha" operator="out"/>
<feColorMatrix type="matrix" values="0 0 0 0 0 0 0 0 0 0 0 0 0 0 0 0 0 0 0.25 0"/>
<feBlend mode="normal" in2="effect2_dropShadow_1_372" result="effect3_dropShadow_1_372"/>
<feColorMatrix in="SourceAlpha" type="matrix" values="0 0 0 0 0 0 0 0 0 0 0 0 0 0 0 0 0 0 127 0" result="hardAlpha"/>
<feOffset dy="3.29714"/>
<feGaussianBlur stdDeviation="1.64857"/>
<feComposite in2="hardAlpha" operator="out"/>
<feColorMatrix type="matrix" values="0 0 0 0 0 0 0 0 0 0 0 0 0 0 0 0 0 0 0.25 0"/>
<feBlend mode="normal" in2="effect3_dropShadow_1_372" result="effect4_dropShadow_1_372"/>
<feColorMatrix in="SourceAlpha" type="matrix" values="0 0 0 0 0 0 0 0 0 0 0 0 0 0 0 0 0 0 127 0" result="hardAlpha"/>
<feOffset dy="3.29714"/>
<feGaussianBlur stdDeviation="1.64857"/>
<feComposite in2="hardAlpha" operator="out"/>
<feColorMatrix type="matrix" values="0 0 0 0 0 0 0 0 0 0 0 0 0 0 0 0 0 0 0.25 0"/>
<feBlend mode="normal" in2="effect4_dropShadow_1_372" result="effect5_dropShadow_1_372"/>
<feBlend mode="normal" in="SourceGraphic" in2="effect5_dropShadow_1_372" result="shape"/>
</filter>
</defs>
</svg>
