<svg width="32" height="33" viewBox="0 0 32 33" fill="none" xmlns="http://www.w3.org/2000/svg">
<path d="M0 1.06672C0 0.78381 0.112386 0.512485 0.312436 0.312436C0.512485 0.112386 0.78381 0 1.06672 0H4.26689C4.50483 6.57345e-05 4.73593 0.0796856 4.92341 0.226198C5.1109 0.37271 5.24402 0.577702 5.30161 0.808575L6.16565 4.26689H30.9349C31.0927 4.26698 31.2485 4.30207 31.391 4.36962C31.5336 4.43716 31.6594 4.53549 31.7594 4.65752C31.8594 4.77954 31.9311 4.92223 31.9693 5.07529C32.0075 5.22836 32.0112 5.38799 31.9803 5.54269L29.8469 16.2099C29.8002 16.4425 29.6773 16.6529 29.4976 16.8079C29.318 16.9628 29.0918 17.0534 28.8548 17.0654L8.80686 18.0724L9.41915 21.3344H27.7348C28.0177 21.3344 28.289 21.4468 28.4891 21.6469C28.6891 21.8469 28.8015 22.1182 28.8015 22.4012C28.8015 22.6841 28.6891 22.9554 28.4891 23.1554C28.289 23.3555 28.0177 23.4679 27.7348 23.4679H8.53378C8.28508 23.4676 8.04429 23.3805 7.85302 23.2216C7.66174 23.0627 7.53201 22.8419 7.48625 22.5974L4.28822 5.56189L3.43484 2.13344H1.06672C0.78381 2.13344 0.512485 2.02106 0.312436 1.82101C0.112386 1.62096 0 1.34963 0 1.06672ZM6.61794 6.40033L8.41004 15.956L27.9182 14.9768L29.6335 6.40033H6.61794ZM10.6672 23.4679C9.53557 23.4679 8.45027 23.9174 7.65007 24.7176C6.84988 25.5178 6.40033 26.6031 6.40033 27.7348C6.40033 28.8664 6.84988 29.9517 7.65007 30.7519C8.45027 31.5521 9.53557 32.0017 10.6672 32.0017C11.7989 32.0017 12.8842 31.5521 13.6844 30.7519C14.4846 29.9517 14.9341 28.8664 14.9341 27.7348C14.9341 26.6031 14.4846 25.5178 13.6844 24.7176C12.8842 23.9174 11.7989 23.4679 10.6672 23.4679ZM25.6013 23.4679C24.4697 23.4679 23.3844 23.9174 22.5842 24.7176C21.784 25.5178 21.3344 26.6031 21.3344 27.7348C21.3344 28.8664 21.784 29.9517 22.5842 30.7519C23.3844 31.5521 24.4697 32.0017 25.6013 32.0017C26.733 32.0017 27.8183 31.5521 28.6185 30.7519C29.4187 29.9517 29.8682 28.8664 29.8682 27.7348C29.8682 26.6031 29.4187 25.5178 28.6185 24.7176C27.8183 23.9174 26.733 23.4679 25.6013 23.4679ZM10.6672 25.6013C11.233 25.6013 11.7757 25.8261 12.1758 26.2262C12.5759 26.6263 12.8007 27.1689 12.8007 27.7348C12.8007 28.3006 12.5759 28.8432 12.1758 29.2433C11.7757 29.6434 11.233 29.8682 10.6672 29.8682C10.1014 29.8682 9.55875 29.6434 9.15865 29.2433C8.75855 28.8432 8.53378 28.3006 8.53378 27.7348C8.53378 27.1689 8.75855 26.6263 9.15865 26.2262C9.55875 25.8261 10.1014 25.6013 10.6672 25.6013ZM25.6013 25.6013C26.1672 25.6013 26.7098 25.8261 27.1099 26.2262C27.51 26.6263 27.7348 27.1689 27.7348 27.7348C27.7348 28.3006 27.51 28.8432 27.1099 29.2433C26.7098 29.6434 26.1672 29.8682 25.6013 29.8682C25.0355 29.8682 24.4929 29.6434 24.0928 29.2433C23.6927 28.8432 23.4679 28.3006 23.4679 27.7348C23.4679 27.1689 23.6927 26.6263 24.0928 26.2262C24.4929 25.8261 25.0355 25.6013 25.6013 25.6013Z" fill="white"/>
</svg>
