<svg width="68" height="68" viewBox="0 0 68 68" fill="none" xmlns="http://www.w3.org/2000/svg">
<g filter="url(#filter0_d_118_153)">
<path d="M34 0C41.9565 0 49.5871 3.16071 55.2132 8.7868C60.8393 14.4129 64 22.0435 64 30C64 37.9565 60.8393 45.5871 55.2132 51.2132C49.5871 56.8393 41.9565 60 34 60C26.0435 60 18.4129 56.8393 12.7868 51.2132C7.16071 45.5871 4 37.9565 4 30C4 22.0435 7.16071 14.4129 12.7868 8.7868C18.4129 3.16071 26.0435 0 34 0ZM20.875 28.125C20.3777 28.125 19.9008 28.3225 19.5492 28.6742C19.1975 29.0258 19 29.5027 19 30C19 30.4973 19.1975 30.9742 19.5492 31.3258C19.9008 31.6775 20.3777 31.875 20.875 31.875H42.5988L34.5475 39.9225C34.3732 40.0968 34.2349 40.3038 34.1405 40.5316C34.0462 40.7593 33.9976 41.0035 33.9976 41.25C33.9976 41.4965 34.0462 41.7407 34.1405 41.9684C34.2349 42.1962 34.3732 42.4032 34.5475 42.5775C34.7218 42.7518 34.9288 42.8901 35.1566 42.9845C35.3843 43.0788 35.6285 43.1274 35.875 43.1274C36.1215 43.1274 36.3657 43.0788 36.5934 42.9845C36.8212 42.8901 37.0282 42.7518 37.2025 42.5775L48.4525 31.3275C48.6271 31.1533 48.7656 30.9464 48.8602 30.7186C48.9547 30.4908 49.0033 30.2466 49.0033 30C49.0033 29.7534 48.9547 29.5092 48.8602 29.2814C48.7656 29.0536 48.6271 28.8467 48.4525 28.6725L37.2025 17.4225C37.0282 17.2482 36.8212 17.1099 36.5934 17.0155C36.3657 16.9212 36.1215 16.8726 35.875 16.8726C35.6285 16.8726 35.3843 16.9212 35.1566 17.0155C34.9288 17.1099 34.7218 17.2482 34.5475 17.4225C34.3732 17.5968 34.2349 17.8038 34.1405 18.0316C34.0462 18.2593 33.9976 18.5035 33.9976 18.75C33.9976 18.9965 34.0462 19.2407 34.1405 19.4684C34.2349 19.6962 34.3732 19.9032 34.5475 20.0775L42.5988 28.125H20.875Z" fill="white"/>
</g>
<defs>
<filter id="filter0_d_118_153" x="0" y="0" width="68" height="68" filterUnits="userSpaceOnUse" color-interpolation-filters="sRGB">
<feFlood flood-opacity="0" result="BackgroundImageFix"/>
<feColorMatrix in="SourceAlpha" type="matrix" values="0 0 0 0 0 0 0 0 0 0 0 0 0 0 0 0 0 0 127 0" result="hardAlpha"/>
<feOffset dy="4"/>
<feGaussianBlur stdDeviation="2"/>
<feComposite in2="hardAlpha" operator="out"/>
<feColorMatrix type="matrix" values="0 0 0 0 0 0 0 0 0 0 0 0 0 0 0 0 0 0 0.25 0"/>
<feBlend mode="normal" in2="BackgroundImageFix" result="effect1_dropShadow_118_153"/>
<feBlend mode="normal" in="SourceGraphic" in2="effect1_dropShadow_118_153" result="shape"/>
</filter>
</defs>
</svg>
