<svg width="18" height="20" viewBox="0 0 18 20" fill="none" xmlns="http://www.w3.org/2000/svg">
<path d="M9 20C9.68198 20 10.336 19.7366 10.8183 19.2678C11.3005 18.799 11.5714 18.1631 11.5714 17.5001H6.42857C6.42857 18.1631 6.69949 18.799 7.18173 19.2678C7.66396 19.7366 8.31802 20 9 20ZM9 2.39846L7.97529 2.5997C6.81295 2.82994 5.76814 3.44353 5.01769 4.33663C4.26725 5.22973 3.85727 6.34748 3.85714 7.50068C3.85714 8.28564 3.68486 10.2468 3.267 12.1779C3.06129 13.1366 2.78357 14.1353 2.41457 15.0003H15.5854C15.2164 14.1353 14.94 13.1379 14.733 12.1779C14.3151 10.2468 14.1429 8.28564 14.1429 7.50068C14.1424 6.34769 13.7323 5.23024 12.9819 4.3374C12.2315 3.44456 11.1868 2.83115 10.0247 2.60095L9 2.39846ZM16.9971 15.0003C17.2839 15.559 17.6156 16.0015 18 16.2502H0C0.384429 16.0015 0.716143 15.559 1.00286 15.0003C2.16 12.7504 2.57143 8.60062 2.57143 7.50068C2.57143 4.47585 4.78286 1.95099 7.72071 1.37477C7.70277 1.20097 7.72249 1.02545 7.77861 0.859513C7.83474 0.693581 7.92601 0.540926 8.04654 0.411394C8.16708 0.281861 8.3142 0.178327 8.47843 0.107468C8.64265 0.0366098 8.82033 0 9 0C9.17967 0 9.35735 0.0366098 9.52157 0.107468C9.6858 0.178327 9.83292 0.281861 9.95346 0.411394C10.074 0.540926 10.1653 0.693581 10.2214 0.859513C10.2775 1.02545 10.2972 1.20097 10.2793 1.37477C11.7325 1.66213 13.0389 2.42891 13.9773 3.54528C14.9157 4.66164 15.4284 6.05898 15.4286 7.50068C15.4286 8.60062 15.84 12.7504 16.9971 15.0003Z" fill="black" fill-opacity="0.72"/>
</svg>
