<svg width="33" height="42" viewBox="0 0 33 42" fill="none" xmlns="http://www.w3.org/2000/svg">
<path d="M29.1088 3.39121L29.8159 2.6841C30.8942 3.76241 31.5 5.22492 31.5 6.74989V38.8109V38.8117H30.5L29.1088 3.39121ZM29.1088 3.39121L29.8159 2.6841C28.7375 1.60579 27.275 1 25.75 1H6.75C5.22501 1 3.76248 1.60578 2.68414 2.6841C1.60581 3.76241 1 5.22492 1 6.74989V38.8114M29.1088 3.39121L1 38.8114M1 38.8114C1 38.8115 1 38.8116 1 38.8117C0.99985 39.1913 1.09849 39.5644 1.28624 39.8943C1.4741 40.2245 1.7447 40.5 2.0714 40.6939C2.39812 40.8877 2.76966 40.9931 3.14944 40.9997C3.52887 41.0063 3.90348 40.9141 4.23646 40.7321L1 38.8114ZM16.25 34.1773L28.2625 40.7315H4.23749L16.25 34.1773ZM14.3551 21.2148L15.0623 21.9226L15.7697 21.2149L22.0539 14.9286C22.0893 14.8931 22.1374 14.8732 22.1875 14.8732C22.2376 14.8732 22.2857 14.8931 22.3211 14.9286C22.3566 14.964 22.3765 15.0121 22.3765 15.0622C22.3765 15.1123 22.3566 15.1604 22.3211 15.1958L15.1962 22.3207L15.1953 22.3215C15.1778 22.339 15.1572 22.3529 15.1344 22.3623C15.1116 22.3718 15.0872 22.3766 15.0625 22.3766C15.0378 22.3766 15.0134 22.3718 14.9906 22.3623C14.9678 22.3529 14.9472 22.339 14.9297 22.3215L14.9288 22.3207L11.3664 18.7582C11.3488 18.7407 11.3349 18.7199 11.3254 18.6969C11.3159 18.674 11.311 18.6494 11.311 18.6246C11.311 18.5998 11.3159 18.5752 11.3254 18.5523C11.3349 18.5294 11.3488 18.5086 11.3663 18.491L10.6593 17.7839L11.3664 18.491C11.3839 18.4735 11.4047 18.4595 11.4277 18.45L11.045 17.5262L11.4277 18.45C11.4506 18.4405 11.4752 18.4356 11.5 18.4356C11.5248 18.4356 11.5494 18.4405 11.5723 18.45C11.5951 18.4595 11.6159 18.4733 11.6333 18.4907L11.6336 18.491L14.3551 21.2148Z" fill="white" stroke="black" stroke-width="2"/>
</svg>
