<svg width="44" height="33" viewBox="0 0 44 33" fill="none" xmlns="http://www.w3.org/2000/svg">
<path d="M28.9066 17.4508C28.9066 19.2155 28.2056 20.9078 26.9578 22.1556C25.71 23.4033 24.0177 24.1043 22.2531 24.1043C20.4885 24.1043 18.7961 23.4033 17.5484 22.1556C16.3006 20.9078 15.5996 19.2155 15.5996 17.4508C15.5996 15.6862 16.3006 13.9939 17.5484 12.7461C18.7961 11.4984 20.4885 10.7974 22.2531 10.7974C24.0177 10.7974 25.71 11.4984 26.9578 12.7461C28.2056 13.9939 28.9066 15.6862 28.9066 17.4508Z" fill="white"/>
<path d="M6.2847 5.47464C4.87301 5.47464 3.51914 6.03543 2.52092 7.03365C1.52271 8.03186 0.961914 9.38574 0.961914 10.7974L0.961914 26.7658C0.961914 28.1775 1.52271 29.5313 2.52092 30.5296C3.51914 31.5278 4.87301 32.0886 6.2847 32.0886H38.2214C39.6331 32.0886 40.987 31.5278 41.9852 30.5296C42.9834 29.5313 43.5442 28.1775 43.5442 26.7658V10.7974C43.5442 9.38574 42.9834 8.03186 41.9852 7.03365C40.987 6.03543 39.6331 5.47464 38.2214 5.47464H35.1023C33.6907 5.47434 32.337 4.91335 31.3391 3.91506L29.1354 1.71143C28.1374 0.713146 26.7838 0.152157 25.3722 0.151855H19.1339C17.7223 0.152157 16.3687 0.713146 15.3707 1.71143L13.1671 3.91506C12.1691 4.91335 10.8154 5.47434 9.40385 5.47464H6.2847ZM7.6154 10.7974C7.26247 10.7974 6.92401 10.6572 6.67445 10.4077C6.4249 10.1581 6.2847 9.81965 6.2847 9.46673C6.2847 9.11381 6.4249 8.77534 6.67445 8.52579C6.92401 8.27623 7.26247 8.13603 7.6154 8.13603C7.96832 8.13603 8.30679 8.27623 8.55634 8.52579C8.80589 8.77534 8.94609 9.11381 8.94609 9.46673C8.94609 9.81965 8.80589 10.1581 8.55634 10.4077C8.30679 10.6572 7.96832 10.7974 7.6154 10.7974ZM31.5679 17.4509C31.5679 19.9214 30.5865 22.2906 28.8397 24.0375C27.0928 25.7844 24.7235 26.7658 22.2531 26.7658C19.7826 26.7658 17.4133 25.7844 15.6664 24.0375C13.9196 22.2906 12.9382 19.9214 12.9382 17.4509C12.9382 14.9804 13.9196 12.6112 15.6664 10.8643C17.4133 9.11742 19.7826 8.13603 22.2531 8.13603C24.7235 8.13603 27.0928 9.11742 28.8397 10.8643C30.5865 12.6112 31.5679 14.9804 31.5679 17.4509Z" fill="white"/>
</svg>
