<svg width="30" height="25" viewBox="0 0 30 25" fill="none" xmlns="http://www.w3.org/2000/svg">
<path d="M26.2873 15.625H11.0194L11.3603 17.1875H25.3404C26.1425 17.1875 26.737 17.8858 26.5593 18.6191L26.2719 19.8044C27.2454 20.2475 27.9167 21.183 27.9167 22.2656C27.9167 23.7892 26.5876 25.0217 24.9571 24.9997C23.4038 24.9788 22.1264 23.797 22.0844 22.3412C22.0615 21.5459 22.4014 20.8251 22.9596 20.3124H12.0404C12.5809 20.8088 12.9167 21.5003 12.9167 22.2656C12.9167 23.819 11.535 25.0699 9.86094 24.997C8.37448 24.9323 7.16557 23.8063 7.08745 22.4131C7.02714 21.3373 7.63099 20.389 8.54844 19.8943L4.88974 3.125H1.25C0.559636 3.125 0 2.60034 0 1.95312V1.17187C0 0.524658 0.559636 0 1.25 0H6.59005C7.18386 0 7.69568 0.39165 7.81469 0.937012L8.29208 3.125H28.7495C29.5516 3.125 30.1462 3.82329 29.9684 4.55659L27.5063 14.7128C27.3769 15.2464 26.871 15.625 26.2873 15.625ZM21.25 8.20312H18.75V6.25C18.75 5.8185 18.3769 5.46875 17.9167 5.46875H17.0833C16.6231 5.46875 16.25 5.8185 16.25 6.25V8.20312H13.75C13.2897 8.20312 12.9167 8.55288 12.9167 8.98437V9.76562C12.9167 10.1971 13.2897 10.5469 13.75 10.5469H16.25V12.5C16.25 12.9315 16.6231 13.2812 17.0833 13.2812H17.9167C18.3769 13.2812 18.75 12.9315 18.75 12.5V10.5469H21.25C21.7103 10.5469 22.0833 10.1971 22.0833 9.76562V8.98437C22.0833 8.55288 21.7103 8.20312 21.25 8.20312Z" fill="black" fill-opacity="0.72"/>
</svg>
