<svg width="35" height="35" viewBox="0 0 35 35" fill="none" xmlns="http://www.w3.org/2000/svg">
<path d="M35 17.5C35 22.1413 33.1563 26.5925 29.8744 29.8744C26.5925 33.1563 22.1413 35 17.5 35C12.8587 35 8.40752 33.1563 5.12563 29.8744C1.84374 26.5925 -2.56706e-07 22.1413 -2.02895e-07 17.5C-1.49084e-07 12.8587 1.84374 8.40752 5.12563 5.12563C8.40752 1.84375 12.8587 1.49084e-07 17.5 2.02895e-07C22.1413 2.56706e-07 26.5925 1.84375 29.8744 5.12563C33.1563 8.40752 35 12.8587 35 17.5ZM26.3156 10.8719C26.1594 10.7162 25.9733 10.5936 25.7686 10.5114C25.5639 10.4293 25.3447 10.3892 25.1241 10.3937C24.9036 10.3982 24.6862 10.4471 24.485 10.5376C24.2838 10.628 24.1029 10.7581 23.9531 10.92L16.3559 20.5997L11.7775 16.0191C11.4665 15.7293 11.0551 15.5715 10.6301 15.579C10.2051 15.5865 9.79954 15.7587 9.49895 16.0593C9.19836 16.3599 9.02618 16.7654 9.01868 17.1904C9.01118 17.6155 9.16895 18.0268 9.45875 18.3378L15.2469 24.1281C15.4028 24.2838 15.5885 24.4064 15.7928 24.4887C15.9972 24.5711 16.216 24.6114 16.4363 24.6073C16.6566 24.6032 16.8738 24.5548 17.075 24.465C17.2761 24.3751 17.4571 24.2457 17.6072 24.0844L26.3397 13.1688C26.6374 12.8592 26.8019 12.4453 26.7978 12.0158C26.7937 11.5864 26.6214 11.1757 26.3178 10.8719L26.3156 10.8719Z" fill="#38C6AC"/>
</svg>
