<svg width="23" height="22" viewBox="0 0 23 22" fill="none" xmlns="http://www.w3.org/2000/svg">
<path d="M22.7708 2.18537C22.9176 2.32756 22.9999 2.52015 22.9999 2.72094C22.9999 2.92172 22.9176 3.11431 22.7708 3.25651L21.1331 4.84047L17.9928 1.80607L19.6305 0.222108C19.7777 0.0798923 19.9773 0 20.1855 0C20.3937 0 20.5934 0.0798923 20.7406 0.222108L22.7708 2.18385V2.18537ZM20.023 5.91161L16.8826 2.87721L6.1849 13.2154C6.09848 13.2989 6.03342 13.4007 5.99491 13.5128L4.7309 17.1753C4.70798 17.2421 4.70473 17.3137 4.7215 17.3821C4.73828 17.4506 4.77443 17.5132 4.82591 17.5629C4.87739 17.6127 4.94218 17.6476 5.01302 17.6638C5.08387 17.68 5.15798 17.6769 5.22708 17.6547L9.01753 16.4334C9.13335 16.3966 9.23872 16.3343 9.32529 16.2513L20.023 5.91161Z" fill="white"/>
<path fill-rule="evenodd" clip-rule="evenodd" d="M0 19.7242C0 20.3278 0.248146 20.9067 0.689848 21.3335C1.13155 21.7603 1.73063 22 2.35529 22H19.6274C20.2521 22 20.8511 21.7603 21.2929 21.3335C21.7346 20.9067 21.9827 20.3278 21.9827 19.7242V10.621C21.9827 10.4198 21.9 10.2269 21.7527 10.0846C21.6055 9.94234 21.4058 9.86242 21.1976 9.86242C20.9894 9.86242 20.7897 9.94234 20.6425 10.0846C20.4952 10.2269 20.4125 10.4198 20.4125 10.621V19.7242C20.4125 19.9254 20.3298 20.1184 20.1826 20.2606C20.0353 20.4029 19.8356 20.4828 19.6274 20.4828H2.35529C2.14707 20.4828 1.94738 20.4029 1.80014 20.2606C1.65291 20.1184 1.57019 19.9254 1.57019 19.7242V3.03502C1.57019 2.83382 1.65291 2.64087 1.80014 2.49861C1.94738 2.35634 2.14707 2.27642 2.35529 2.27642H12.5615C12.7698 2.27642 12.9695 2.19649 13.1167 2.05423C13.2639 1.91196 13.3466 1.71901 13.3466 1.51782C13.3466 1.31662 13.2639 1.12367 13.1167 0.981405C12.9695 0.83914 12.7698 0.759216 12.5615 0.759216H2.35529C1.73063 0.759216 1.13155 0.998988 0.689848 1.42578C0.248146 1.85258 0 2.43144 0 3.03502V19.7242Z" fill="white"/>
</svg>
