<svg width="21" height="19" viewBox="0 0 21 19" fill="none" xmlns="http://www.w3.org/2000/svg">
<path d="M14.9801 12.1578C16.1653 10.6589 16.6962 8.80059 16.4664 6.95458C16.2367 5.10856 15.2633 3.411 13.741 2.20152C12.2188 0.992035 10.2598 0.359827 8.25617 0.431376C6.25251 0.502924 4.35189 1.27295 2.93454 2.58741C1.5172 3.90186 0.68766 5.6638 0.611889 7.52073C0.536118 9.37765 1.2197 11.1926 2.52588 12.6025C3.83206 14.0124 5.66451 14.9133 7.65661 15.1248C9.64872 15.3364 11.6536 14.8431 13.2701 13.7436H13.2688C13.3056 13.789 13.3447 13.8321 13.3888 13.8741L18.1014 18.2414C18.3309 18.4543 18.6423 18.5739 18.967 18.5741C19.2917 18.5742 19.6031 18.4547 19.8328 18.242C20.0625 18.0293 20.1916 17.7408 20.1917 17.4398C20.1918 17.1389 20.0629 16.8503 19.8334 16.6374L15.1208 12.2701C15.0771 12.229 15.03 12.1923 14.9801 12.1578ZM15.2959 7.79725C15.2959 8.61657 15.1217 9.42788 14.7834 10.1848C14.4451 10.9418 13.9492 11.6296 13.324 12.2089C12.6989 12.7883 11.9567 13.2479 11.1399 13.5614C10.3231 13.8749 9.4477 14.0363 8.56361 14.0363C7.67951 14.0363 6.80408 13.8749 5.98728 13.5614C5.17049 13.2479 4.42833 12.7883 3.80318 12.2089C3.17803 11.6296 2.68214 10.9418 2.34381 10.1848C2.00548 9.42788 1.83135 8.61657 1.83135 7.79725C1.83135 6.14254 2.54064 4.55561 3.80318 3.38556C5.06572 2.21551 6.7781 1.55818 8.56361 1.55818C10.3491 1.55818 12.0615 2.21551 13.324 3.38556C14.5866 4.55561 15.2959 6.14254 15.2959 7.79725Z" fill="black" fill-opacity="0.72"/>
</svg>
