<svg width="41" height="36" viewBox="0 0 41 36" fill="none" xmlns="http://www.w3.org/2000/svg">
<path d="M12.1303 20.1867C13.1266 20.1867 14.0821 19.7909 14.7866 19.0864C15.4911 18.3819 15.8868 17.4264 15.8868 16.4301C15.8868 15.4338 15.4911 14.4783 14.7866 13.7738C14.0821 13.0694 13.1266 12.6736 12.1303 12.6736C11.134 12.6736 10.1785 13.0694 9.47404 13.7738C8.76956 14.4783 8.37378 15.4338 8.37378 16.4301C8.37378 17.4264 8.76956 18.3819 9.47404 19.0864C10.1785 19.7909 11.134 20.1867 12.1303 20.1867Z" fill="white"/>
<path d="M35.9218 30.2041C35.9218 31.5325 35.3941 32.8065 34.4548 33.7458C33.5155 34.6851 32.2415 35.2128 30.9131 35.2128H5.86955C4.54116 35.2128 3.26717 34.6851 2.32786 33.7458C1.38854 32.8065 0.86084 31.5325 0.86084 30.2041V10.1693C0.860839 8.84175 1.38785 7.56853 2.32609 6.62935C3.26432 5.69018 4.53702 5.16189 5.86454 5.16057C5.86454 3.83217 6.39224 2.55819 7.33156 1.61887C8.27088 0.679558 9.54486 0.151855 10.8733 0.151855H35.9168C37.2452 0.151855 38.5192 0.679558 39.4585 1.61887C40.3978 2.55819 40.9255 3.83217 40.9255 5.16057V25.1954C40.9255 26.5229 40.3985 27.7962 39.4603 28.7353C38.522 29.6745 37.2493 30.2028 35.9218 30.2041ZM35.9168 2.65621H10.8733C10.2091 2.65621 9.57207 2.92006 9.10241 3.38972C8.63275 3.85938 8.3689 4.49637 8.3689 5.16057H30.9131C32.2415 5.16057 33.5155 5.68827 34.4548 6.62758C35.3941 7.5669 35.9218 8.84089 35.9218 10.1693V27.6998C36.5852 27.6984 37.2209 27.434 37.6894 26.9645C38.158 26.495 38.4212 25.8587 38.4212 25.1954V5.16057C38.4212 4.49637 38.1573 3.85938 37.6877 3.38972C37.218 2.92006 36.581 2.65621 35.9168 2.65621ZM5.86955 7.66492C5.20536 7.66492 4.56836 7.92877 4.0987 8.39843C3.62905 8.86809 3.3652 9.50508 3.3652 10.1693V30.2041L9.99172 24.3089C10.1964 24.1049 10.4653 23.978 10.7529 23.9497C11.0405 23.9214 11.3289 23.9935 11.5695 24.1536L18.2311 28.5938L27.5222 19.3027C27.7079 19.1168 27.9474 18.994 28.2067 18.9518C28.4661 18.9095 28.7321 18.9499 28.9672 19.0673L33.4175 23.9432V10.1693C33.4175 9.50508 33.1536 8.86809 32.684 8.39843C32.2143 7.92877 31.5773 7.66492 30.9131 7.66492H5.86955Z" fill="white"/>
</svg>
