<svg width="11" height="20" viewBox="0 0 11 20" fill="none" xmlns="http://www.w3.org/2000/svg">
<path fill-rule="evenodd" clip-rule="evenodd" d="M0.217598 0.217598C0.286399 0.148623 0.368132 0.0938981 0.458116 0.0565591C0.548099 0.01922 0.644565 0 0.741988 0C0.839411 0 0.935877 0.01922 1.02586 0.0565591C1.11584 0.0938981 1.19758 0.148623 1.26638 0.217598L10.1544 9.10557C10.2233 9.17437 10.278 9.2561 10.3154 9.34609C10.3527 9.43607 10.3719 9.53254 10.3719 9.62996C10.3719 9.72738 10.3527 9.82385 10.3154 9.91383C10.278 10.0038 10.2233 10.0855 10.1544 10.1543L1.26638 19.0423C1.1273 19.1814 0.938673 19.2595 0.741988 19.2595C0.545303 19.2595 0.356674 19.1814 0.217598 19.0423C0.0785206 18.9032 0.000387788 18.7146 0.000387788 18.5179C0.000387788 18.3212 0.0785206 18.1326 0.217598 17.9935L8.58266 9.62996L0.217598 1.26638C0.148622 1.19758 0.0938974 1.11584 0.0565584 1.02586C0.0192193 0.935877 0 0.839411 0 0.741988C0 0.644565 0.0192193 0.5481 0.0565584 0.458116C0.0938974 0.368133 0.148622 0.286399 0.217598 0.217598Z" fill="black"/>
</svg>
