<svg width="30" height="25" viewBox="0 0 30 25" fill="none" xmlns="http://www.w3.org/2000/svg">
<path d="M14.6023 6.48566L5.00039 14.9604V24.107C5.00039 24.3439 5.08819 24.571 5.24445 24.7385C5.40072 24.9059 5.61267 25 5.83366 25L11.6697 24.9838C11.8899 24.9826 12.1008 24.888 12.2562 24.7207C12.4116 24.5534 12.4988 24.3269 12.4988 24.0909V18.7493C12.4988 18.5125 12.5866 18.2853 12.7428 18.1179C12.8991 17.9504 13.111 17.8563 13.332 17.8563H16.6651C16.8861 17.8563 17.0981 17.9504 17.2543 18.1179C17.4106 18.2853 17.4984 18.5125 17.4984 18.7493V24.087C17.498 24.2045 17.5193 24.3209 17.5611 24.4295C17.6028 24.5382 17.6641 24.637 17.7415 24.7202C17.8189 24.8034 17.9109 24.8694 18.0122 24.9145C18.1134 24.9595 18.222 24.9827 18.3317 24.9827L24.1656 25C24.3866 25 24.5985 24.9059 24.7548 24.7385C24.9111 24.571 24.9989 24.3439 24.9989 24.107V14.9542L15.3991 6.48566C15.2862 6.38817 15.1456 6.33501 15.0007 6.33501C14.8557 6.33501 14.7151 6.38817 14.6023 6.48566ZM29.7693 12.2458L25.4155 8.39993V0.669718C25.4155 0.492097 25.3496 0.321752 25.2324 0.196156C25.1152 0.0705595 24.9563 0 24.7905 0H21.8741C21.7083 0 21.5494 0.0705595 21.4322 0.196156C21.315 0.321752 21.2491 0.492097 21.2491 0.669718V4.72207L16.5865 0.611117C16.139 0.21653 15.5775 0.000788785 14.9981 0.000788785C14.4186 0.000788785 13.8571 0.21653 13.4096 0.611117L0.226805 12.2458C0.163522 12.3018 0.111165 12.3707 0.0727266 12.4484C0.0342879 12.5262 0.0105204 12.6113 0.00278216 12.6989C-0.0049561 12.7865 0.00348653 12.8748 0.0276277 12.9589C0.0517688 13.043 0.0911353 13.1212 0.143478 13.189L1.4715 14.9191C1.5237 14.9871 1.58791 15.0434 1.66044 15.0848C1.73298 15.1262 1.81242 15.1519 1.89422 15.1603C1.97602 15.1688 2.05858 15.1598 2.13716 15.1341C2.21574 15.1083 2.2888 15.0661 2.35216 15.01L14.6023 4.19746C14.7151 4.09997 14.8557 4.04681 15.0007 4.04681C15.1456 4.04681 15.2862 4.09997 15.3991 4.19746L27.6497 15.01C27.7129 15.0661 27.7859 15.1083 27.8644 15.1342C27.9428 15.1601 28.0253 15.1691 28.107 15.1608C28.1888 15.1525 28.2682 15.1271 28.3407 15.0859C28.4133 15.0447 28.4775 14.9886 28.5298 14.9208L29.8579 13.1906C29.9101 13.1225 29.9493 13.0439 29.9732 12.9594C29.9971 12.875 30.0051 12.7863 29.9969 12.6985C29.9886 12.6107 29.9643 12.5255 29.9253 12.4478C29.8862 12.3701 29.8332 12.3015 29.7693 12.2458Z" fill="white"/>
</svg>
