<svg width="20" height="28" viewBox="0 0 20 28" fill="none" xmlns="http://www.w3.org/2000/svg">
<path d="M8.97229 27.4351C1.40469 15.9158 0 14.7335 0 10.5C0 4.70099 4.47714 0 10 0C15.5229 0 20 4.70099 20 10.5C20 14.7335 18.5953 15.9158 11.0277 27.4351C10.5311 28.1883 9.46885 28.1883 8.97229 27.4351ZM10 14.875C12.3012 14.875 14.1667 12.9163 14.1667 10.5C14.1667 8.08374 12.3012 6.125 10 6.125C7.6988 6.125 5.83333 8.08374 5.83333 10.5C5.83333 12.9163 7.6988 14.875 10 14.875Z" fill="#91A0F6"/>
</svg>
