<svg width="29" height="29" viewBox="0 0 29 29" fill="none" xmlns="http://www.w3.org/2000/svg">
<g filter="url(#filter0_d_118_153)">
<path d="M14.5 0C17.8152 0 20.9946 1.31696 23.3388 3.66117C25.683 6.00537 27 9.18479 27 12.5C27 15.8152 25.683 18.9946 23.3388 21.3388C20.9946 23.683 17.8152 25 14.5 25C11.1848 25 8.00537 23.683 5.66117 21.3388C3.31696 18.9946 2 15.8152 2 12.5C2 9.18479 3.31696 6.00537 5.66117 3.66117C8.00537 1.31696 11.1848 0 14.5 0ZM9.03125 11.7188C8.82405 11.7188 8.62534 11.8011 8.47882 11.9476C8.33231 12.0941 8.25 12.2928 8.25 12.5C8.25 12.7072 8.33231 12.9059 8.47882 13.0524C8.62534 13.1989 8.82405 13.2812 9.03125 13.2812H18.0828L14.7281 16.6344C14.6555 16.707 14.5979 16.7932 14.5586 16.8882C14.5192 16.9831 14.499 17.0848 14.499 17.1875C14.499 17.2902 14.5192 17.3919 14.5586 17.4868C14.5979 17.5818 14.6555 17.668 14.7281 17.7406C14.8008 17.8133 14.887 17.8709 14.9819 17.9102C15.0768 17.9495 15.1785 17.9697 15.2812 17.9697C15.384 17.9697 15.4857 17.9495 15.5806 17.9102C15.6755 17.8709 15.7617 17.8133 15.8344 17.7406L20.5219 13.0531C20.5946 12.9806 20.6524 12.8943 20.6917 12.7994C20.7311 12.7045 20.7514 12.6028 20.7514 12.5C20.7514 12.3972 20.7311 12.2955 20.6917 12.2006C20.6524 12.1057 20.5946 12.0194 20.5219 11.9469L15.8344 7.25937C15.7617 7.18674 15.6755 7.12912 15.5806 7.08981C15.4857 7.0505 15.384 7.03026 15.2812 7.03026C15.1785 7.03026 15.0768 7.0505 14.9819 7.08981C14.887 7.12912 14.8008 7.18674 14.7281 7.25937C14.6555 7.33201 14.5979 7.41825 14.5586 7.51315C14.5192 7.60806 14.499 7.70978 14.499 7.8125C14.499 7.91522 14.5192 8.01694 14.5586 8.11185C14.5979 8.20675 14.6555 8.29299 14.7281 8.36563L18.0828 11.7188H9.03125Z" fill="black"/>
</g>
<defs>
<filter id="filter0_d_118_153" x="0.333333" y="0" width="28.3333" height="28.3333" filterUnits="userSpaceOnUse" color-interpolation-filters="sRGB">
<feFlood flood-opacity="0" result="BackgroundImageFix"/>
<feColorMatrix in="SourceAlpha" type="matrix" values="0 0 0 0 0 0 0 0 0 0 0 0 0 0 0 0 0 0 127 0" result="hardAlpha"/>
<feOffset dy="1.66667"/>
<feGaussianBlur stdDeviation="0.833333"/>
<feComposite in2="hardAlpha" operator="out"/>
<feColorMatrix type="matrix" values="0 0 0 0 0 0 0 0 0 0 0 0 0 0 0 0 0 0 0.25 0"/>
<feBlend mode="normal" in2="BackgroundImageFix" result="effect1_dropShadow_118_153"/>
<feBlend mode="normal" in="SourceGraphic" in2="effect1_dropShadow_118_153" result="shape"/>
</filter>
</defs>
</svg>
