<svg width="29" height="29" viewBox="0 0 29 29" fill="none" xmlns="http://www.w3.org/2000/svg">
<path fill-rule="evenodd" clip-rule="evenodd" d="M5.61875 20.2993C5.70316 20.1867 5.81263 20.0954 5.93846 20.0324C6.0643 19.9695 6.20306 19.9368 6.34375 19.9368H10.875C11.1154 19.9368 11.3459 20.0322 11.5158 20.2022C11.6858 20.3722 11.7812 20.6027 11.7812 20.843C11.7812 21.0834 11.6858 21.3139 11.5158 21.4838C11.3459 21.6538 11.1154 21.7493 10.875 21.7493H6.79688L2.71875 27.1868H26.2812L22.2031 21.7493H18.125C17.8846 21.7493 17.6541 21.6538 17.4842 21.4838C17.3142 21.3139 17.2188 21.0834 17.2188 20.843C17.2188 20.6027 17.3142 20.3722 17.4842 20.2022C17.6541 20.0322 17.8846 19.9368 18.125 19.9368H22.6562C22.7969 19.9368 22.9357 19.9695 23.0615 20.0324C23.1874 20.0954 23.2968 20.1867 23.3812 20.2993L28.8187 27.5493C28.9197 27.6839 28.9812 27.844 28.9963 28.0116C29.0115 28.1793 28.9796 28.3478 28.9043 28.4983C28.8291 28.6488 28.7134 28.7754 28.5702 28.8639C28.427 28.9524 28.2621 28.9993 28.0938 28.9993H0.90625C0.737949 28.9993 0.572972 28.9524 0.429807 28.8639C0.286641 28.7754 0.170942 28.6488 0.0956758 28.4983C0.0204091 28.3478 -0.0114521 28.1793 0.0036623 28.0116C0.0187767 27.844 0.0802696 27.6839 0.18125 27.5493L5.61875 20.2993Z" fill="black"/>
<path fill-rule="evenodd" clip-rule="evenodd" d="M14.5 1.81183C13.7859 1.81183 13.0789 1.95247 12.4192 2.22573C11.7595 2.49899 11.16 2.89952 10.6551 3.40443C10.1502 3.90935 9.74967 4.50878 9.47641 5.16849C9.20315 5.82819 9.0625 6.53526 9.0625 7.24933C9.0625 7.96339 9.20315 8.67046 9.47641 9.33017C9.74967 9.98988 10.1502 10.5893 10.6551 11.0942C11.16 11.5991 11.7595 11.9997 12.4192 12.2729C13.0789 12.5462 13.7859 12.6868 14.5 12.6868C15.9421 12.6868 17.3252 12.1139 18.3449 11.0942C19.3646 10.0745 19.9375 8.69144 19.9375 7.24933C19.9375 5.80721 19.3646 4.42416 18.3449 3.40443C17.3252 2.38471 15.9421 1.81183 14.5 1.81183ZM7.25 7.24933C7.25013 5.85411 7.65284 4.48857 8.40981 3.31655C9.16678 2.14453 10.2458 1.21583 11.5175 0.641871C12.7892 0.0679159 14.1995 -0.126908 15.5792 0.0807759C16.9589 0.28846 18.2493 0.889831 19.2957 1.81273C20.342 2.73563 21.0999 3.94084 21.4783 5.28377C21.8567 6.62669 21.8395 8.05028 21.4289 9.3837C21.0183 10.7171 20.2316 11.9037 19.1634 12.8012C18.0951 13.6986 16.7905 14.2687 15.4063 14.4431V24.4681C15.4063 24.7084 15.3108 24.9389 15.1408 25.1089C14.9709 25.2788 14.7404 25.3743 14.5 25.3743C14.2596 25.3743 14.0291 25.2788 13.8592 25.1089C13.6892 24.9389 13.5938 24.7084 13.5938 24.4681V14.445C11.841 14.2241 10.2292 13.3709 9.06108 12.0456C7.89297 10.7203 7.24895 9.01593 7.25 7.24933Z" fill="black"/>
</svg>
