<svg width="28" height="30" viewBox="0 0 28 30" fill="none" xmlns="http://www.w3.org/2000/svg">
<path d="M14 0C6.26613 0 0 6.71371 0 15C0 23.2863 6.26613 30 14 30C21.7339 30 28 23.2863 28 15C28 6.71371 21.7339 0 14 0ZM14 5.80645C16.7435 5.80645 18.9677 8.18952 18.9677 11.129C18.9677 14.0685 16.7435 16.4516 14 16.4516C11.2565 16.4516 9.03226 14.0685 9.03226 11.129C9.03226 8.18952 11.2565 5.80645 14 5.80645ZM14 26.6129C10.6863 26.6129 7.71694 25.004 5.72984 22.4879C6.79113 20.3468 8.86855 18.871 11.2903 18.871C11.4258 18.871 11.5613 18.8952 11.6911 18.9375C12.425 19.1915 13.1927 19.3548 14 19.3548C14.8073 19.3548 15.5806 19.1915 16.3089 18.9375C16.4387 18.8952 16.5742 18.871 16.7097 18.871C19.1315 18.871 21.2089 20.3468 22.2702 22.4879C20.2831 25.004 17.3137 26.6129 14 26.6129Z" fill="black" fill-opacity="0.72"/>
</svg>
