<svg width="32" height="32" viewBox="0 0 32 32" fill="none" xmlns="http://www.w3.org/2000/svg">
<path d="M27.9 17.5667C27.9666 17.0667 28 16.55 28 16C28 15.4667 27.9666 14.9333 27.8833 14.4333L31.2666 11.8C31.5666 11.5667 31.65 11.1167 31.4666 10.7833L28.2666 5.25C28.0666 4.88333 27.65 4.76667 27.2833 4.88333L23.3 6.48333C22.4666 5.85 21.5833 5.31667 20.6 4.91667L20 0.683333C19.9333 0.283333 19.6 0 19.2 0H12.8C12.4 0 12.0833 0.283333 12.0166 0.683333L11.4166 4.91667C10.4333 5.31667 9.53331 5.86667 8.71665 6.48333L4.73331 4.88333C4.36665 4.75 3.94998 4.88333 3.74998 5.25L0.566646 10.7833C0.366646 11.1333 0.433313 11.5667 0.766646 11.8L4.14998 14.4333C4.06665 14.9333 3.99998 15.4833 3.99998 16C3.99998 16.5167 4.03331 17.0667 4.11665 17.5667L0.733313 20.2C0.433313 20.4333 0.349979 20.8833 0.533313 21.2167L3.73331 26.75C3.93331 27.1167 4.34998 27.2333 4.71665 27.1167L8.69998 25.5167C9.53331 26.15 10.4166 26.6833 11.4 27.0833L12 31.3167C12.0833 31.7167 12.4 32 12.8 32H19.2C19.6 32 19.9333 31.7167 19.9833 31.3167L20.5833 27.0833C21.5666 26.6833 22.4666 26.15 23.2833 25.5167L27.2666 27.1167C27.6333 27.25 28.05 27.1167 28.25 26.75L31.45 21.2167C31.65 20.85 31.5666 20.4333 31.25 20.2L27.9 17.5667ZM16 22C12.7 22 9.99998 19.3 9.99998 16C9.99998 12.7 12.7 10 16 10C19.3 10 22 12.7 22 16C22 19.3 19.3 22 16 22Z" fill="#91A0F6"/>
</svg>
