<svg width="14" height="13" viewBox="0 0 14 13" fill="none" xmlns="http://www.w3.org/2000/svg">
<path d="M0.4375 7.78748C0.553532 7.78748 0.664812 7.83357 0.746859 7.91562C0.828906 7.99766 0.875 8.10894 0.875 8.22498V10.4125C0.875 10.6445 0.967187 10.8671 1.13128 11.0312C1.29538 11.1953 1.51794 11.2875 1.75 11.2875H12.25C12.4821 11.2875 12.7046 11.1953 12.8687 11.0312C13.0328 10.8671 13.125 10.6445 13.125 10.4125V8.22498C13.125 8.10894 13.1711 7.99766 13.2531 7.91562C13.3352 7.83357 13.4465 7.78748 13.5625 7.78748C13.6785 7.78748 13.7898 7.83357 13.8719 7.91562C13.9539 7.99766 14 8.10894 14 8.22498V10.4125C14 10.8766 13.8156 11.3217 13.4874 11.6499C13.1592 11.9781 12.7141 12.1625 12.25 12.1625H1.75C1.28587 12.1625 0.840752 11.9781 0.512563 11.6499C0.184374 11.3217 0 10.8766 0 10.4125V8.22498C0 8.10894 0.0460936 7.99766 0.128141 7.91562C0.210188 7.83357 0.321468 7.78748 0.4375 7.78748Z" fill="#5F77E1"/>
<path d="M6.69019 9.49725C6.73083 9.53799 6.77911 9.57032 6.83226 9.59237C6.88542 9.61443 6.9424 9.62578 6.99994 9.62578C7.05749 9.62578 7.11447 9.61443 7.16762 9.59237C7.22077 9.57032 7.26905 9.53799 7.30969 9.49725L9.93469 6.87225C10.0168 6.7901 10.063 6.67868 10.063 6.5625C10.063 6.44632 10.0168 6.3349 9.93469 6.25275C9.85254 6.1706 9.74112 6.12445 9.62494 6.12445C9.50876 6.12445 9.39734 6.1706 9.31519 6.25275L7.43744 8.13138V0.4375C7.43744 0.321468 7.39135 0.210188 7.3093 0.128141C7.22726 0.0460936 7.11598 0 6.99994 0C6.88391 0 6.77263 0.0460936 6.69058 0.128141C6.60854 0.210188 6.56244 0.321468 6.56244 0.4375V8.13138L4.68469 6.25275C4.60254 6.1706 4.49112 6.12445 4.37494 6.12445C4.25876 6.12445 4.14734 6.1706 4.06519 6.25275C3.98304 6.3349 3.93689 6.44632 3.93689 6.5625C3.93689 6.67868 3.98304 6.7901 4.06519 6.87225L6.69019 9.49725Z" fill="#5F77E1"/>
</svg>
