<svg width="348" height="257" viewBox="0 0 348 257" fill="none" xmlns="http://www.w3.org/2000/svg">
<g clip-path="url(#clip0_188_285)">
<path d="M346.072 15.1944H1.92766C1.41659 15.1938 0.926603 14.9905 0.565217 14.6291C0.20383 14.2677 0.00055861 13.7778 0 13.2667V1.92766C0.00055861 1.41658 0.20383 0.926595 0.565217 0.56521C0.926603 0.203824 1.41659 0.000557461 1.92766 0H346.072C346.583 0.00055861 347.073 0.203831 347.435 0.565216C347.796 0.926602 347.999 1.41658 348 1.92766V13.2667C347.999 13.7778 347.796 14.2678 347.435 14.6291C347.073 14.9905 346.583 15.1938 346.072 15.1944Z" fill="#E4E4E4"/>
<path d="M11.187 9.78085C12.6985 9.78085 13.9238 8.55554 13.9238 7.04405C13.9238 5.53256 12.6985 4.30725 11.187 4.30725C9.6755 4.30725 8.4502 5.53256 8.4502 7.04405C8.4502 8.55554 9.6755 9.78085 11.187 9.78085Z" fill="white"/>
<path d="M21.5749 9.78085C23.0864 9.78085 24.3117 8.55554 24.3117 7.04405C24.3117 5.53256 23.0864 4.30725 21.5749 4.30725C20.0634 4.30725 18.8381 5.53256 18.8381 7.04405C18.8381 8.55554 20.0634 9.78085 21.5749 9.78085Z" fill="white"/>
<path d="M31.9636 9.78085C33.4751 9.78085 34.7004 8.55554 34.7004 7.04405C34.7004 5.53256 33.4751 4.30725 31.9636 4.30725C30.4521 4.30725 29.2268 5.53256 29.2268 7.04405C29.2268 8.55554 30.4521 9.78085 31.9636 9.78085Z" fill="white"/>
<path d="M335.894 5.16035H323.932C323.698 5.15983 323.473 5.06625 323.307 4.90013C323.141 4.73401 323.048 4.50893 323.048 4.27426C323.048 4.0396 323.141 3.81452 323.307 3.64841C323.473 3.48229 323.698 3.3887 323.932 3.38818H335.894C336.129 3.38802 336.354 3.48107 336.521 3.6469C336.687 3.81273 336.781 4.03778 336.781 4.2726C336.782 4.50743 336.689 4.73283 336.523 4.89928C336.357 5.06574 336.133 5.15964 335.898 5.16035H335.894Z" fill="white"/>
<path d="M335.894 8.48311H323.932C323.698 8.48259 323.473 8.389 323.307 8.22288C323.141 8.05677 323.048 7.83169 323.048 7.59702C323.048 7.36236 323.141 7.13728 323.307 6.97116C323.473 6.80504 323.698 6.71146 323.932 6.71094H335.894C336.129 6.71077 336.354 6.80382 336.521 6.96965C336.687 7.13548 336.781 7.36053 336.781 7.59536C336.782 7.83018 336.689 8.05558 336.523 8.22204C336.357 8.38849 336.133 8.48239 335.898 8.48311H335.894Z" fill="white"/>
<path d="M335.894 11.8061H323.932C323.697 11.8061 323.472 11.7128 323.306 11.5466C323.139 11.3804 323.046 11.155 323.046 10.92C323.046 10.685 323.139 10.4596 323.306 10.2935C323.472 10.1273 323.697 10.0339 323.932 10.0339H335.894C336.129 10.0335 336.355 10.1264 336.521 10.2923C336.688 10.4581 336.782 10.6834 336.782 10.9184C336.783 11.1534 336.69 11.3789 336.524 11.5454C336.358 11.7119 336.133 11.8057 335.898 11.8061H335.894Z" fill="white"/>
<path d="M98.1284 225.325C99.3947 215.142 105.705 205.109 115.417 201.795C111.587 212.276 111.588 223.774 115.419 234.254C116.911 238.291 118.991 242.625 117.588 246.693C116.714 249.224 114.578 251.161 112.19 252.372C109.801 253.583 107.151 254.16 104.533 254.726L104.018 255.152C99.8632 245.77 96.862 235.507 98.1284 225.325Z" fill="#F0F0F0"/>
<path d="M115.513 201.987C109.858 208.324 106.343 216.282 105.467 224.73C105.246 226.545 105.313 228.384 105.665 230.179C106.064 231.916 106.922 233.514 108.147 234.808C109.266 236.037 110.553 237.165 111.354 238.645C111.752 239.409 111.985 240.248 112.036 241.107C112.088 241.967 111.957 242.828 111.652 243.634C110.945 245.661 109.552 247.313 108.134 248.882C106.559 250.623 104.896 252.407 104.226 254.716C104.145 254.996 103.716 254.854 103.797 254.574C104.961 250.558 108.861 248.276 110.72 244.658C111.588 242.97 111.952 241.01 111.139 239.228C110.428 237.669 109.102 236.505 107.958 235.27C106.744 234.026 105.852 232.503 105.362 230.834C104.92 229.063 104.783 227.23 104.955 225.413C105.28 221.316 106.246 217.296 107.819 213.499C109.59 209.156 112.091 205.148 115.214 201.648C115.407 201.432 115.705 201.772 115.513 201.987Z" fill="white"/>
<path d="M105.589 221.993C104.192 221.654 102.96 220.829 102.115 219.665C101.27 218.502 100.865 217.076 100.974 215.642C100.979 215.584 101.007 215.53 101.051 215.491C101.095 215.452 101.152 215.432 101.211 215.435C101.27 215.438 101.325 215.464 101.365 215.507C101.405 215.549 101.427 215.606 101.426 215.665C101.322 217 101.699 218.328 102.488 219.41C103.278 220.492 104.428 221.255 105.731 221.564C106.014 221.631 105.871 222.06 105.589 221.993Z" fill="white"/>
<path d="M107.498 234.259C110.022 232.752 111.886 230.349 112.716 227.529C112.799 227.25 113.228 227.392 113.146 227.671C112.276 230.604 110.332 233.101 107.702 234.663C107.451 234.812 107.249 234.407 107.498 234.259Z" fill="white"/>
<path d="M110.01 209.584C110.523 209.828 111.089 209.941 111.656 209.912C112.224 209.883 112.776 209.714 113.262 209.419C113.51 209.268 113.712 209.672 113.465 209.823C112.927 210.146 112.317 210.333 111.69 210.366C111.063 210.399 110.437 210.278 109.868 210.014C109.812 209.994 109.766 209.953 109.739 209.9C109.713 209.847 109.707 209.785 109.724 209.728C109.743 209.672 109.784 209.625 109.837 209.598C109.891 209.571 109.953 209.566 110.01 209.584Z" fill="white"/>
<path d="M145.018 219.983C144.866 220.082 144.713 220.181 144.56 220.284C142.515 221.629 140.582 223.138 138.781 224.796C138.64 224.922 138.499 225.052 138.361 225.181C134.065 229.222 130.557 234.025 128.014 239.346C127.004 241.464 126.157 243.657 125.479 245.903C124.544 249.007 123.777 252.446 121.926 254.984C121.736 255.251 121.529 255.506 121.307 255.747H104.578C104.54 255.728 104.502 255.713 104.463 255.694L103.795 255.724C103.822 255.606 103.853 255.484 103.879 255.366C103.895 255.297 103.914 255.228 103.929 255.159C103.94 255.114 103.952 255.068 103.96 255.026C103.963 255.011 103.967 254.995 103.971 254.984C103.979 254.942 103.99 254.904 103.998 254.866C104.166 254.182 104.339 253.499 104.517 252.816C104.517 252.812 104.517 252.812 104.521 252.808C105.828 247.589 107.75 242.543 110.246 237.777C110.322 237.636 110.399 237.491 110.483 237.35C111.639 235.24 112.965 233.228 114.449 231.334C115.264 230.3 116.132 229.307 117.048 228.361C119.42 225.919 122.16 223.866 125.17 222.277C131.17 219.109 138.117 217.895 144.53 219.83C144.694 219.88 144.854 219.929 145.018 219.983Z" fill="#F0F0F0"/>
<path d="M144.981 220.195C136.65 221.85 129.052 226.087 123.267 232.305C121.998 233.622 120.944 235.13 120.145 236.775C119.418 238.402 119.14 240.195 119.34 241.966C119.493 243.621 119.841 245.296 119.589 246.96C119.448 247.809 119.128 248.619 118.652 249.337C118.175 250.054 117.552 250.663 116.824 251.123C115.039 252.316 112.932 252.797 110.855 253.195C108.549 253.637 106.147 254.06 104.222 255.501C103.989 255.675 103.732 255.303 103.965 255.129C107.313 252.623 111.801 253.149 115.464 251.38C117.173 250.554 118.644 249.208 119.067 247.296C119.437 245.623 119.08 243.895 118.91 242.221C118.69 240.496 118.895 238.743 119.508 237.116C120.221 235.436 121.215 233.889 122.447 232.543C125.173 229.467 128.365 226.838 131.906 224.754C135.935 222.353 140.346 220.658 144.946 219.744C145.231 219.688 145.264 220.139 144.981 220.195Z" fill="white"/>
<path d="M125.012 230.193C124.101 229.081 123.614 227.681 123.64 226.243C123.665 224.805 124.201 223.423 125.151 222.344C125.344 222.126 125.692 222.416 125.498 222.634C124.611 223.638 124.113 224.925 124.092 226.264C124.071 227.603 124.529 228.905 125.384 229.936C125.57 230.16 125.197 230.416 125.012 230.193Z" fill="white"/>
<path d="M119.152 241.137C122.074 241.453 125.009 240.656 127.37 238.905C127.604 238.731 127.861 239.103 127.627 239.277C125.167 241.095 122.111 241.918 119.071 241.582C118.781 241.55 118.863 241.105 119.152 241.137Z" fill="white"/>
<path d="M136.012 222.947C136.275 223.451 136.66 223.882 137.13 224.201C137.601 224.519 138.143 224.716 138.709 224.774C138.999 224.802 138.916 225.247 138.628 225.219C138.003 225.152 137.405 224.934 136.884 224.583C136.363 224.232 135.936 223.759 135.641 223.205C135.608 223.155 135.596 223.095 135.607 223.036C135.618 222.978 135.65 222.926 135.698 222.89C135.747 222.856 135.808 222.843 135.867 222.854C135.926 222.865 135.978 222.898 136.012 222.947Z" fill="white"/>
<path d="M112.797 79.0617H57.4477C55.7372 79.0597 54.0974 78.3794 52.888 77.1699C51.6785 75.9604 50.9982 74.3206 50.9963 72.6101V42.4642C50.9983 40.7538 51.6786 39.114 52.888 37.9046C54.0975 36.6952 55.7373 36.0149 57.4477 36.0131H112.797C114.507 36.0149 116.147 36.6952 117.357 37.9046C118.566 39.114 119.246 40.7538 119.248 42.4642V72.6101C119.247 74.3205 118.566 75.9604 117.357 77.1699C116.147 78.3793 114.508 79.0597 112.797 79.0617Z" fill="#E6E6E6"/>
<path d="M197.3 79.0617H141.95C140.24 79.0597 138.6 78.3794 137.391 77.1699C136.181 75.9604 135.501 74.3206 135.499 72.6101V42.4642C135.501 40.7538 136.181 39.114 137.391 37.9046C138.6 36.6952 140.24 36.0149 141.95 36.0131H197.3C199.01 36.0149 200.65 36.6952 201.859 37.9046C203.069 39.114 203.749 40.7538 203.751 42.4642V72.6101C203.749 74.3205 203.069 75.9604 201.859 77.1699C200.65 78.3793 199.01 79.0597 197.3 79.0617Z" fill="#5F77E1"/>
<path d="M281.802 79.0617H226.453C224.742 79.0597 223.103 78.3794 221.893 77.1699C220.684 75.9604 220.003 74.3206 220.001 72.6101V42.4642C220.003 40.7538 220.684 39.114 221.893 37.9046C223.103 36.6952 224.742 36.0149 226.453 36.0131H281.802C283.513 36.0149 285.152 36.6952 286.362 37.9046C287.571 39.114 288.252 40.7538 288.254 42.4642V72.6101C288.252 74.3205 287.571 75.9604 286.362 77.1699C285.152 78.3793 283.513 79.0597 281.802 79.0617Z" fill="#E6E6E6"/>
<path d="M112.797 146.23H57.4477C55.7372 146.228 54.0974 145.548 52.888 144.339C51.6785 143.129 50.9982 141.489 50.9963 139.779V109.633C50.9983 107.923 51.6786 106.283 52.888 105.073C54.0975 103.864 55.7373 103.184 57.4477 103.182H112.797C114.507 103.184 116.147 103.864 117.357 105.073C118.566 106.283 119.246 107.922 119.248 109.633V139.779C119.247 141.489 118.566 143.129 117.357 144.339C116.147 145.548 114.508 146.228 112.797 146.23Z" fill="#F2F2F2"/>
<path d="M197.3 146.23H141.95C140.24 146.228 138.6 145.548 137.391 144.339C136.181 143.129 135.501 141.489 135.499 139.779V109.633C135.501 107.923 136.181 106.283 137.391 105.073C138.6 103.864 140.24 103.184 141.95 103.182H197.3C199.01 103.184 200.65 103.864 201.859 105.073C203.069 106.283 203.749 107.922 203.751 109.633V139.779C203.749 141.489 203.069 143.129 201.859 144.339C200.65 145.548 199.01 146.228 197.3 146.23Z" fill="#E6E6E6"/>
<path d="M201.208 151.778C206.668 151.778 211.093 147.352 211.093 141.892C211.093 136.432 206.668 132.006 201.208 132.006C195.748 132.006 191.322 136.432 191.322 141.892C191.322 147.352 195.748 151.778 201.208 151.778Z" fill="#5F77E1"/>
<path d="M205.313 141.062H201.952V137.701C201.952 137.597 201.932 137.494 201.892 137.398C201.852 137.302 201.794 137.215 201.72 137.142C201.647 137.068 201.56 137.01 201.464 136.97C201.368 136.93 201.265 136.91 201.161 136.91C201.057 136.91 200.954 136.93 200.858 136.97C200.763 137.01 200.675 137.068 200.602 137.142C200.528 137.215 200.47 137.302 200.43 137.398C200.391 137.494 200.37 137.597 200.37 137.701V141.062H197.009C196.905 141.062 196.802 141.082 196.706 141.122C196.611 141.162 196.523 141.22 196.45 141.294C196.376 141.367 196.318 141.454 196.278 141.55C196.239 141.646 196.218 141.749 196.218 141.853C196.218 141.957 196.239 142.06 196.278 142.155C196.318 142.251 196.376 142.339 196.45 142.412C196.523 142.486 196.611 142.544 196.706 142.584C196.802 142.623 196.905 142.644 197.009 142.644H200.37V146.005C200.37 146.109 200.391 146.212 200.43 146.307C200.47 146.403 200.528 146.491 200.602 146.564C200.675 146.638 200.763 146.696 200.858 146.736C200.954 146.775 201.057 146.796 201.161 146.796C201.371 146.796 201.572 146.712 201.72 146.564C201.869 146.416 201.952 146.215 201.952 146.005V142.644H205.313C205.417 142.644 205.52 142.623 205.616 142.583C205.712 142.544 205.799 142.485 205.872 142.412C205.946 142.339 206.004 142.251 206.044 142.155C206.083 142.06 206.104 141.957 206.104 141.853C206.104 141.749 206.083 141.646 206.044 141.55C206.004 141.454 205.946 141.367 205.872 141.294C205.799 141.22 205.712 141.162 205.616 141.122C205.52 141.082 205.417 141.062 205.313 141.062Z" fill="white"/>
<path d="M287.01 86.3421C292.47 86.3421 296.896 81.9162 296.896 76.4565C296.896 70.9969 292.47 66.5709 287.01 66.5709C281.551 66.5709 277.125 70.9969 277.125 76.4565C277.125 81.9162 281.551 86.3421 287.01 86.3421Z" fill="#5F77E1"/>
<path d="M291.116 75.6265H287.754V72.2654C287.755 72.1615 287.734 72.0587 287.694 71.9627C287.655 71.8668 287.596 71.7796 287.523 71.7061C287.449 71.6327 287.362 71.5744 287.266 71.5347C287.17 71.495 287.067 71.4745 286.964 71.4745C286.86 71.4745 286.757 71.495 286.661 71.5347C286.565 71.5744 286.478 71.6327 286.404 71.7061C286.331 71.7796 286.273 71.8668 286.233 71.9627C286.193 72.0587 286.173 72.1615 286.173 72.2654V75.6265H282.812C282.708 75.6265 282.605 75.6469 282.509 75.6867C282.413 75.7264 282.326 75.7847 282.252 75.8581C282.179 75.9316 282.121 76.0188 282.081 76.1147C282.041 76.2107 282.021 76.3135 282.021 76.4174C282.021 76.5212 282.041 76.6241 282.081 76.7201C282.121 76.816 282.179 76.9032 282.252 76.9766C282.326 77.0501 282.413 77.1083 282.509 77.1481C282.605 77.1878 282.708 77.2083 282.812 77.2083H286.173V80.5694C286.173 80.6732 286.193 80.7761 286.233 80.8721C286.273 80.968 286.331 81.0552 286.404 81.1286C286.478 81.2021 286.565 81.2603 286.661 81.3001C286.757 81.3398 286.86 81.3603 286.964 81.3603C287.173 81.3603 287.375 81.277 287.523 81.1286C287.671 80.9803 287.755 80.7792 287.755 80.5694V77.2083H291.116C291.219 77.2083 291.322 77.1878 291.418 77.1481C291.514 77.1083 291.601 77.0501 291.675 76.9766C291.748 76.9032 291.806 76.816 291.846 76.72C291.886 76.6241 291.906 76.5212 291.906 76.4174C291.906 76.3135 291.886 76.2107 291.846 76.1147C291.806 76.0187 291.748 75.9316 291.675 75.8581C291.601 75.7847 291.514 75.7264 291.418 75.6867C291.322 75.6469 291.219 75.6265 291.116 75.6265Z" fill="white"/>
<path d="M116.705 85.4755C122.165 85.4755 126.591 81.0496 126.591 75.5899C126.591 70.1303 122.165 65.7043 116.705 65.7043C111.246 65.7043 106.82 70.1303 106.82 75.5899C106.82 81.0496 111.246 85.4755 116.705 85.4755Z" fill="#5F77E1"/>
<path d="M120.81 74.7598H117.449V71.3987C117.449 71.2948 117.428 71.192 117.389 71.096C117.349 71.0001 117.291 70.9129 117.217 70.8394C117.144 70.766 117.057 70.7077 116.961 70.668C116.865 70.6283 116.762 70.6078 116.658 70.6078C116.554 70.6078 116.451 70.6283 116.355 70.668C116.259 70.7077 116.172 70.766 116.099 70.8394C116.025 70.9129 115.967 71.0001 115.927 71.096C115.888 71.192 115.867 71.2948 115.867 71.3987V74.7598H112.506C112.402 74.7598 112.299 74.7803 112.203 74.82C112.107 74.8597 112.02 74.918 111.947 74.9914C111.873 75.0649 111.815 75.1521 111.775 75.248C111.736 75.344 111.715 75.4468 111.715 75.5507C111.715 75.7604 111.798 75.9616 111.947 76.1099C112.095 76.2583 112.296 76.3416 112.506 76.3416H115.867V79.7027C115.867 79.8065 115.888 79.9094 115.927 80.0054C115.967 80.1013 116.025 80.1885 116.099 80.2619C116.172 80.3354 116.259 80.3936 116.355 80.4334C116.451 80.4731 116.554 80.4936 116.658 80.4936C116.762 80.4936 116.865 80.4731 116.961 80.4334C117.057 80.3936 117.144 80.3354 117.217 80.2619C117.291 80.1885 117.349 80.1013 117.389 80.0054C117.428 79.9094 117.449 79.8066 117.449 79.7027V76.3416H120.81C120.914 76.3416 121.017 76.3211 121.113 76.2814C121.209 76.2416 121.296 76.1834 121.369 76.1099C121.443 76.0365 121.501 75.9493 121.541 75.8533C121.58 75.7574 121.601 75.6545 121.601 75.5507C121.601 75.3409 121.518 75.1397 121.369 74.9914C121.221 74.8431 121.02 74.7598 120.81 74.7598Z" fill="white"/>
<path d="M190.717 61.9338C190.897 62.4794 190.956 63.0578 190.888 63.6284C190.821 64.1991 190.629 64.748 190.327 65.2365C190.024 65.725 189.618 66.1413 189.138 66.456C188.657 66.7707 188.113 66.9762 187.544 67.0579L182.973 98.2592L175.475 94.597L183.017 63.4523C182.943 62.4877 183.225 61.5295 183.811 60.7593C184.396 59.989 185.243 59.4602 186.192 59.273C187.142 59.0859 188.126 59.2534 188.96 59.7438C189.794 60.2342 190.419 61.0134 190.717 61.9338Z" fill="#9E616A"/>
<path d="M136.121 161.864C136.455 161.396 136.682 160.861 136.786 160.296C136.891 159.731 136.87 159.15 136.726 158.593C136.582 158.037 136.317 157.52 135.951 157.077C135.585 156.634 135.127 156.276 134.608 156.03L137.691 122.842L131.232 126.152L129.216 158.134C128.859 159.033 128.845 160.032 129.176 160.941C129.507 161.85 130.16 162.606 131.012 163.066C131.863 163.525 132.853 163.657 133.795 163.435C134.736 163.214 135.564 162.655 136.121 161.864Z" fill="#9E616A"/>
<path d="M140.533 145.077L168.251 144.011L169.85 115.228H137.868L140.533 145.077Z" fill="#9E616A"/>
<path d="M135.389 246.728L140.126 246.728L142.379 228.459H135.388L135.389 246.728Z" fill="#9E616A"/>
<path d="M134.214 244.391L141.701 243.945V247.152L148.82 252.069C149.171 252.311 149.436 252.66 149.575 253.064C149.715 253.468 149.721 253.906 149.594 254.314C149.467 254.722 149.213 255.078 148.869 255.332C148.524 255.585 148.108 255.721 147.681 255.721H138.767L137.231 252.548L136.631 255.721H133.27L134.214 244.391Z" fill="#2F2E41"/>
<path d="M156.456 246.728L161.192 246.728L163.445 228.459H156.455L156.456 246.728Z" fill="#9E616A"/>
<path d="M140.149 138.321C140.149 138.321 131.856 145.016 136.351 168.927C135.667 169.009 136.442 170.358 136.442 170.358L137.091 189.841L137.592 192.074L135.925 195.677L136.612 199.592L134.494 235.123L142.319 236.135L149.807 199.238L151.234 195.09L152.664 191.454L151.892 187.576L152.525 181.558L156.842 161.265L157.899 196.461L156.424 199.821L157.245 203.509L155.417 205.467L154.694 238.397L163.038 238.787L169.942 205.592L169.406 201.355L170.325 198.223V190.907L171.898 187.454L175.327 168.626C175.327 168.626 176.362 153.911 168.813 136.594L140.149 138.321Z" fill="#2F2E41"/>
<path d="M143.529 91.3064C143.529 91.3064 133.054 93.378 131.249 102.311C129.444 111.244 128.283 131.459 128.283 131.459L128.678 134.274L138.811 136.624L145.278 108.299L143.529 91.3064Z" fill="#3F3D56"/>
<path d="M167.433 94.3217C167.433 94.3217 168.495 92.8339 174.441 92.6044C174.686 92.595 174.383 92.1093 174.383 92.1093L177.242 78.1327L186.772 83.4088L185.163 98.0615L169.504 115.872L167.433 94.3217Z" fill="#3F3D56"/>
<path d="M161.493 135.988C157.007 135.989 150.254 135.494 140.088 133.984C139.433 133.886 138.827 133.58 138.358 133.112C137.889 132.645 137.582 132.039 137.482 131.385C137.15 131.034 136.934 130.59 136.863 130.112C136.793 129.635 136.871 129.147 137.087 128.715L137.097 128.697L136.866 128.425C136.51 128.007 136.301 127.483 136.27 126.934C136.24 126.386 136.391 125.842 136.699 125.387L133.55 102.864C133.231 100.627 133.72 98.35 134.929 96.4418C136.139 94.5335 137.99 93.1196 140.149 92.4542L141.311 92.0924L145.707 86.3434L145.793 86.3444L159.903 86.5322L164.482 92.347L171.884 94.0923L171.903 94.205L173.622 104.135C174.516 109.299 172.466 111.331 169.85 115.872L170.617 128.628L170.966 129.261C171.159 129.611 171.224 130.018 171.149 130.411C171.074 130.804 170.864 131.159 170.555 131.414C170.789 132.081 170.805 132.805 170.601 133.482L170.42 134.08C170.42 134.097 170.372 134.34 169.981 134.637C169.276 135.172 167.253 135.988 161.493 135.988Z" fill="#3F3D56"/>
<path d="M155.281 244.391L162.768 243.945V247.152L169.887 252.069C170.238 252.311 170.503 252.66 170.642 253.064C170.782 253.468 170.788 253.906 170.661 254.314C170.534 254.722 170.28 255.078 169.936 255.332C169.591 255.585 169.175 255.721 168.748 255.721H159.834L158.298 252.548L157.698 255.721H154.337L155.281 244.391Z" fill="#2F2E41"/>
<path d="M163.145 73.8152C164.123 67.7848 160.028 62.1028 153.998 61.1242C147.967 60.1457 142.285 64.241 141.307 70.2714C140.328 76.3018 144.424 81.9837 150.454 82.9623C156.484 83.9409 162.166 79.8456 163.145 73.8152Z" fill="#9E616A"/>
<path d="M158.694 61.2343C154.64 58.446 151.069 58.0212 148.137 58.8121C147.756 58.224 147.223 57.7506 146.594 57.4427C144.307 51.6791 137.346 48.2178 131.372 49.9004C125.36 51.5939 121.211 58.2539 122.343 64.397C123.044 68.2048 125.44 71.5021 126.404 75.2521C128.27 82.5112 123.718 90.8266 116.598 93.1666C123.339 94.5203 130.761 90.4022 133.179 83.9652C134.354 80.8386 134.425 77.4249 134.574 74.0883C134.613 71.7852 134.896 69.4926 135.416 67.2488C135.674 66.2421 136.039 65.2658 136.504 64.3365C137.518 62.2939 139.201 60.6607 141.274 59.7093C141.088 60.2833 141.042 60.8932 141.138 61.4886C141.235 62.084 141.472 62.648 141.829 63.1338C140.248 65.1145 139.388 67.2564 139.388 68.5391C136.103 74.5421 140.8 79.6984 146.803 82.9828C149.197 84.2997 151.962 84.7817 154.661 84.3527L154.912 83.2806L155.252 84.2464L156.388 87.484C157.699 88.1179 158.998 88.8128 160.285 89.5686C159.796 87.2713 159.4 84.9781 159.128 82.736C158.751 79.6845 160.065 75.1414 161.013 72.3787C161.601 70.6759 161.903 68.8876 161.906 67.0863V67.0075L162.829 69.9728L166.19 68.5391C165.565 64.9527 166.19 60.8812 158.694 61.2343Z" fill="#2F2E41"/>
<path d="M296.918 256.27H51.0827C50.9463 256.27 50.8158 256.215 50.7196 256.118C50.6233 256.022 50.5693 255.891 50.5693 255.754C50.5693 255.618 50.6233 255.487 50.7196 255.39C50.8158 255.294 50.9463 255.239 51.0827 255.238H296.918C297.054 255.239 297.185 255.294 297.281 255.39C297.377 255.487 297.431 255.618 297.431 255.754C297.431 255.891 297.377 256.022 297.281 256.118C297.185 256.215 297.054 256.27 296.918 256.27Z" fill="#CCCCCC"/>
<path d="M115.575 153.077C121.035 153.077 125.461 148.651 125.461 143.191C125.461 137.731 121.035 133.305 115.575 133.305C110.115 133.305 105.689 137.731 105.689 143.191C105.689 148.651 110.115 153.077 115.575 153.077Z" fill="#E6E6E6"/>
<path d="M264.315 137.51H229.642C228.57 137.508 227.543 137.082 226.785 136.325C226.028 135.567 225.602 134.54 225.6 133.468V114.583C225.602 113.512 226.028 112.485 226.785 111.727C227.543 110.969 228.57 110.543 229.642 110.542H264.315C265.386 110.543 266.414 110.969 267.171 111.727C267.929 112.485 268.355 113.512 268.356 114.583V133.468C268.355 134.54 267.929 135.567 267.171 136.325C266.414 137.082 265.387 137.508 264.315 137.51Z" fill="#F2F2F2"/>
<path d="M264.825 129.839C267.725 129.839 270.075 127.488 270.075 124.589C270.075 121.689 267.725 119.339 264.825 119.339C261.926 119.339 259.576 121.689 259.576 124.589C259.576 127.488 261.926 129.839 264.825 129.839Z" fill="#6C63FF"/>
<path d="M267.005 124.148H265.22V122.363C265.22 122.308 265.21 122.253 265.189 122.202C265.167 122.151 265.136 122.105 265.097 122.066C265.058 122.027 265.012 121.996 264.961 121.975C264.91 121.954 264.856 121.943 264.8 121.943C264.689 121.943 264.582 121.987 264.503 122.066C264.425 122.145 264.38 122.251 264.38 122.363V124.148H262.596C262.484 124.148 262.377 124.192 262.299 124.271C262.22 124.35 262.176 124.456 262.176 124.568C262.176 124.623 262.186 124.678 262.208 124.729C262.229 124.78 262.26 124.826 262.299 124.865C262.338 124.904 262.384 124.935 262.435 124.956C262.486 124.977 262.54 124.988 262.596 124.988H264.38V126.773C264.38 126.828 264.391 126.883 264.412 126.933C264.434 126.984 264.465 127.031 264.504 127.07C264.543 127.109 264.589 127.14 264.64 127.161C264.691 127.182 264.745 127.193 264.801 127.193C264.912 127.193 265.019 127.149 265.097 127.07C265.176 126.991 265.22 126.884 265.22 126.773V124.988H267.005C267.117 124.988 267.224 124.944 267.302 124.865C267.381 124.786 267.425 124.679 267.425 124.568C267.425 124.513 267.415 124.458 267.393 124.407C267.372 124.356 267.341 124.31 267.302 124.271C267.263 124.232 267.217 124.201 267.166 124.18C267.115 124.159 267.061 124.148 267.005 124.148Z" fill="white"/>
<path d="M278.441 132.15H249.867C248.654 132.149 247.492 131.667 246.634 130.809C245.777 129.952 245.294 128.789 245.293 127.576V110.52C245.293 110.296 245.382 110.083 245.54 109.925C245.698 109.767 245.912 109.679 246.135 109.679C246.359 109.679 246.573 109.767 246.731 109.925C246.889 110.083 246.978 110.296 246.978 110.52V115.088L280.169 118.105C280.832 118.117 281.463 118.388 281.928 118.861C282.393 119.333 282.654 119.97 282.655 120.633C282.655 120.685 282.65 120.737 282.64 120.788L280.968 129.708C280.945 130.363 280.669 130.984 280.197 131.439C279.726 131.895 279.097 132.15 278.441 132.15ZM246.978 116.78V127.576C246.979 128.342 247.284 129.076 247.825 129.618C248.367 130.159 249.101 130.464 249.867 130.465H278.441C278.665 130.465 278.879 130.376 279.037 130.218C279.195 130.06 279.284 129.846 279.284 129.622C279.284 129.57 279.289 129.518 279.298 129.467L280.967 120.568C280.95 120.356 280.855 120.159 280.699 120.015C280.543 119.87 280.339 119.79 280.127 119.79C280.101 119.79 280.076 119.789 280.05 119.786L246.978 116.78Z" fill="#5F77E1"/>
<path d="M242.274 140.016C243.05 140.016 243.679 139.387 243.679 138.612C243.679 137.836 243.05 137.207 242.274 137.207C241.498 137.207 240.87 137.836 240.87 138.612C240.87 139.387 241.498 140.016 242.274 140.016Z" fill="#6C63FF"/>
<path d="M277.317 140.016C278.093 140.016 278.722 139.387 278.722 138.612C278.722 137.836 278.093 137.207 277.317 137.207C276.542 137.207 275.913 137.836 275.913 138.612C275.913 139.387 276.542 140.016 277.317 140.016Z" fill="#6C63FF"/>
<path d="M278.722 137.207H241.151C240.927 137.207 240.713 137.118 240.555 136.96C240.397 136.802 240.308 136.588 240.308 136.364C240.308 136.141 240.397 135.926 240.555 135.768C240.713 135.61 240.927 135.521 241.151 135.521H278.722C278.945 135.521 279.16 135.61 279.318 135.768C279.476 135.926 279.565 136.141 279.565 136.364C279.565 136.588 279.476 136.802 279.318 136.96C279.16 137.118 278.945 137.207 278.722 137.207Z" fill="#6C63FF"/>
<path d="M248.383 111.082H241.079C240.856 111.081 240.642 110.992 240.484 110.834C240.327 110.676 240.238 110.462 240.238 110.239C240.238 110.016 240.327 109.802 240.484 109.644C240.642 109.486 240.856 109.397 241.079 109.396H248.383C248.606 109.397 248.82 109.486 248.977 109.644C249.135 109.802 249.224 110.016 249.224 110.239C249.224 110.462 249.135 110.676 248.977 110.834C248.82 110.992 248.606 111.081 248.383 111.082Z" fill="#6C63FF"/>
<path d="M254.242 136.778C254.041 136.778 253.846 136.706 253.693 136.574L248.154 131.814C248.07 131.742 248.001 131.654 247.95 131.555C247.9 131.456 247.87 131.349 247.862 131.238C247.853 131.128 247.867 131.017 247.901 130.911C247.936 130.806 247.99 130.709 248.063 130.624C248.135 130.54 248.223 130.471 248.322 130.421C248.421 130.371 248.529 130.342 248.639 130.333C248.75 130.325 248.861 130.339 248.966 130.373C249.071 130.408 249.169 130.463 249.252 130.536L254.792 135.296C254.922 135.408 255.015 135.558 255.058 135.724C255.102 135.891 255.093 136.067 255.033 136.228C254.973 136.39 254.865 136.529 254.724 136.627C254.582 136.725 254.414 136.778 254.242 136.778Z" fill="#6C63FF"/>
<path d="M255.409 131.633C255.298 131.633 255.189 131.611 255.087 131.569C254.984 131.526 254.892 131.464 254.813 131.386C254.735 131.308 254.673 131.215 254.631 131.113C254.588 131.01 254.566 130.901 254.566 130.79V117.262C254.566 117.038 254.655 116.824 254.813 116.666C254.971 116.508 255.186 116.419 255.409 116.419C255.633 116.419 255.847 116.508 256.005 116.666C256.163 116.824 256.252 117.038 256.252 117.262V130.79C256.252 130.901 256.23 131.01 256.188 131.112C256.145 131.215 256.083 131.308 256.005 131.386C255.927 131.464 255.834 131.526 255.732 131.569C255.63 131.611 255.52 131.633 255.409 131.633Z" fill="#6C63FF"/>
<path d="M273.212 131.633C273.101 131.633 272.992 131.611 272.889 131.569C272.787 131.526 272.694 131.464 272.616 131.386C272.538 131.308 272.476 131.215 272.433 131.113C272.391 131.01 272.369 130.901 272.369 130.79V118.385C272.37 118.162 272.459 117.948 272.617 117.791C272.775 117.633 272.989 117.545 273.212 117.545C273.435 117.545 273.649 117.633 273.807 117.791C273.965 117.948 274.054 118.162 274.055 118.385V130.79C274.055 130.901 274.033 131.01 273.991 131.112C273.948 131.215 273.886 131.308 273.808 131.386C273.73 131.464 273.637 131.526 273.534 131.569C273.432 131.611 273.323 131.633 273.212 131.633Z" fill="#6C63FF"/>
</g>
<defs>
<clipPath id="clip0_188_285">
<rect width="348" height="256.27" fill="white"/>
</clipPath>
</defs>
</svg>
