<svg width="380" height="258" viewBox="0 0 380 258" fill="none" xmlns="http://www.w3.org/2000/svg">
<g clip-path="url(#clip0_15_430)">
<path d="M347.596 89.9728C347.197 90.3005 346.798 90.6139 346.389 90.9226H245.638C244.888 90.6139 244.141 90.2973 243.397 89.9728C232.76 85.344 222.86 79.1803 214.013 71.6786C208.138 66.7013 202.733 61.5626 198.815 56.7468C193.349 50.0266 188.315 42.7032 185.973 34.3588C183.636 26.0143 184.335 16.4493 189.554 9.52956C191.17 7.40097 193.157 5.58136 195.419 4.15813C195.795 3.92067 196.175 3.69271 196.564 3.47899C202.823 -0.0354743 210.721 -0.890349 217.77 0.928624C227.862 3.53598 236.249 10.8166 242.233 19.3558C248.217 27.8903 252.102 37.6928 255.93 47.386C259.815 30.0844 271.579 14.5875 287.47 6.70849C303.356 -1.17056 323.094 -1.07557 338.643 7.45888C343.536 10.1605 347.955 13.6414 351.728 17.7648C352.103 18.1685 352.469 18.5817 352.829 18.9996C360.414 27.781 365.159 39.0273 365.548 50.625C366.047 65.5662 359.122 80.574 347.596 89.9728Z" fill="#F2F2F2"/>
<path d="M249.666 90.9227H248.241C248.222 90.6045 248.198 90.291 248.17 89.9728C247.672 83.7606 246.629 77.604 245.054 71.5741C241.441 57.8078 235.268 44.8446 226.86 33.3615C218.475 21.8416 207.905 12.0848 195.752 4.64736C195.663 4.59642 195.587 4.5259 195.529 4.44113C195.472 4.35637 195.434 4.25961 195.419 4.15818C195.396 4.02556 195.411 3.88906 195.463 3.76459C195.514 3.64011 195.6 3.5328 195.71 3.45515C195.82 3.3775 195.949 3.33272 196.084 3.32602C196.218 3.31931 196.352 3.35097 196.469 3.4173C196.502 3.43619 196.533 3.45679 196.564 3.47903C203.449 7.67575 209.841 12.6335 215.618 18.2588C225.952 28.3397 234.285 40.2854 240.177 53.4652C245.374 65.0082 248.558 77.3557 249.59 89.9728C249.618 90.291 249.642 90.6093 249.666 90.9227Z" fill="white"/>
<path d="M352.829 18.9996C352.819 19.005 352.808 19.0082 352.796 19.0091C351.756 19.1991 350.711 19.3986 349.676 19.6123C341.177 21.3577 332.857 23.8839 324.823 27.1589C316.81 30.4292 309.101 34.4024 301.789 39.0321C294.467 43.6593 287.562 48.9161 281.153 54.7427C274.744 60.5609 268.865 66.9374 263.586 73.7968C259.64 78.9362 256.052 84.3409 252.848 89.9728C252.667 90.2863 252.491 90.6045 252.316 90.9227H250.687C250.858 90.6045 251.034 90.2863 251.214 89.9728C255.09 83.0721 259.535 76.5064 264.502 70.344C269.995 63.5241 276.084 57.2064 282.697 51.4657C289.268 45.7573 296.32 40.628 303.774 36.135C311.26 31.6239 319.13 27.7841 327.293 24.6608C335.214 21.6325 343.392 19.3245 351.728 17.7648C351.96 17.7221 352.188 17.6793 352.421 17.6366C353.309 17.4751 353.689 18.8144 352.829 18.9996Z" fill="white"/>
<path d="M93.8835 93.7461C96.4171 88.9632 96.8353 82.7338 93.685 78.3327C91.8097 75.7129 88.8815 73.9931 85.8092 73.0231C82.7368 72.0531 79.4957 71.768 76.2825 71.5323C73.1018 71.2989 69.8644 71.1121 66.7573 71.8315C63.6502 72.5509 60.6405 74.3084 59.1269 77.1157C56.5699 81.8581 58.8992 87.939 57.0211 92.9889C55.2976 97.6231 50.3924 100.332 45.5705 101.426C40.7485 102.519 35.7156 102.403 30.8913 103.486C26.0669 104.568 21.1536 107.252 19.3995 111.875C18.1311 115.218 18.7613 119.069 20.4327 122.229C22.1041 125.39 24.7217 127.949 27.5002 130.199C31.6452 133.556 36.4947 136.431 41.8207 136.722C47.4326 137.029 52.9198 134.357 56.9589 130.449C60.998 126.541 63.7479 121.491 65.9449 116.318C67.3386 113.036 68.6554 109.505 71.4485 107.288C73.5008 105.66 76.1112 104.947 78.6427 104.272L81.5093 103.508C84.1068 102.828 86.5379 101.624 88.6528 99.97C90.7677 98.3159 92.5218 96.2464 93.8071 93.8891C93.8327 93.8416 93.8582 93.7939 93.8835 93.7461Z" fill="#2F2E41"/>
<path d="M71.2767 251.077H65.4545L62.6843 228.619H71.2781L71.2767 251.077Z" fill="#FFB8B8"/>
<path d="M61.2953 249.414H72.5245V256.484H54.2252C54.2252 255.555 54.408 254.636 54.7633 253.778C55.1186 252.921 55.6394 252.141 56.296 251.485C56.9525 250.828 57.7319 250.307 58.5897 249.952C59.4475 249.597 60.3669 249.414 61.2953 249.414Z" fill="#2F2E41"/>
<path d="M119.719 251.077H113.897L111.127 228.619H119.721L119.719 251.077Z" fill="#FFB8B8"/>
<path d="M109.738 249.414H120.967V256.484H102.668C102.668 255.555 102.851 254.636 103.206 253.778C103.561 252.921 104.082 252.141 104.739 251.485C105.395 250.828 106.174 250.307 107.032 249.952C107.89 249.597 108.809 249.414 109.738 249.414Z" fill="#2F2E41"/>
<path d="M82.4692 233.227C82.3879 233.227 82.3068 233.223 82.226 233.214L58.5379 230.676C58.2232 230.643 57.9194 230.542 57.6466 230.382C57.3738 230.222 57.1383 230.005 56.9557 229.747C56.7731 229.488 56.6477 229.194 56.5878 228.883C56.5278 228.573 56.5348 228.253 56.6081 227.945L77.5821 148.171C77.6803 147.765 77.89 147.395 78.1875 147.102C78.485 146.809 78.8585 146.605 79.2659 146.513L98.7227 141.089C99.1128 141.003 99.5188 141.023 99.8986 141.147C100.278 141.271 100.618 141.494 100.883 141.793C113.393 155.903 122.82 187.182 129.961 226.608C130.015 226.905 130.008 227.211 129.94 227.505C129.872 227.8 129.745 228.078 129.566 228.322C129.388 228.565 129.161 228.77 128.901 228.924C128.64 229.078 128.351 229.177 128.051 229.215L108.642 231.693C108.092 231.765 107.534 231.628 107.08 231.309C106.625 230.99 106.306 230.513 106.186 229.971L96.743 187.869C96.6562 187.482 96.4388 187.136 96.1274 186.889C95.816 186.643 95.4294 186.511 95.0323 186.515C94.6352 186.52 94.2517 186.661 93.946 186.914C93.6404 187.168 93.4311 187.519 93.3532 187.908L84.6477 231.436C84.5491 231.941 84.2778 232.396 83.8802 232.723C83.4827 233.05 82.9838 233.228 82.4692 233.227Z" fill="#2F2E41"/>
<path d="M78.866 104.7C85.3082 104.7 90.5307 99.4777 90.5307 93.0355C90.5307 86.5933 85.3082 81.3708 78.866 81.3708C72.4238 81.3708 67.2013 86.5933 67.2013 93.0355C67.2013 99.4777 72.4238 104.7 78.866 104.7Z" fill="#FFB8B8"/>
<path d="M78.5403 148.396C78.0499 148.395 77.5734 148.233 77.185 147.933C76.7967 147.634 76.5182 147.214 76.393 146.74L69.3755 120.377C68.869 118.483 69.0788 116.468 69.9647 114.719C70.8505 112.97 72.3503 111.608 74.1771 110.896C79.8259 108.691 85.2076 107.873 90.1728 108.463C94.5858 108.989 100.03 135.115 99.6695 135.673L101.411 140.897C101.51 141.193 101.545 141.507 101.515 141.818C101.485 142.129 101.389 142.43 101.235 142.701C101.081 142.973 100.871 143.209 100.62 143.394C100.369 143.58 100.081 143.71 99.7763 143.777L79.0243 148.342C78.8654 148.378 78.7031 148.395 78.5403 148.396Z" fill="#91A0F6"/>
<path d="M84.8293 175.356C84.9293 174.837 84.9143 174.302 84.7853 173.79C84.6564 173.278 84.4166 172.8 84.083 172.39C83.7494 171.98 83.33 171.648 82.8543 171.418C82.3787 171.188 81.8583 171.065 81.33 171.058L77.287 158.867L73.1548 164.108L77.6276 174.882C77.6742 175.77 78.0451 176.611 78.6699 177.244C79.2948 177.877 80.1302 178.259 81.0179 178.317C81.9056 178.376 82.7839 178.107 83.4864 177.561C84.1889 177.015 84.6667 176.23 84.8293 175.356Z" fill="#FFB8B8"/>
<path d="M136.809 146.056C136.567 145.587 136.225 145.176 135.807 144.853C135.389 144.529 134.905 144.302 134.389 144.186C133.874 144.07 133.339 144.068 132.823 144.181C132.307 144.294 131.822 144.519 131.402 144.84L120.69 137.753L120.68 144.428L130.854 150.134C131.439 150.804 132.25 151.235 133.133 151.347C134.016 151.459 134.908 151.243 135.643 150.74C136.377 150.238 136.901 149.483 137.116 148.62C137.331 147.757 137.222 146.845 136.809 146.056Z" fill="#FFB8B8"/>
<path d="M76.353 169.723C75.8845 169.723 75.4279 169.576 75.0481 169.301C74.6683 169.027 74.3847 168.64 74.2377 168.195L64.7596 148.145C64.3709 146.97 64.1729 145.741 64.1732 144.503L67.0228 118.443C67.0227 116.984 67.5794 115.58 68.5794 114.517C69.5794 113.455 70.9472 112.814 72.4036 112.726C73.86 112.638 75.2952 113.109 76.4161 114.043C77.5371 114.977 78.2593 116.303 78.4353 117.752L74.0755 147.497L81.0327 165.753C81.1427 166.239 81.0865 166.747 80.8731 167.197C80.6597 167.647 80.3014 168.013 79.8556 168.235L77.3489 169.488C77.0397 169.643 76.6987 169.723 76.353 169.723Z" fill="#91A0F6" fill-opacity="0.5"/>
<path d="M126.973 148.689C126.624 148.689 126.28 148.607 125.968 148.449L107.119 138.928C106.014 138.371 105.006 137.64 104.133 136.763L85.7353 118.306C84.7053 117.272 84.1085 115.885 84.0668 114.427C84.0251 112.968 84.5416 111.549 85.5108 110.458C86.4801 109.368 87.829 108.688 89.2822 108.558C90.7354 108.429 92.1834 108.858 93.3305 109.76L113.26 131.893L129.057 141.923C129.478 142.19 129.797 142.589 129.964 143.059C130.13 143.528 130.134 144.04 129.975 144.512L129.085 147.169C128.936 147.612 128.652 147.997 128.273 148.269C127.894 148.542 127.439 148.689 126.973 148.689Z" fill="#91A0F6" fill-opacity="0.5"/>
<path d="M65.598 87.0047C67.5794 89.5968 70.4277 91.389 73.6219 92.0538C76.8597 92.7228 80.2294 92.24 83.149 90.6887C85.4983 89.4194 87.3782 87.5143 89.2195 85.6387C89.988 84.8559 90.8064 83.9532 90.7678 82.8853C90.7079 81.2308 88.7189 80.3263 87.0118 79.9654C81.4083 78.7965 75.5777 79.4522 70.3738 81.8365C68.0561 82.9131 65.6414 84.8608 65.9894 87.282" fill="#2F2E41"/>
<path d="M371.926 89.9728H143.011C140.871 89.9758 138.819 90.8274 137.305 92.3409C135.792 93.8543 134.94 95.9062 134.937 98.0465V186.383C134.94 188.523 135.792 190.575 137.305 192.089C138.819 193.602 140.871 194.454 143.011 194.457H371.926C374.067 194.454 376.118 193.602 377.632 192.089C379.145 190.575 379.997 188.523 380 186.383V98.0465C379.997 95.9062 379.145 93.8543 377.632 92.3409C376.118 90.8274 374.067 89.9758 371.926 89.9728ZM379.05 186.383C379.048 188.272 378.297 190.082 376.961 191.418C375.626 192.753 373.815 193.505 371.926 193.507H143.011C141.122 193.505 139.312 192.753 137.976 191.418C136.641 190.082 135.89 188.272 135.887 186.383V98.0465C135.89 96.1579 136.641 94.3472 137.976 93.0117C139.312 91.6762 141.122 90.9249 143.011 90.9226H371.926C373.815 90.9249 375.626 91.6762 376.961 93.0117C378.297 94.3472 379.048 96.1579 379.05 98.0465V186.383Z" fill="#3F3D56"/>
<path d="M184.574 169.761C179.126 169.761 173.8 168.145 169.27 165.118C164.74 162.092 161.21 157.789 159.125 152.756C157.04 147.723 156.494 142.184 157.557 136.841C158.62 131.498 161.244 126.589 165.096 122.737C168.948 118.885 173.857 116.261 179.2 115.198C184.543 114.135 190.082 114.681 195.115 116.766C200.148 118.851 204.451 122.381 207.477 126.911C210.504 131.441 212.12 136.767 212.12 142.215C212.111 149.518 209.207 156.519 204.043 161.684C198.878 166.848 191.877 169.752 184.574 169.761ZM184.574 115.619C179.314 115.619 174.172 117.179 169.798 120.101C165.424 123.023 162.015 127.177 160.002 132.037C157.989 136.897 157.463 142.244 158.489 147.403C159.515 152.563 162.048 157.301 165.768 161.021C169.487 164.74 174.226 167.274 179.385 168.3C184.544 169.326 189.892 168.799 194.752 166.786C199.611 164.773 203.765 161.364 206.688 156.991C209.61 152.617 211.17 147.475 211.17 142.215C211.162 135.164 208.357 128.403 203.371 123.417C198.385 118.431 191.625 115.627 184.574 115.619Z" fill="#3F3D56"/>
<path d="M351.498 124.643H241.79C240.256 124.643 238.782 125.238 237.678 126.301C236.573 127.364 235.922 128.814 235.862 130.346C235.855 130.424 235.851 130.501 235.853 130.579C235.855 132.153 236.481 133.662 237.594 134.774C238.707 135.887 240.216 136.513 241.79 136.516H351.498C353.072 136.516 354.582 135.89 355.696 134.777C356.809 133.664 357.434 132.154 357.434 130.579C357.434 129.005 356.809 127.495 355.696 126.381C354.582 125.268 353.072 124.643 351.498 124.643Z" fill="#5F77E1"/>
<path d="M351.498 147.914H241.79C240.256 147.915 238.782 148.509 237.678 149.573C236.573 150.636 235.922 152.086 235.862 153.618C235.855 153.695 235.851 153.773 235.853 153.851C235.855 155.424 236.481 156.933 237.594 158.046C238.707 159.159 240.216 159.785 241.79 159.787H351.498C353.072 159.787 354.582 159.162 355.696 158.048C356.809 156.935 357.434 155.425 357.434 153.851C357.434 152.276 356.809 150.766 355.696 149.653C354.582 148.539 353.072 147.914 351.498 147.914Z" fill="#5F77E1"/>
<path d="M181.501 154.25C180.732 154.252 179.984 154.003 179.369 153.542L179.331 153.514L171.303 147.367C170.931 147.082 170.619 146.727 170.384 146.321C170.15 145.916 169.998 145.468 169.936 145.004C169.875 144.54 169.905 144.068 170.026 143.615C170.147 143.163 170.356 142.738 170.641 142.367C170.926 141.995 171.281 141.683 171.686 141.448C172.092 141.214 172.54 141.061 173.004 141C173.468 140.938 173.94 140.969 174.393 141.09C174.845 141.211 175.269 141.42 175.641 141.705L180.841 145.692L193.13 129.666C193.415 129.294 193.77 128.982 194.176 128.748C194.581 128.514 195.029 128.361 195.493 128.3C195.958 128.239 196.43 128.27 196.882 128.391C197.335 128.512 197.759 128.721 198.131 129.006L198.054 129.109L198.132 129.007C198.882 129.584 199.373 130.434 199.497 131.371C199.62 132.309 199.367 133.257 198.793 134.008L184.338 152.858C184.004 153.293 183.574 153.644 183.082 153.886C182.59 154.127 182.049 154.252 181.501 154.25Z" fill="#5F77E1"/>
<path d="M324.498 68.577C314.577 67.2124 304.501 67.4395 294.651 69.2499C284.83 71.0454 275.349 74.3603 266.548 79.0755C261.603 81.7329 256.909 84.8342 252.524 88.341C251.808 88.9132 252.822 89.9155 253.532 89.3484C261.225 83.2284 269.849 78.3804 279.077 74.9887C288.231 71.603 297.853 69.651 307.603 69.2017C313.12 68.9483 318.648 69.1991 324.119 69.9509C324.301 69.9945 324.493 69.9673 324.656 69.875C324.818 69.7826 324.94 69.6319 324.996 69.4533C325.045 69.2712 325.02 69.077 324.927 68.913C324.834 68.7489 324.68 68.6282 324.498 68.577Z" fill="white"/>
</g>
<defs>
<clipPath id="clip0_15_430">
<rect width="380" height="257.147" fill="white"/>
</clipPath>
</defs>
</svg>
