<svg width="415" height="290" viewBox="0 0 415 290" fill="none" xmlns="http://www.w3.org/2000/svg">
<g clip-path="url(#clip0_1_255)">
<path d="M346.748 44.6566L314.734 44.9685C313.229 37.5605 308.173 18.123 312.726 12.8213C312.934 10.8258 313.903 8.98732 315.432 7.68845C316.961 6.38958 318.932 5.73045 320.935 5.84826C325.897 -1.91889 334.162 -0.752703 339.748 4.09822C345.369 6.03804 347.489 9.48425 346.748 14.1609C350.911 17.8053 351.679 22.2391 349.81 27.2862L346.748 44.6566Z" fill="#2F2E41"/>
<path d="M343.666 64.378L320.569 61.18L315.949 54.4285C322.313 50.2075 324.564 44.312 321.635 36.3061L337.625 35.9507C336.876 43.0801 339.233 48.6002 345.798 51.9411L343.666 64.378Z" fill="#FFB9B9"/>
<path d="M315.108 272.709L314.225 284.782C314.185 285.329 314.262 285.878 314.451 286.392C314.641 286.906 314.938 287.374 315.323 287.764C315.708 288.154 316.172 288.457 316.684 288.652C317.196 288.848 317.743 288.933 318.29 288.899L324.492 288.524C324.779 288.506 325.059 288.426 325.312 288.288C325.565 288.15 325.784 287.958 325.954 287.726C326.124 287.494 326.241 287.227 326.297 286.945C326.352 286.662 326.345 286.371 326.275 286.091L322.833 272.322L315.108 272.709Z" fill="#E6E6E6"/>
<path d="M335.185 272.322L331.743 286.091C331.673 286.371 331.666 286.662 331.721 286.945C331.776 287.227 331.893 287.494 332.064 287.726C332.234 287.958 332.453 288.15 332.706 288.288C332.959 288.426 333.239 288.506 333.526 288.524L339.727 288.899C340.274 288.932 340.822 288.848 341.334 288.652C341.846 288.457 342.31 288.154 342.695 287.764C343.08 287.374 343.377 286.906 343.566 286.392C343.756 285.878 343.833 285.329 343.793 284.782L342.91 272.709L335.185 272.322Z" fill="#E6E6E6"/>
<path d="M343.311 274.385L334.941 273.545L326.61 184.483L323.461 273.258L315.238 272.964L301.38 150.015H354.326L343.311 274.385Z" fill="#38C6AC"/>
<path d="M330.518 41.9915C339.349 41.9915 346.508 34.8324 346.508 26.0012C346.508 17.1699 339.349 10.0108 330.518 10.0108C321.687 10.0108 314.528 17.1699 314.528 26.0012C314.528 34.8324 321.687 41.9915 330.518 41.9915Z" fill="#FFB9B9"/>
<path d="M362.144 152.858L297.471 153.569C307.069 117.031 312.81 83.0914 302.802 59.7586L318.792 51.9411C326.502 59.983 335.089 59.1539 344.377 51.2304L359.656 55.1392C357.039 85.7366 358.212 118.507 362.144 152.858Z" fill="#38C6AC"/>
<path d="M279.704 115.192L319.858 131.182L328.835 133.823C329.237 133.941 329.658 133.976 330.074 133.928C330.49 133.879 330.891 133.746 331.254 133.538C331.618 133.331 331.935 133.051 332.188 132.718C332.44 132.384 332.623 132.002 332.724 131.596C332.902 130.884 332.822 130.132 332.499 129.474C332.175 128.815 331.629 128.292 330.956 127.998L321.635 125.141L293.563 108.796L299.426 93.3383L287.167 86.7645L279.704 115.192Z" fill="#FFB9B9"/>
<path d="M280.06 86.0538C287.699 89.0342 293.776 94.1208 298.537 100.978L313.462 79.3024L302.802 59.7586L280.06 86.0538Z" fill="#38C6AC"/>
<path d="M348.54 23.4096C342.05 21.7374 335.669 21.5078 329.466 23.6288C325.515 25.5425 320.77 25.3662 315.493 23.7894V7.83585L343.982 8.59554L348.54 23.4096Z" fill="#2F2E41"/>
<path d="M319.725 96.561C318.469 96.5624 317.265 97.0618 316.377 97.9497C315.49 98.8375 314.99 100.041 314.989 101.297L316.858 140.429C316.86 141.684 317.359 142.888 318.247 143.776C319.135 144.664 320.338 145.163 321.594 145.165H342.967C344.222 145.163 345.426 144.664 346.314 143.776C347.202 142.888 347.701 141.684 347.703 140.429L349.572 101.297C349.571 100.041 349.071 98.8375 348.183 97.9497C347.296 97.0618 346.092 96.5624 344.836 96.561H319.725Z" fill="#3F3D56"/>
<path d="M380.365 112.236L345.366 126.172L342.725 127.223C342.641 127.256 342.557 127.284 342.468 127.312L333.622 129.915C332.491 130.247 330.925 128.723 330.009 127.672C329.555 127.165 329.299 126.513 329.285 125.833C329.271 125.153 329.501 124.491 329.934 123.966C330.056 123.825 330.191 123.695 330.336 123.578C330.677 123.313 331.079 123.136 331.504 123.064L340.342 121.325C340.659 121.263 340.964 121.15 341.244 120.989L345.366 118.587L366.765 106.127C367.361 105.782 367.814 105.236 368.044 104.587C368.274 103.938 368.267 103.229 368.023 102.585L363.938 91.8128C363.688 91.1537 363.686 90.4259 363.932 89.7654C364.179 89.1049 364.658 88.5569 365.279 88.2236L372.046 84.597C372.433 84.3894 372.862 84.2723 373.3 84.2544C373.739 84.2366 374.176 84.3185 374.578 84.494C374.98 84.6695 375.337 84.934 375.623 85.2675C375.908 85.6011 376.114 85.995 376.224 86.4196L382.099 108.796C382.28 109.482 382.203 110.211 381.884 110.844C381.564 111.478 381.024 111.973 380.365 112.236Z" fill="#FFB9B9"/>
<path d="M382.398 82.1451C374.758 85.1255 368.682 90.2121 363.92 97.0694L348.996 75.3936L359.656 55.1392L382.398 82.1451Z" fill="#38C6AC"/>
<path d="M341.16 40.2334C334.165 43.1432 326.83 43.025 319.195 40.2334C321.416 36.4414 318.096 33.4715 316.391 29.6435L344.899 28.7964C342.719 32.1218 339.502 36.0507 341.16 40.2334Z" fill="white"/>
<path d="M344.597 29.4291L344.266 29.0987L344.733 28.6314L347.525 25.3731L347.88 25.6769L345.076 28.9482L344.597 29.4291Z" fill="white"/>
<path d="M314.437 27.4485L314.138 27.8077L316.942 30.1444L317.241 29.7852L314.437 27.4485Z" fill="white"/>
<path d="M345.402 32.1766L340.494 39.8871L340.888 40.1381L345.796 32.4277L345.402 32.1766Z" fill="white"/>
<path d="M314.952 32.176L314.558 32.427L319.465 40.1382L319.859 39.8872L314.952 32.176Z" fill="white"/>
<path d="M346.301 117.926V126.392L343.353 127.566C343.259 127.603 343.165 127.634 343.066 127.665L333.191 130.571C331.929 130.941 330.181 129.241 329.159 128.067C328.652 127.501 328.366 126.773 328.35 126.014C328.335 125.255 328.592 124.516 329.075 123.93C329.212 123.773 329.362 123.628 329.524 123.497C329.904 123.201 330.353 123.004 330.828 122.923L340.693 120.983C341.047 120.913 341.387 120.786 341.699 120.607L346.301 117.926Z" fill="white"/>
<path d="M350.572 87.7263H348.883C348.883 63.8401 343.965 47.1942 339.172 47.1942L338.75 45.5054C343.048 45.5054 345.789 52.4333 347.331 58.2453C349.421 66.1244 350.572 76.5942 350.572 87.7263Z" fill="#3F3D56"/>
<path d="M311.729 81.8154H310.04C310.04 59.9395 314.992 46.3499 322.284 46.3499L321.862 48.0387C316.818 48.0387 311.729 58.4828 311.729 81.8154Z" fill="#3F3D56"/>
<path d="M349.727 92.3706C352.059 92.3706 353.95 90.4803 353.95 88.1485C353.95 85.8167 352.059 83.9264 349.727 83.9264C347.396 83.9264 345.505 85.8167 345.505 88.1485C345.505 90.4803 347.396 92.3706 349.727 92.3706Z" fill="#3F3D56"/>
<path d="M304.973 91.9484H303.285C303.285 85.8954 306.694 80.9709 310.884 80.9709V82.6598C307.625 82.6598 304.973 86.8266 304.973 91.9484Z" fill="#3F3D56"/>
<path d="M318.484 91.9484H316.795C316.795 86.8266 314.144 82.6598 310.884 82.6598V80.9709C315.075 80.9709 318.484 85.8954 318.484 91.9484Z" fill="#3F3D56"/>
<path d="M317.64 94.0594C318.572 94.0594 319.329 93.3033 319.329 92.3706C319.329 91.4378 318.572 90.6817 317.64 90.6817C316.707 90.6817 315.951 91.4378 315.951 92.3706C315.951 93.3033 316.707 94.0594 317.64 94.0594Z" fill="#3F3D56"/>
<path d="M304.129 94.0594C305.062 94.0594 305.818 93.3033 305.818 92.3706C305.818 91.4378 305.062 90.6817 304.129 90.6817C303.196 90.6817 302.44 91.4378 302.44 92.3706C302.44 93.3033 303.196 94.0594 304.129 94.0594Z" fill="#3F3D56"/>
<path d="M100.605 35.6155L70.9447 40.6383C70.2119 40.7634 69.4589 40.6121 68.8313 40.2139C68.2036 39.8157 67.746 39.1988 67.547 38.4827C65.4041 30.7484 60.9239 20.6588 65.2737 15.5938C65.4953 13.463 66.5302 11.4998 68.1629 10.1128C69.7956 8.72578 71.9003 8.02192 74.0389 8.14772C79.3375 -0.146366 88.1631 1.09894 94.1281 6.27896C100.131 8.35038 102.395 12.0304 101.603 17.0243C104.197 19.2944 105.556 21.8514 105.843 24.6578C105.979 26.2196 105.78 27.7924 105.26 29.2713C104.74 30.7501 103.91 32.1011 102.827 33.2339L100.605 35.6155Z" fill="#2F2E41"/>
<path d="M95.9936 58.9663L73.0002 57.6138C75.2536 52.4417 76.1537 47.4613 75.2544 42.7357H92.3868C92.348 46.364 94.1536 52.6405 95.9936 58.9663Z" fill="#9F616A"/>
<path d="M68.3158 271.433L67.3727 284.325C67.33 284.909 67.4126 285.495 67.6149 286.044C67.8173 286.593 68.1347 287.093 68.5458 287.509C68.957 287.925 69.4524 288.249 69.9989 288.458C70.5454 288.667 71.1303 288.757 71.7144 288.722L78.3367 288.321C78.6435 288.302 78.9425 288.216 79.2124 288.069C79.4822 287.921 79.7164 287.717 79.8981 287.469C80.0799 287.221 80.2048 286.936 80.264 286.634C80.3232 286.333 80.3153 286.022 80.2407 285.723L76.5648 271.02L68.3158 271.433Z" fill="#E6E6E6"/>
<path d="M89.7553 271.02L86.0793 285.723C86.0048 286.022 85.9968 286.333 86.056 286.634C86.1153 286.936 86.2402 287.221 86.4219 287.469C86.6037 287.717 86.8378 287.921 87.1077 288.069C87.3775 288.216 87.6765 288.302 87.9833 288.321L94.6057 288.722C95.1898 288.757 95.7746 288.667 96.3211 288.458C96.8676 288.249 97.363 287.925 97.7742 287.509C98.1854 287.093 98.5028 286.593 98.7051 286.044C98.9074 285.495 98.99 284.909 98.9473 284.325L98.0042 271.433L89.7553 271.02Z" fill="#E6E6E6"/>
<path d="M98.4316 273.222L89.4951 272.326L80.5978 177.222L77.2353 272.019L68.4553 271.705L53.657 140.415H110.195L98.4316 273.222Z" fill="#38C6AC"/>
<path d="M84.2726 48.2087C93.7029 48.2087 101.348 40.5639 101.348 31.1336C101.348 21.7032 93.7029 14.0584 84.2726 14.0584C74.8422 14.0584 67.1974 21.7032 67.1974 31.1336C67.1974 40.5639 74.8422 48.2087 84.2726 48.2087Z" fill="#9F616A"/>
<path d="M103.517 22.9765C96.5869 21.7696 89.7732 21.6039 83.1496 23.1348C78.9304 24.516 73.8634 24.3887 68.2285 23.2507V11.7359L98.6497 12.2842L103.517 22.9765Z" fill="#2F2E41"/>
<path d="M95.6362 44.8342C88.1663 47.9413 80.3338 47.8152 72.181 44.8342C74.5533 40.7849 71.0072 37.6135 69.1867 33.5259L99.6286 32.6212C97.3007 36.1723 93.8656 40.3677 95.6362 44.8342Z" fill="white"/>
<path d="M67.0908 31.1941L66.7914 31.5533L69.7856 34.0484L70.0849 33.6891L67.0908 31.1941Z" fill="white"/>
<path d="M100.18 36.2389L94.939 44.4725L95.3333 44.7235L100.575 36.49L100.18 36.2389Z" fill="white"/>
<path d="M67.6366 36.2386L67.2422 36.4895L72.4822 44.7239L72.8766 44.4729L67.6366 36.2386Z" fill="white"/>
<path d="M51.8101 109.011L38.7354 100.896L49.8858 68.2382C51.1295 64.8683 53.5115 62.039 56.6201 60.2392L60.3763 58.0646L60.7029 91.0098L51.8101 109.011Z" fill="#38C6AC"/>
<path d="M108.325 124.872L106.39 108.303C106.287 99.558 107.775 91.1029 111.323 83.3123L113.126 58.9663L93.2885 50.851C93.2277 51.2552 93.176 51.6592 93.1179 52.0634L83.8206 56.712L74.7534 54.6513L74.8036 51.7527L56.7695 59.868C62.7334 87.5945 59.4806 116.387 49.2248 150.396L72.9831 156.893L73.1806 145.485L94.3543 143.972C94.5724 147.674 94.7477 151.309 94.8494 154.864C106.797 159.263 107.208 159.19 118.093 152.892C113.758 143.777 110.326 134.293 108.325 124.872Z" fill="#38C6AC"/>
<path d="M138.824 104.953L126.652 100.896L107.18 78.2281L113.126 58.9666L140.177 96.8381L138.824 104.953Z" fill="#38C6AC"/>
<path d="M100.674 122.502C100.874 123.376 101.411 124.135 102.17 124.614C102.928 125.092 103.845 125.25 104.719 125.053L115.053 122.713L113.559 116.117L103.226 118.457C102.351 118.655 101.591 119.193 101.113 119.951C100.634 120.71 100.477 121.627 100.674 122.502Z" fill="#E6E6E6"/>
<path d="M109.97 114.872L115.831 125.692C125.689 122.943 134.233 114.275 142.431 104.052L140.177 96.8379L126.201 100.445L109.97 114.872Z" fill="#38C6AC"/>
<path d="M33.5505 80.9307L44.8022 82.9398L70.5205 119.508L56.8578 116.293L33.5505 80.9307Z" fill="#E6E6E6"/>
<path d="M31.5548 80.483C31.3833 80.4856 31.2157 80.5342 31.0695 80.6238C30.9232 80.7133 30.8037 80.8405 30.7235 80.992C30.6432 81.1436 30.6051 81.3139 30.6133 81.4852C30.6214 81.6564 30.6753 81.8224 30.7695 81.9657L54.8093 118.44C54.9435 118.644 55.1507 118.789 55.3883 118.844L66.5733 121.476C66.7619 121.52 66.9595 121.506 67.14 121.436C67.3204 121.365 67.4752 121.242 67.5837 121.081C67.6922 120.921 67.7493 120.731 67.7475 120.537C67.7458 120.343 67.6851 120.155 67.5736 119.996L41.1794 82.4672C41.1078 82.3649 41.0168 82.2778 40.9115 82.2107C40.8063 82.1437 40.6888 82.0981 40.5659 82.0764L31.7351 80.4993C31.6756 80.4886 31.6152 80.4832 31.5548 80.483Z" fill="#3F3D56"/>
<path d="M46.5509 106.562L47.219 113.292L57.7621 112.245C58.6545 112.156 59.4752 111.717 60.0436 111.023C60.612 110.33 60.8816 109.439 60.793 108.546C60.7045 107.654 60.265 106.833 59.5713 106.265C58.8777 105.696 57.9866 105.427 57.0942 105.515L46.5509 106.562Z" fill="#E6E6E6"/>
<path d="M37.3831 105.782C37.3984 108.077 38.32 110.273 39.9471 111.891C41.5742 113.509 43.7749 114.418 46.0697 114.421H47.8033L49.0654 103.903L38.6154 100.141L37.3831 105.782Z" fill="#38C6AC"/>
<path d="M98.7957 33.7847L98.4653 33.4543L98.9644 32.9552L101.947 29.4749L102.301 29.7787L99.307 33.2721L98.7957 33.7847Z" fill="white"/>
<path d="M158.429 287.704H256.571V168.664C256.571 162.361 250.362 157.233 242.731 157.233H172.269C164.638 157.233 158.429 162.361 158.429 168.664V287.704Z" fill="#E6E6E6"/>
<path d="M165.906 282.781H249.093V181.881C249.093 176.538 243.831 172.192 237.362 172.192H177.638C171.169 172.192 165.906 176.538 165.906 181.881V282.781Z" fill="white"/>
<path d="M157.688 147.969C155.262 147.969 153.288 149.599 153.288 151.602V162.091C153.288 164.095 155.262 165.725 157.688 165.725H257.312C259.738 165.725 261.712 164.095 261.712 162.091V151.602C261.712 149.599 259.738 147.969 257.312 147.969H157.688Z" fill="#3F3D56"/>
<path d="M178.142 269.843C177.003 269.847 175.912 270.301 175.106 271.106C174.301 271.911 173.847 273.003 173.844 274.141C173.847 275.28 174.301 276.372 175.106 277.177C175.912 277.982 177.003 278.436 178.142 278.439H186.187V269.843H178.142Z" fill="#3F3D56"/>
<path d="M193.571 269.843H185.746V278.439H193.571C194.709 278.436 195.801 277.982 196.606 277.177C197.411 276.372 197.865 275.28 197.869 274.141C197.865 273.003 197.411 271.911 196.606 271.106C195.801 270.301 194.709 269.847 193.571 269.843Z" fill="#38C6AC"/>
<path opacity="0.2" d="M196.375 270.896C197.053 271.673 197.427 272.669 197.428 273.701C197.424 274.839 196.97 275.931 196.165 276.736C195.36 277.541 194.269 277.995 193.13 277.999H185.746V278.439H193.571C194.709 278.436 195.801 277.982 196.606 277.177C197.411 276.372 197.865 275.28 197.869 274.141C197.868 273.525 197.734 272.916 197.476 272.356C197.218 271.796 196.843 271.298 196.375 270.896Z" fill="black"/>
<path d="M214.445 205.104C213.662 204.278 212.583 203.795 211.444 203.761C210.306 203.728 209.201 204.146 208.37 204.925C207.543 205.709 207.061 206.787 207.027 207.926C206.993 209.064 207.412 210.17 208.19 211.001L213.709 216.855L219.964 210.958L214.445 205.104Z" fill="#3F3D56"/>
<path d="M225.028 216.331L219.661 210.638L213.406 216.534L218.773 222.227C219.557 223.054 220.636 223.537 221.774 223.57C222.913 223.604 224.018 223.186 224.849 222.407C225.675 221.623 226.158 220.544 226.192 219.406C226.225 218.268 225.807 217.162 225.028 216.331Z" fill="#38C6AC"/>
<path opacity="0.2" d="M226.186 219.094C226.086 220.12 225.617 221.076 224.867 221.784C224.036 222.562 222.931 222.981 221.793 222.947C220.654 222.914 219.575 222.431 218.792 221.604L213.727 216.231L213.406 216.534L218.773 222.227C219.557 223.054 220.636 223.537 221.774 223.57C222.913 223.604 224.018 223.186 224.849 222.407C225.297 221.983 225.648 221.468 225.879 220.896C226.11 220.325 226.215 219.71 226.186 219.094Z" fill="black"/>
<path d="M191.546 218.657C190.762 217.831 189.683 217.348 188.545 217.314C187.406 217.281 186.301 217.699 185.47 218.478C184.644 219.261 184.161 220.34 184.127 221.479C184.094 222.617 184.512 223.722 185.291 224.553L190.809 230.408L197.064 224.511L191.546 218.657Z" fill="#3F3D56"/>
<path d="M202.129 229.884L196.761 224.19L190.506 230.087L195.874 235.78C196.657 236.607 197.736 237.09 198.874 237.123C200.013 237.157 201.118 236.739 201.949 235.96C202.776 235.176 203.258 234.097 203.292 232.959C203.326 231.821 202.907 230.715 202.129 229.884Z" fill="#38C6AC"/>
<path opacity="0.2" d="M203.286 232.647C203.186 233.673 202.717 234.629 201.968 235.337C201.137 236.115 200.031 236.534 198.893 236.5C197.754 236.466 196.676 235.984 195.892 235.157L190.827 229.784L190.506 230.087L195.874 235.78C196.657 236.607 197.736 237.09 198.874 237.123C200.013 237.157 201.118 236.739 201.949 235.96C202.397 235.536 202.748 235.021 202.979 234.449C203.21 233.878 203.315 233.263 203.286 232.647Z" fill="black"/>
<path d="M214.445 231.275C213.662 230.449 212.583 229.966 211.444 229.933C210.306 229.899 209.201 230.317 208.37 231.096C207.543 231.88 207.061 232.959 207.027 234.097C206.993 235.235 207.412 236.341 208.19 237.172L213.709 243.026L219.964 237.129L214.445 231.275Z" fill="#3F3D56"/>
<path d="M225.028 242.502L219.661 236.809L213.406 242.705L218.773 248.399C219.557 249.225 220.636 249.708 221.774 249.741C222.913 249.775 224.018 249.357 224.849 248.578C225.675 247.794 226.158 246.716 226.192 245.577C226.225 244.439 225.807 243.333 225.028 242.502Z" fill="#38C6AC"/>
<path opacity="0.2" d="M226.186 245.265C226.086 246.292 225.617 247.247 224.867 247.955C224.036 248.734 222.931 249.152 221.793 249.118C220.654 249.085 219.575 248.602 218.792 247.776L213.727 242.403L213.406 242.705L218.773 248.399C219.557 249.225 220.636 249.708 221.774 249.741C222.913 249.775 224.018 249.357 224.849 248.578C225.297 248.154 225.648 247.639 225.879 247.068C226.11 246.496 226.215 245.881 226.186 245.265Z" fill="black"/>
<path d="M228.415 258.132C229.232 257.339 229.702 256.254 229.722 255.115C229.741 253.977 229.31 252.876 228.521 252.055C227.727 251.238 226.643 250.768 225.504 250.749C224.365 250.729 223.265 251.161 222.444 251.949L216.657 257.538L222.629 263.721L228.415 258.132Z" fill="#3F3D56"/>
<path d="M217.318 268.851L222.946 263.415L216.974 257.232L211.346 262.668C210.529 263.462 210.06 264.546 210.04 265.685C210.02 266.824 210.452 267.924 211.241 268.745C212.034 269.562 213.119 270.032 214.257 270.052C215.396 270.071 216.496 269.64 217.318 268.851Z" fill="#38C6AC"/>
<path opacity="0.2" d="M214.569 270.042C213.542 269.954 212.581 269.497 211.864 268.756C211.075 267.935 210.643 266.834 210.663 265.696C210.683 264.557 211.153 263.472 211.969 262.679L217.28 257.549L216.974 257.232L211.346 262.668C210.529 263.462 210.06 264.546 210.04 265.685C210.02 266.824 210.452 267.924 211.241 268.745C211.67 269.188 212.189 269.533 212.763 269.757C213.338 269.981 213.954 270.078 214.569 270.042Z" fill="black"/>
<path d="M197.571 244.579C198.388 243.786 198.857 242.701 198.877 241.562C198.897 240.424 198.465 239.323 197.676 238.502C196.883 237.685 195.798 237.215 194.659 237.196C193.521 237.176 192.42 237.608 191.599 238.396L185.812 243.985L191.784 250.168L197.571 244.579Z" fill="#3F3D56"/>
<path d="M186.473 255.298L192.101 249.862L186.129 243.679L180.501 249.115C179.685 249.909 179.215 250.993 179.195 252.132C179.175 253.271 179.607 254.371 180.396 255.192C181.19 256.009 182.274 256.479 183.413 256.499C184.552 256.518 185.652 256.087 186.473 255.298Z" fill="#38C6AC"/>
<path opacity="0.2" d="M183.725 256.489C182.697 256.401 181.736 255.944 181.019 255.203C180.23 254.382 179.799 253.282 179.819 252.143C179.838 251.004 180.308 249.92 181.125 249.126L186.436 243.996L186.129 243.679L180.501 249.115C179.685 249.909 179.215 250.993 179.195 252.132C179.175 253.271 179.607 254.371 180.396 255.192C180.825 255.635 181.344 255.98 181.919 256.204C182.493 256.428 183.109 256.525 183.725 256.489Z" fill="black"/>
<path d="M241.501 228.222C242.318 227.429 242.787 226.344 242.807 225.205C242.827 224.067 242.395 222.966 241.606 222.145C240.813 221.328 239.728 220.858 238.59 220.839C237.451 220.819 236.351 221.251 235.529 222.039L229.743 227.628L235.714 233.811L241.501 228.222Z" fill="#3F3D56"/>
<path d="M230.403 238.941L236.031 233.505L230.06 227.322L224.432 232.758C223.615 233.552 223.145 234.636 223.125 235.775C223.106 236.914 223.537 238.014 224.326 238.835C225.12 239.652 226.204 240.122 227.343 240.142C228.482 240.161 229.582 239.73 230.403 238.941Z" fill="#38C6AC"/>
<path opacity="0.2" d="M227.655 240.132C226.627 240.044 225.667 239.587 224.949 238.846C224.161 238.025 223.729 236.925 223.749 235.786C223.769 234.647 224.238 233.563 225.055 232.769L230.366 227.639L230.06 227.322L224.432 232.758C223.615 233.552 223.145 234.636 223.125 235.775C223.106 236.914 223.537 238.014 224.326 238.835C224.755 239.278 225.275 239.623 225.849 239.847C226.424 240.071 227.039 240.168 227.655 240.132Z" fill="black"/>
<path d="M231.737 262.12C230.953 261.294 229.875 260.811 228.736 260.777C227.598 260.744 226.492 261.162 225.661 261.941C224.835 262.724 224.352 263.803 224.319 264.941C224.285 266.08 224.703 267.185 225.482 268.016L231 273.87L237.255 267.974L231.737 262.12Z" fill="#3F3D56"/>
<path d="M242.32 273.347L236.953 267.653L230.698 273.55L236.065 279.243C236.849 280.07 237.927 280.552 239.066 280.586C240.204 280.62 241.31 280.201 242.141 279.423C242.967 278.639 243.45 277.56 243.483 276.422C243.517 275.283 243.099 274.178 242.32 273.347Z" fill="#38C6AC"/>
<path opacity="0.2" d="M243.478 276.11C243.377 277.136 242.909 278.091 242.159 278.799C241.328 279.578 240.223 279.997 239.084 279.963C237.946 279.929 236.867 279.447 236.083 278.62L231.019 273.247L230.698 273.55L236.065 279.243C236.849 280.07 237.927 280.552 239.066 280.586C240.204 280.62 241.31 280.201 242.141 279.423C242.589 278.999 242.94 278.484 243.171 277.912C243.401 277.34 243.506 276.726 243.478 276.11Z" fill="black"/>
<path d="M201.36 261.653C200.576 260.826 199.497 260.344 198.359 260.31C197.221 260.276 196.115 260.695 195.284 261.473C194.458 262.257 193.975 263.336 193.941 264.474C193.908 265.613 194.326 266.718 195.105 267.549L200.623 273.403L206.878 267.507L201.36 261.653Z" fill="#3F3D56"/>
<path d="M211.943 272.88L206.576 267.186L200.321 273.082L205.688 278.776C206.471 279.602 207.55 280.085 208.689 280.119C209.827 280.152 210.932 279.734 211.763 278.955C212.59 278.172 213.073 277.093 213.106 275.954C213.14 274.816 212.722 273.711 211.943 272.88Z" fill="#38C6AC"/>
<path opacity="0.2" d="M213.101 275.642C213 276.669 212.532 277.624 211.782 278.332C210.951 279.111 209.845 279.529 208.707 279.496C207.569 279.462 206.49 278.979 205.706 278.153L200.641 272.78L200.321 273.082L205.688 278.776C206.471 279.602 207.55 280.085 208.689 280.119C209.827 280.152 210.932 279.734 211.763 278.955C212.211 278.532 212.563 278.016 212.793 277.445C213.024 276.873 213.129 276.258 213.101 275.642Z" fill="black"/>
<path d="M209.91 246.233C209.911 247.662 209.417 249.048 208.514 250.154C207.61 251.261 206.352 252.022 204.952 252.308C204.134 252.473 203.291 252.473 202.472 252.308C201.072 252.022 199.814 251.261 198.911 250.154C198.007 249.047 197.514 247.662 197.514 246.233C197.514 244.805 198.007 243.42 198.911 242.313C199.814 241.206 201.072 240.445 202.472 240.159C203.291 239.994 204.134 239.994 204.952 240.159C206.352 240.445 207.61 241.206 208.514 242.312C209.417 243.419 209.911 244.805 209.91 246.233Z" fill="#38C6AC"/>
<path opacity="0.2" d="M204.952 240.159V252.308C204.134 252.473 203.291 252.473 202.472 252.308V240.159C203.291 239.994 204.134 239.994 204.952 240.159Z" fill="black"/>
<path d="M212.714 221.464C212.715 222.893 212.221 224.278 211.318 225.385C210.414 226.492 209.156 227.253 207.756 227.539C206.938 227.704 206.095 227.704 205.276 227.539C203.876 227.253 202.618 226.492 201.715 225.385C200.811 224.278 200.318 222.893 200.318 221.464C200.318 220.035 200.811 218.65 201.715 217.544C202.618 216.437 203.876 215.676 205.276 215.39C206.095 215.225 206.938 215.225 207.756 215.39C209.156 215.676 210.414 216.436 211.318 217.543C212.221 218.65 212.715 220.035 212.714 221.464Z" fill="#38C6AC"/>
<path opacity="0.2" d="M207.756 215.39V227.539C206.938 227.704 206.095 227.704 205.276 227.539V215.39C206.095 215.225 206.938 215.225 207.756 215.39Z" fill="black"/>
<path d="M212.714 256.982C212.715 258.411 212.221 259.796 211.318 260.903C210.414 262.01 209.156 262.771 207.756 263.057C206.938 263.222 206.095 263.222 205.276 263.057C203.876 262.771 202.618 262.01 201.715 260.903C200.811 259.796 200.318 258.411 200.318 256.982C200.318 255.553 200.811 254.168 201.715 253.062C202.618 251.955 203.876 251.194 205.276 250.908C206.095 250.743 206.938 250.743 207.756 250.908C209.156 251.194 210.414 251.954 211.318 253.061C212.221 254.168 212.715 255.553 212.714 256.982Z" fill="#38C6AC"/>
<path opacity="0.2" d="M207.756 250.908V263.057C206.938 263.222 206.095 263.222 205.276 263.057V250.908C206.095 250.743 206.938 250.743 207.756 250.908Z" fill="black"/>
<path d="M228.137 274.274C228.137 275.703 227.644 277.088 226.74 278.195C225.836 279.302 224.578 280.063 223.178 280.348C222.36 280.514 221.517 280.514 220.699 280.348C219.299 280.062 218.041 279.302 217.137 278.195C216.233 277.088 215.74 275.703 215.74 274.274C215.74 272.845 216.233 271.46 217.137 270.353C218.041 269.246 219.299 268.486 220.699 268.2C221.517 268.034 222.36 268.034 223.178 268.2C224.578 268.485 225.836 269.246 226.74 270.353C227.644 271.46 228.137 272.845 228.137 274.274Z" fill="#38C6AC"/>
<path opacity="0.2" d="M223.178 268.2V280.348C222.36 280.514 221.517 280.514 220.699 280.348V268.2C221.517 268.034 222.36 268.034 223.178 268.2Z" fill="black"/>
<path d="M241.761 242.459C242.79 243.451 243.445 244.767 243.614 246.186C243.784 247.605 243.459 249.039 242.693 250.245C242.244 250.949 241.659 251.556 240.972 252.03C239.795 252.84 238.374 253.218 236.95 253.1C235.526 252.983 234.186 252.377 233.157 251.385C232.129 250.394 231.474 249.077 231.304 247.658C231.134 246.24 231.46 244.806 232.225 243.599C232.674 242.895 233.259 242.289 233.946 241.814C235.123 241.004 236.544 240.626 237.968 240.744C239.392 240.862 240.732 241.468 241.761 242.459Z" fill="#38C6AC"/>
<path opacity="0.2" d="M233.946 241.814L242.693 250.245C242.244 250.949 241.659 251.556 240.972 252.03L232.225 243.599C232.674 242.895 233.259 242.289 233.946 241.814Z" fill="black"/>
<path d="M243.63 256.012C244.659 257.004 245.314 258.32 245.484 259.739C245.654 261.158 245.328 262.592 244.562 263.798C244.114 264.502 243.529 265.109 242.842 265.583C241.664 266.393 240.243 266.771 238.819 266.653C237.395 266.535 236.056 265.93 235.027 264.938C233.998 263.946 233.343 262.63 233.173 261.211C233.004 259.793 233.329 258.359 234.094 257.152C234.543 256.448 235.128 255.841 235.815 255.367C236.992 254.557 238.413 254.179 239.838 254.297C241.262 254.414 242.601 255.02 243.63 256.012Z" fill="#38C6AC"/>
<path opacity="0.2" d="M235.815 255.367L244.562 263.798C244.114 264.502 243.529 265.109 242.842 265.583L234.094 257.152C234.543 256.448 235.128 255.841 235.815 255.367Z" fill="black"/>
<path d="M188.016 259.284C189.045 260.275 189.7 261.592 189.87 263.01C190.04 264.429 189.714 265.863 188.949 267.07C188.5 267.773 187.915 268.38 187.228 268.855C186.051 269.664 184.63 270.042 183.206 269.924C181.782 269.807 180.442 269.201 179.413 268.209C178.384 267.218 177.73 265.901 177.56 264.483C177.39 263.064 177.715 261.63 178.481 260.424C178.93 259.72 179.515 259.113 180.201 258.638C181.379 257.829 182.8 257.451 184.224 257.568C185.648 257.686 186.988 258.292 188.016 259.284Z" fill="#38C6AC"/>
<path opacity="0.2" d="M180.201 258.638L188.949 267.07C188.5 267.773 187.915 268.38 187.228 268.855L178.481 260.424C178.93 259.72 179.515 259.113 180.201 258.638Z" fill="black"/>
<path opacity="0.2" d="M168.01 147.969H165.673V165.26H168.01V147.969Z" fill="black"/>
<path opacity="0.2" d="M181.562 147.969H179.226V165.26H181.562V147.969Z" fill="black"/>
<path opacity="0.2" d="M195.115 147.969H192.779V165.26H195.115V147.969Z" fill="black"/>
<path opacity="0.2" d="M208.668 147.969H206.332V165.26H208.668V147.969Z" fill="black"/>
<path opacity="0.2" d="M222.221 147.969H219.885V165.26H222.221V147.969Z" fill="black"/>
<path opacity="0.2" d="M235.774 147.969H233.437V165.26H235.774V147.969Z" fill="black"/>
<path opacity="0.2" d="M249.327 147.969H246.99V165.26H249.327V147.969Z" fill="black"/>
</g>
<defs>
<clipPath id="clip0_1_255">
<rect width="415" height="288.867" fill="white" transform="translate(0 0.238892)"/>
</clipPath>
</defs>
</svg>
