<svg width="428" height="422" viewBox="0 0 428 422" fill="none" xmlns="http://www.w3.org/2000/svg">
<g clip-path="url(#clip0_1_136)">
<path d="M212.895 206.005C225.102 206.005 234.998 196.109 234.998 183.902C234.998 171.695 225.102 161.799 212.895 161.799C200.688 161.799 190.792 171.695 190.792 183.902C190.792 196.109 200.688 206.005 212.895 206.005Z" fill="#E6E6E6"/>
<path d="M267.065 212.305L243.967 189.208C245.737 186.454 246.937 183.372 247.495 180.146C248.053 176.92 247.958 173.615 247.215 170.427C246.472 167.238 245.097 164.231 243.171 161.584C241.244 158.936 238.806 156.703 236.001 155.015C230.719 151.859 224.444 150.802 218.42 152.054C212.395 153.305 207.06 156.774 203.472 161.772C200.17 166.402 198.584 172.038 198.987 177.71C199.389 183.383 201.756 188.738 205.679 192.854C209.602 196.971 214.837 199.593 220.484 200.268C226.13 200.943 231.836 199.631 236.619 196.555L259.717 219.653C260.692 220.626 262.013 221.173 263.39 221.173C264.768 221.172 266.089 220.625 267.063 219.651C268.037 218.677 268.584 217.356 268.584 215.978C268.585 214.601 268.038 213.28 267.065 212.305ZM235.757 188.345C232.895 191.207 229.129 192.988 225.101 193.385C221.073 193.782 217.032 192.77 213.667 190.521C210.301 188.273 207.82 184.927 206.645 181.053C205.47 177.18 205.674 173.019 207.223 169.28C208.772 165.541 211.57 162.454 215.139 160.546C218.709 158.638 222.829 158.027 226.799 158.816C230.769 159.606 234.342 161.748 236.91 164.876C239.477 168.005 240.881 171.927 240.881 175.975C240.884 178.273 240.433 180.548 239.553 182.671C238.674 184.794 237.384 186.723 235.757 188.345Z" fill="#3F3D56"/>
<path d="M434.497 246.376C493.567 311.701 322.334 405.843 183.973 405.843C45.6122 405.843 -50.1119 332.899 -66.5514 246.376C-106.412 36.5853 273.068 -96.7564 183.973 86.9082C54.1069 354.621 387.979 194.931 434.497 246.376Z" fill="#38C6AC"/>
<path d="M407.994 261.836C467.064 327.161 295.83 421.304 157.469 421.304C19.1087 421.304 -76.6154 348.36 -93.055 261.836C-132.915 52.0457 246.564 -81.296 157.469 102.369C27.6034 370.081 361.475 210.391 407.994 261.836Z" fill="#3F3D56"/>
<path d="M-2.77741 73.2164C-0.0328808 73.2164 2.192 70.9915 2.192 68.247C2.192 65.5025 -0.0328808 63.2776 -2.77741 63.2776C-5.52194 63.2776 -7.74683 65.5025 -7.74683 68.247C-7.74683 70.9915 -5.52194 73.2164 -2.77741 73.2164Z" fill="white"/>
<path d="M96.6502 84.4236C99.6996 84.4236 102.172 81.9516 102.172 78.9022C102.172 75.8528 99.6996 73.3808 96.6502 73.3808C93.6008 73.3808 91.1288 75.8528 91.1288 78.9022C91.1288 81.9516 93.6008 84.4236 96.6502 84.4236Z" fill="#91A0F6"/>
<path d="M203.769 367.128C205.598 367.128 207.082 365.645 207.082 363.815C207.082 361.986 205.598 360.502 203.769 360.502C201.939 360.502 200.456 361.986 200.456 363.815C200.456 365.645 201.939 367.128 203.769 367.128Z" fill="#E6E6E6"/>
<path d="M124.81 313.017C125.725 313.017 126.467 312.275 126.467 311.36C126.467 310.445 125.725 309.704 124.81 309.704C123.895 309.704 123.154 310.445 123.154 311.36C123.154 312.275 123.895 313.017 124.81 313.017Z" fill="#E6E6E6"/>
<path d="M373.833 297.004C374.748 297.004 375.49 296.263 375.49 295.348C375.49 294.433 374.748 293.691 373.833 293.691C372.918 293.691 372.177 294.433 372.177 295.348C372.177 296.263 372.918 297.004 373.833 297.004Z" fill="#E6E6E6"/>
<path d="M295.979 346.146C296.894 346.146 297.635 345.405 297.635 344.49C297.635 343.575 296.894 342.833 295.979 342.833C295.064 342.833 294.322 343.575 294.322 344.49C294.322 345.405 295.064 346.146 295.979 346.146Z" fill="#E6E6E6"/>
<path d="M214.812 286.513C215.727 286.513 216.468 285.772 216.468 284.857C216.468 283.942 215.727 283.2 214.812 283.2C213.897 283.2 213.155 283.942 213.155 284.857C213.155 285.772 213.897 286.513 214.812 286.513Z" fill="#E6E6E6"/>
<path d="M109.902 123.075C110.817 123.075 111.558 122.333 111.558 121.418C111.558 120.503 110.817 119.762 109.902 119.762C108.987 119.762 108.245 120.503 108.245 121.418C108.245 122.333 108.987 123.075 109.902 123.075Z" fill="#E6E6E6"/>
<path d="M123.154 41.3556C124.069 41.3556 124.81 40.6139 124.81 39.6991C124.81 38.7842 124.069 38.0425 123.154 38.0425C122.239 38.0425 121.497 38.7842 121.497 39.6991C121.497 40.6139 122.239 41.3556 123.154 41.3556Z" fill="#E6E6E6"/>
<path d="M115.424 385.349C116.338 385.349 117.08 384.608 117.08 383.693C117.08 382.778 116.338 382.036 115.424 382.036C114.509 382.036 113.767 382.778 113.767 383.693C113.767 384.608 114.509 385.349 115.424 385.349Z" fill="#E6E6E6"/>
<path d="M33.7044 350.564C34.6192 350.564 35.3609 349.822 35.3609 348.907C35.3609 347.992 34.6192 347.251 33.7044 347.251C32.7895 347.251 32.0479 347.992 32.0479 348.907C32.0479 349.822 32.7895 350.564 33.7044 350.564Z" fill="#E6E6E6"/>
<path d="M292.666 290.931C293.581 290.931 294.323 290.189 294.323 289.274C294.323 288.359 293.581 287.618 292.666 287.618C291.751 287.618 291.01 288.359 291.01 289.274C291.01 290.189 291.751 290.931 292.666 290.931Z" fill="#E6E6E6"/>
<path d="M98.3067 200.377C98.3067 215.219 75.3594 249.804 68.6533 259.594C68.451 259.89 68.1795 260.132 67.8625 260.299C67.5454 260.467 67.1923 260.554 66.8338 260.554C66.4753 260.554 66.1222 260.467 65.8051 260.299C65.488 260.132 65.2166 259.89 65.0142 259.594C58.3082 249.804 35.3608 215.219 35.3608 200.377C35.3608 196.244 36.1749 192.151 37.7566 188.333C39.3382 184.514 41.6565 181.045 44.5791 178.122C47.5016 175.2 50.9711 172.881 54.7896 171.3C58.6081 169.718 62.7007 168.904 66.8338 168.904C70.9669 168.904 75.0595 169.718 78.878 171.3C82.6964 172.881 86.166 175.2 89.0885 178.122C92.0111 181.045 94.3293 184.514 95.911 188.333C97.4927 192.151 98.3067 196.244 98.3067 200.377Z" fill="white"/>
<path d="M66.8338 214.181C75.6773 214.181 82.8464 207.012 82.8464 198.168C82.8464 189.325 75.6773 182.156 66.8338 182.156C57.9904 182.156 50.8213 189.325 50.8213 198.168C50.8213 207.012 57.9904 214.181 66.8338 214.181Z" fill="#91A0F6"/>
<path d="M66.5577 277.679C76.7734 277.679 85.0549 276.072 85.0549 274.09C85.0549 272.108 76.7734 270.501 66.5577 270.501C56.3419 270.501 48.0604 272.108 48.0604 274.09C48.0604 276.072 56.3419 277.679 66.5577 277.679Z" fill="white"/>
<path d="M355.031 175.542C354.891 175.813 354.773 176.095 354.677 176.385L328.294 183.716L323.539 179.064L315.579 185.321L323.196 194.376C323.811 195.108 324.647 195.62 325.578 195.836C326.509 196.052 327.486 195.96 328.36 195.574L356.86 182.993C357.827 183.664 358.976 184.025 360.153 184.027C361.33 184.03 362.48 183.674 363.449 183.007C364.419 182.34 365.163 181.394 365.582 180.294C366.001 179.194 366.075 177.993 365.794 176.85C365.514 175.707 364.892 174.676 364.011 173.895C363.131 173.114 362.033 172.62 360.865 172.478C359.696 172.336 358.512 172.553 357.47 173.1C356.428 173.647 355.578 174.499 355.031 175.542Z" fill="#FFB8B8"/>
<path d="M327.364 184.146L317.461 191.854C317.179 192.073 316.853 192.229 316.506 192.311C316.158 192.393 315.797 192.4 315.447 192.33C315.097 192.259 314.766 192.115 314.477 191.905C314.188 191.696 313.947 191.426 313.772 191.116L307.617 180.223C306.503 178.775 306.008 176.944 306.242 175.132C306.476 173.32 307.418 171.675 308.863 170.557C310.308 169.439 312.138 168.94 313.95 169.169C315.763 169.398 317.411 170.336 318.533 171.778L327.554 180.388C327.812 180.635 328.014 180.934 328.146 181.266C328.278 181.598 328.337 181.954 328.319 182.311C328.301 182.667 328.207 183.016 328.042 183.333C327.877 183.649 327.646 183.927 327.364 184.146Z" fill="#91A0F6"/>
<path d="M357.561 171.896L367.604 176.414C368.024 176.603 368.353 176.952 368.516 177.383C368.68 177.814 368.665 178.293 368.476 178.713L367.287 181.356C367.427 181.419 367.536 181.536 367.591 181.679C367.645 181.823 367.641 181.982 367.578 182.122L367.102 183.179C367.039 183.319 366.923 183.428 366.779 183.483C366.636 183.537 366.476 183.533 366.336 183.47L365.86 184.527C366 184.591 366.109 184.707 366.164 184.85C366.218 184.994 366.214 185.153 366.151 185.294L365.676 186.351C365.612 186.491 365.496 186.6 365.352 186.654C365.209 186.709 365.049 186.704 364.909 186.642L358.489 200.913C358.299 201.333 357.951 201.661 357.52 201.825C357.088 201.989 356.61 201.974 356.189 201.785L346.147 197.267C345.726 197.077 345.398 196.729 345.234 196.298C345.071 195.867 345.085 195.388 345.274 194.968L355.262 172.768C355.451 172.347 355.8 172.019 356.231 171.856C356.662 171.692 357.141 171.707 357.561 171.896Z" fill="#3F3D56"/>
<path d="M347.97 195.861L356.026 199.489C356.43 199.669 356.889 199.683 357.303 199.526C357.716 199.37 358.051 199.057 358.235 198.654L361.956 190.378L363.248 187.509L366.616 180.02C366.796 179.617 366.809 179.16 366.652 178.747C366.496 178.334 366.183 178 365.781 177.818L363.248 176.676L357.719 174.19C357.315 174.009 356.857 173.997 356.444 174.154C356.031 174.312 355.697 174.627 355.517 175.03L352.259 182.269L348.55 190.511L347.136 193.658C346.955 194.061 346.942 194.519 347.098 194.932C347.254 195.345 347.568 195.678 347.97 195.861Z" fill="#F2F2F2"/>
<path d="M331.136 298.409L337.905 298.409L341.126 272.298L331.135 272.299L331.136 298.409Z" fill="#FFB8B8"/>
<path d="M329.41 296.199L342.741 296.199C343.856 296.199 344.962 296.418 345.992 296.845C347.023 297.272 347.96 297.898 348.749 298.687C349.538 299.476 350.163 300.412 350.59 301.443C351.017 302.474 351.237 303.579 351.237 304.694V304.97L329.41 304.971L329.41 296.199Z" fill="#2F2E41"/>
<path d="M348.805 296.753L355.574 296.752L358.795 270.642L348.804 270.643L348.805 296.753Z" fill="#FFB8B8"/>
<path d="M347.079 294.543L360.41 294.542C361.525 294.542 362.631 294.762 363.662 295.189C364.692 295.616 365.629 296.242 366.418 297.031C367.207 297.819 367.832 298.756 368.259 299.787C368.686 300.817 368.906 301.922 368.906 303.038V303.314L347.079 303.315L347.079 294.543Z" fill="#2F2E41"/>
<path d="M300.772 237.139C302.214 241.415 304.95 245.136 308.6 247.788C312.25 250.44 316.635 251.892 321.146 251.943L321.489 251.948C324.984 252.048 329.086 250.921 333.112 249.303C341.063 246.106 348.699 240.988 350.725 239.58L347.291 272.593L345.9 285.978C345.864 286.324 345.902 286.674 346.01 287.005C346.119 287.335 346.295 287.64 346.528 287.898C346.761 288.157 347.046 288.364 347.363 288.505C347.681 288.647 348.025 288.721 348.373 288.722H356.948C357.498 288.722 358.033 288.54 358.468 288.205C358.904 287.869 359.216 287.398 359.355 286.867L373.513 232.949C373.938 231.335 373.972 229.643 373.613 228.013C373.253 226.384 372.511 224.863 371.448 223.577C370.384 222.291 369.03 221.277 367.496 220.618C365.963 219.96 364.295 219.676 362.63 219.791L333.222 221.806L335.276 213.59L309.026 211.845L308.949 211.9C308.32 212.359 307.707 212.839 307.122 213.341C305.658 214.579 304.361 216.001 303.262 217.571C301.296 220.389 300.042 223.641 299.609 227.049C299.175 230.457 299.574 233.919 300.772 237.139Z" fill="#2F2E41"/>
<path d="M300.772 237.139C302.214 241.415 304.95 245.136 308.6 247.788C312.25 250.44 316.635 251.892 321.146 251.943C325.461 249.759 329.624 247.289 333.608 244.549L333.112 249.303L328.783 290.947C328.748 291.293 328.785 291.643 328.894 291.974C329.002 292.305 329.178 292.609 329.411 292.868C329.644 293.126 329.929 293.333 330.247 293.475C330.564 293.617 330.908 293.691 331.256 293.691H339.831C340.381 293.692 340.916 293.51 341.351 293.174C341.787 292.838 342.099 292.368 342.239 291.836L347.291 272.593L356.396 237.918C356.821 236.304 356.855 234.612 356.496 232.983C356.137 231.353 355.395 229.832 354.331 228.546C353.267 227.26 351.913 226.246 350.379 225.588C348.846 224.929 347.178 224.646 345.513 224.76L316.105 226.775L318.159 218.559L303.262 217.571C301.296 220.389 300.042 223.641 299.609 227.049C299.175 230.457 299.574 233.919 300.772 237.139Z" fill="#2F2E41"/>
<path d="M307.084 215.246L306.887 215.222L302.306 192.703C302.267 192.507 298.523 173.083 310.002 162.928L310.201 161.538C310.253 161.182 310.38 160.842 310.576 160.541C310.771 160.239 311.03 159.983 311.333 159.791C311.637 159.599 311.979 159.476 312.335 159.429C312.691 159.381 313.054 159.412 313.397 159.519L324.211 162.873C324.823 163.061 325.338 163.479 325.649 164.04C325.96 164.6 326.042 165.258 325.878 165.878L324.826 169.876C326.284 171.588 343.442 192.245 337.465 208.16L334.789 218.624L307.084 215.246Z" fill="#38C6AC"/>
<path d="M351.986 197.671C351.727 197.833 351.482 198.016 351.252 198.217L324.805 191.118L323.076 184.694L313.04 186.036L314.996 197.706C315.154 198.648 315.614 199.514 316.306 200.174C316.998 200.833 317.885 201.25 318.834 201.362L349.773 205.017C350.264 206.087 351.07 206.981 352.082 207.582C353.094 208.182 354.265 208.46 355.439 208.379C356.614 208.298 357.735 207.861 358.655 207.127C359.575 206.393 360.25 205.396 360.589 204.269C360.929 203.142 360.917 201.938 360.556 200.818C360.194 199.698 359.501 198.714 358.567 197.998C357.633 197.281 356.503 196.866 355.327 196.808C354.152 196.75 352.986 197.05 351.986 197.671Z" fill="#FFB8B8"/>
<path d="M323.786 191.015L311.34 192.618C310.986 192.664 310.626 192.633 310.285 192.527C309.944 192.421 309.63 192.243 309.364 192.004C309.098 191.766 308.887 191.473 308.744 191.146C308.602 190.818 308.531 190.464 308.538 190.107L308.775 177.598C308.552 175.785 309.057 173.957 310.18 172.516C311.302 171.074 312.95 170.137 314.763 169.909C316.575 169.68 318.404 170.181 319.849 171.299C321.293 172.417 322.235 174.063 322.468 175.875L325.86 187.876C325.957 188.219 325.979 188.58 325.924 188.933C325.869 189.286 325.739 189.622 325.542 189.92C325.345 190.218 325.086 190.47 324.783 190.659C324.48 190.848 324.14 190.97 323.786 191.015Z" fill="#38C6AC"/>
<path d="M320.283 156.462C327.772 156.462 333.844 150.39 333.844 142.9C333.844 135.41 327.772 129.339 320.283 129.339C312.793 129.339 306.721 135.41 306.721 142.9C306.721 150.39 312.793 156.462 320.283 156.462Z" fill="#FFB8B8"/>
<path d="M319.569 144.033L317.871 140.941C314.655 154.045 320.336 164.89 320.336 164.89L298.287 154.619L298.497 150.975L296.315 153.451L293.18 151.723L292.766 149.36L290.4 149.946L299.038 134.272C307.421 119.356 319.608 125.051 319.608 125.051C338.998 124.129 336.63 143.258 336.63 143.258L319.569 144.033Z" fill="#2F2E41"/>
<path d="M165.192 245.095C168.319 243.091 164.517 231.58 156.699 219.386C148.882 207.191 140.01 198.931 136.883 200.935C133.756 202.94 137.559 214.45 145.376 226.645C153.194 238.839 162.066 247.1 165.192 245.095Z" fill="#3F3D56"/>
</g>
<defs>
<clipPath id="clip0_1_136">
<rect width="542.487" height="421.304" fill="white" transform="translate(-96)"/>
</clipPath>
</defs>
</svg>
