<svg width="351" height="277" viewBox="0 0 351 277" fill="none" xmlns="http://www.w3.org/2000/svg">
<g clip-path="url(#clip0_1_186)">
<path d="M84.2213 149.819C81.4216 134.835 85.8295 117.788 98.081 108.718C97.3866 125.28 102.573 141.554 112.723 154.661C116.655 159.702 121.554 164.898 121.402 171.29C121.307 175.267 119.156 178.971 116.322 181.762C113.488 184.554 109.996 186.566 106.547 188.547L106.01 189.382C95.8971 177.976 87.0211 164.804 84.2213 149.819Z" fill="#91A0F6"/>
<path d="M98.3042 108.947C93.157 120.467 91.7703 133.315 94.3413 145.668C94.8475 148.337 95.7713 150.91 97.0787 153.291C98.4271 155.57 100.361 157.446 102.68 158.724C104.818 159.96 107.148 160.976 108.948 162.709C109.857 163.61 110.565 164.693 111.025 165.887C111.486 167.081 111.689 168.358 111.621 169.636C111.535 172.824 110.308 175.791 109.008 178.651C107.564 181.826 106.014 185.102 106.108 188.672C106.119 189.104 105.447 189.097 105.436 188.665C105.273 182.454 109.763 177.465 110.764 171.506C111.231 168.725 110.862 165.786 108.907 163.631C107.198 161.746 104.796 160.696 102.62 159.464C100.34 158.25 98.3915 156.496 96.9453 154.355C95.521 152.048 94.4996 149.516 93.9249 146.866C92.5361 140.921 92.0906 134.794 92.6049 128.711C93.1533 121.765 94.8859 114.964 97.7277 108.602C97.9037 108.208 98.4791 108.556 98.3042 108.947Z" fill="white"/>
<path d="M93.2793 141.739C91.1482 141.889 89.0332 141.277 87.312 140.011C85.5908 138.746 84.3754 136.91 83.883 134.831C83.7848 134.41 84.4343 134.238 84.5327 134.659C84.9877 136.596 86.12 138.306 87.7252 139.481C89.3304 140.656 91.3027 141.219 93.2863 141.067C93.7174 141.035 93.7079 141.707 93.2793 141.739Z" fill="white"/>
<path d="M101.513 158.241C104.406 154.969 105.96 150.727 105.864 146.361C105.855 145.929 106.526 145.936 106.536 146.368C106.627 150.912 105.001 155.323 101.983 158.721C101.696 159.044 101.227 158.562 101.513 158.241Z" fill="white"/>
<path d="M93.9404 122.182C94.7771 122.296 95.6289 122.2 96.4193 121.903C97.2098 121.606 97.9142 121.118 98.4692 120.482C98.7529 120.155 99.2211 120.637 98.9393 120.962C98.3228 121.662 97.5442 122.2 96.6716 122.53C95.799 122.86 94.8588 122.971 93.9333 122.854C93.8452 122.85 93.7618 122.813 93.7 122.75C93.6383 122.687 93.6029 122.603 93.601 122.514C93.6023 122.425 93.6388 122.341 93.7023 122.278C93.7659 122.216 93.8515 122.181 93.9404 122.182Z" fill="white"/>
<path d="M148.183 121.112C148.011 121.321 147.84 121.531 147.67 121.745C145.382 124.571 143.327 127.579 141.525 130.737C141.382 130.979 141.241 131.227 141.105 131.472C136.846 139.129 134.046 147.51 132.846 156.188C132.372 159.642 132.161 163.127 132.216 166.613C132.292 171.427 132.757 176.641 131.281 181.068C131.132 181.532 130.955 181.986 130.75 182.428L107.07 189.972C107.008 189.963 106.947 189.958 106.884 189.948L105.953 190.293C105.937 190.113 105.925 189.927 105.91 189.747C105.9 189.643 105.896 189.537 105.887 189.433C105.882 189.363 105.878 189.293 105.87 189.23C105.868 189.207 105.867 189.183 105.867 189.166C105.859 189.103 105.858 189.043 105.852 188.986C105.781 187.943 105.716 186.899 105.662 185.851C105.66 185.845 105.66 185.845 105.664 185.838C105.257 177.856 105.514 169.771 106.989 161.981C107.034 161.746 107.076 161.507 107.131 161.269C107.816 157.761 108.786 154.315 110.032 150.966C110.72 149.134 111.501 147.338 112.37 145.585C114.626 141.06 117.58 136.917 121.123 133.31C128.188 126.12 137.473 121.269 147.422 121.116C147.677 121.113 147.926 121.11 148.183 121.112Z" fill="#91A0F6"/>
<path d="M148.225 121.43C137.18 127.528 128.337 136.953 122.952 148.363C121.749 150.799 120.938 153.41 120.548 156.098C120.253 158.729 120.668 161.392 121.75 163.808C122.713 166.082 123.961 168.296 124.355 170.764C124.538 172.031 124.451 173.322 124.1 174.552C123.749 175.782 123.142 176.925 122.319 177.904C120.33 180.398 117.565 182.028 114.804 183.529C111.74 185.195 108.53 186.877 106.456 189.784C106.204 190.136 105.673 189.725 105.924 189.373C109.533 184.316 116.122 183.037 120.509 178.881C122.556 176.942 124.031 174.374 123.768 171.475C123.537 168.941 122.252 166.657 121.256 164.363C120.167 162.021 119.667 159.447 119.801 156.868C120.053 154.168 120.762 151.531 121.899 149.069C124.369 143.486 127.702 138.326 131.775 133.779C136.395 128.563 141.873 124.176 147.973 120.807C148.35 120.599 148.6 121.223 148.225 121.43Z" fill="white"/>
<path d="M124.47 144.587C122.678 143.424 121.358 141.661 120.745 139.615C120.133 137.568 120.268 135.37 121.126 133.414C121.302 133.019 121.924 133.272 121.749 133.668C120.946 135.488 120.82 137.536 121.395 139.44C121.969 141.345 123.205 142.982 124.88 144.055C125.243 144.289 124.831 144.819 124.47 144.587Z" fill="white"/>
<path d="M121.109 162.72C125.389 161.85 129.183 159.398 131.735 155.855C131.988 155.503 132.52 155.914 132.268 156.265C129.605 159.947 125.651 162.49 121.196 163.386C120.771 163.471 120.687 162.805 121.109 162.72Z" fill="white"/>
<path d="M136.772 129.37C137.372 129.964 138.11 130.401 138.92 130.64C139.729 130.879 140.586 130.913 141.412 130.739C141.836 130.648 141.919 131.315 141.498 131.405C140.585 131.593 139.639 131.554 138.743 131.292C137.848 131.03 137.031 130.553 136.362 129.902C136.294 129.846 136.25 129.766 136.239 129.678C136.227 129.591 136.25 129.502 136.301 129.431C136.356 129.361 136.436 129.315 136.524 129.303C136.612 129.292 136.702 129.316 136.772 129.37Z" fill="white"/>
<path d="M185.378 39.1721C185.458 39.5209 185.509 39.8753 185.533 40.2322L213.297 56.2491L220.045 52.3641L227.24 61.7824L215.961 69.8209C215.05 70.4703 213.953 70.8066 212.834 70.7794C211.716 70.7521 210.636 70.3628 209.758 69.6698L181.128 47.0839C179.836 47.5621 178.429 47.6357 177.095 47.2948C175.76 46.9539 174.56 46.2147 173.656 45.1755C172.751 44.1362 172.185 42.8463 172.031 41.4771C171.878 40.108 172.145 38.7246 172.797 37.5109C173.449 36.2972 174.455 35.3107 175.681 34.6828C176.907 34.0548 178.296 33.815 179.661 33.9954C181.027 34.1757 182.306 34.7676 183.327 35.6924C184.348 36.6171 185.064 37.8308 185.378 39.1721Z" fill="#FFB6B6"/>
<path d="M213.682 54.4806C213.77 54.0721 213.946 53.6873 214.196 53.3526C214.446 53.0179 214.766 52.7412 215.133 52.5413L227.951 45.5573C229.658 44.269 231.806 43.7102 233.925 44.0035C236.043 44.2967 237.959 45.4181 239.251 47.1217C240.544 48.8253 241.108 50.9721 240.821 53.0912C240.533 55.2103 239.417 57.1288 237.716 58.426L227.443 68.8626C227.15 69.1604 226.796 69.3915 226.405 69.5402C226.015 69.6889 225.596 69.7517 225.179 69.7243C224.762 69.6969 224.356 69.5799 223.988 69.3813C223.621 69.1827 223.3 68.9072 223.048 68.5735L214.203 56.8461C213.951 56.5125 213.774 56.1285 213.685 55.7202C213.595 55.312 213.594 54.8892 213.682 54.4806Z" fill="#3F3D56"/>
<path d="M236.582 13.8783C238.427 8.00069 242.621 2.60997 248.421 0.623021C254.221 -1.36392 262.714 1.66284 267.075 6.00871C275.051 13.9582 276.998 41.2675 271.518 49.8975C270.428 49.8398 266.667 49.7971 265.563 49.7558L264.003 44.5543V49.7045C255.392 49.4384 246.427 49.605 237.457 49.7774C236.653 43.6672 234.738 19.7559 236.582 13.8783Z" fill="#2F2E41"/>
<path d="M234.115 260.589H226.261L222.525 230.295L234.116 230.295L234.115 260.589Z" fill="#FFB6B6"/>
<path d="M302.868 255.705L295.269 257.686L284.012 229.314L295.228 226.391L302.868 255.705Z" fill="#FFB6B6"/>
<path d="M259.586 74.5257L261.366 79.1526L261.01 83.7795L226.181 95.8429L227.91 75.5934L231.824 70.9659L259.586 74.5257Z" fill="#FFB6B6"/>
<path d="M248.574 32.8872C255.445 32.8872 261.014 27.3178 261.014 20.4476C261.014 13.5774 255.445 8.00803 248.574 8.00803C241.704 8.00803 236.135 13.5774 236.135 20.4476C236.135 27.3178 241.704 32.8872 248.574 32.8872Z" fill="#FFB7B7"/>
<path d="M240.027 4.24906C242.417 2.79191 245.155 2.00368 247.954 1.96678C250.753 1.92988 253.511 2.64566 255.938 4.03929C258.366 5.43292 260.375 7.4532 261.755 9.8889C263.134 12.3246 263.834 15.0863 263.782 17.8851C257.001 19.6182 249.775 20.3431 242.117 18.3025L240.367 14.0185L239.335 18.3057C236.992 19.9536 234.731 19.9506 232.551 18.2968C232.459 15.5058 233.101 12.7395 234.413 10.2743C235.724 7.80917 237.66 5.73152 240.027 4.24906Z" fill="#2F2E41"/>
<path d="M237.628 275.502H232.055L231.06 270.24L228.512 275.502H213.731C213.023 275.502 212.333 275.276 211.762 274.856C211.191 274.436 210.77 273.845 210.559 273.168C210.348 272.492 210.359 271.766 210.59 271.096C210.821 270.426 211.26 269.848 211.843 269.445L223.647 261.293V255.974L236.063 256.715L237.628 275.502Z" fill="#2F2E41"/>
<path d="M310.719 269.07L305.326 270.476L303.036 265.635L301.898 271.37L287.594 275.098C286.909 275.277 286.184 275.232 285.526 274.969C284.868 274.707 284.311 274.241 283.936 273.64C283.561 273.038 283.389 272.333 283.443 271.627C283.498 270.92 283.777 270.25 284.24 269.713L293.606 258.847L292.264 253.7L304.465 251.285L310.719 269.07Z" fill="#2F2E41"/>
<path d="M301.905 236.654L278.883 189.337L271.656 131.747C276.639 122.493 267.385 103.663 267.385 103.663V95.7566L231.537 102.519C224.205 122.517 220.65 143.703 221.052 164.998L222.496 241.552H222.043C221.291 241.552 220.57 241.851 220.038 242.383C219.507 242.914 219.208 243.635 219.208 244.387C219.208 245.139 219.507 245.86 220.038 246.392C220.57 246.924 221.291 247.222 222.043 247.222H236.219C236.97 247.222 237.692 246.924 238.223 246.392C238.755 245.86 239.054 245.139 239.054 244.387C239.054 243.635 238.755 242.914 238.223 242.383C237.692 241.851 236.97 241.552 236.219 241.552H235.853L246.029 144.162L257.862 192.222L286.457 236.472C285.727 236.529 285.049 236.866 284.563 237.413C284.077 237.96 283.822 238.674 283.851 239.405C283.88 240.136 284.192 240.827 284.72 241.333C285.248 241.839 285.952 242.121 286.684 242.119H300.859C301.519 242.12 302.157 241.891 302.666 241.471C303.174 241.051 303.52 240.467 303.644 239.819C303.768 239.172 303.662 238.501 303.344 237.923C303.027 237.345 302.518 236.896 301.905 236.654Z" fill="#2F2E41"/>
<path d="M270.626 108.51C270.508 108.047 270.247 107.633 269.88 107.328C269.512 107.023 269.058 106.842 268.582 106.811C268.109 101.409 264.987 66.7633 264.868 65.7468L264.864 65.7039L263.96 46.3923C263.927 45.6909 263.637 45.0263 263.145 44.5252C262.653 44.0242 261.994 43.7219 261.293 43.6761L256.518 43.364C256.453 43.3618 256.391 43.3342 256.345 43.2871C256.3 43.24 256.274 43.177 256.274 43.1115C256.274 42.5842 256.17 42.062 255.969 41.5749C255.767 41.0877 255.471 40.6451 255.098 40.2722C254.725 39.8994 254.283 39.6036 253.796 39.4018C253.308 39.2 252.786 39.0961 252.259 39.0961H238.122C237.207 39.0965 236.323 39.4311 235.636 40.037C234.95 40.6429 234.508 41.4785 234.394 42.387C234.388 42.4496 234.358 42.5075 234.311 42.5491C234.264 42.5908 234.203 42.6131 234.14 42.6117L234.138 42.6116C232.532 42.5785 230.967 43.1224 229.727 44.1444C228.488 45.1665 227.655 46.5991 227.382 48.1823C225.449 59.4269 221.576 84.948 223.491 99.1363C224.158 104.075 223.855 111.504 223.602 115.637C223.577 116.036 223.631 116.436 223.761 116.815C223.891 117.193 224.095 117.542 224.36 117.842C223.796 118.005 223.317 118.38 223.025 118.888C222.732 119.397 222.648 119.999 222.791 120.568C222.938 121.151 223.311 121.652 223.827 121.961C224.344 122.269 224.962 122.36 225.545 122.213L268.981 111.263C269.564 111.116 270.065 110.744 270.374 110.227C270.682 109.711 270.773 109.093 270.626 108.51Z" fill="#38C6AC"/>
<path d="M198.837 189.698C198.829 188.43 198.372 187.205 197.548 186.242C196.723 185.279 195.584 184.638 194.332 184.435L117.322 171.789C116.584 171.667 115.828 171.7 115.103 171.888L97.0553 176.554L86.7 179.235L67.5898 184.175C66.4362 184.475 65.4146 185.149 64.6853 186.091C63.9559 187.034 63.5601 188.192 63.5598 189.384V270.08C63.5655 271.31 63.9906 272.501 64.7649 273.457C65.5391 274.413 66.6163 275.077 67.8184 275.338L146.259 274.45C146.627 274.529 147.003 274.568 147.379 274.566C147.928 274.567 148.474 274.484 148.998 274.32L195.601 275.479C196.701 275.136 197.661 274.447 198.338 273.516C199.016 272.584 199.375 271.458 199.362 270.306L198.837 189.698Z" fill="#91A0F6"/>
<path d="M198.837 189.698C198.829 188.43 198.372 187.205 197.548 186.242C196.723 185.279 195.584 184.638 194.332 184.435L117.322 171.789C116.584 171.667 115.828 171.7 115.103 171.888L97.0553 176.554L86.7 179.235L67.5898 184.175C66.4362 184.475 65.4146 185.149 64.6853 186.091C63.9559 187.034 63.5601 188.192 63.5598 189.384V270.08C63.5655 271.31 63.9906 272.501 64.7649 273.457C65.5391 274.413 66.6163 275.077 67.8184 275.338L146.259 274.45C146.627 274.529 147.003 274.568 147.379 274.566C147.928 274.567 148.474 274.484 148.998 274.32L195.601 275.479C196.701 275.136 197.661 274.447 198.338 273.516C199.016 272.584 199.375 271.458 199.362 270.306L198.837 189.698ZM195.197 274.197L148.594 275.306C147.929 275.513 147.223 275.547 146.541 275.404L68.0964 274.025C67.195 273.828 66.3876 273.33 65.8074 272.613C65.2271 271.896 64.9087 271.002 64.9046 270.08V189.384C64.9052 188.558 65.1591 187.752 65.632 187.074C66.1049 186.397 66.7741 185.881 67.5495 185.596C67.6726 185.55 67.7983 185.511 67.926 185.479L88.1435 180.253L100.099 177.159L115.439 173.192C115.768 173.104 116.107 173.061 116.448 173.062C116.667 173.062 116.886 173.08 117.102 173.116L194.113 185.762C194.732 185.864 195.32 186.108 195.829 186.476C196.337 186.844 196.754 187.326 197.044 187.882C197.335 188.447 197.489 189.072 197.493 189.707L198.017 270.315C198.027 271.179 197.758 272.024 197.25 272.723C196.742 273.422 196.022 273.939 195.197 274.197Z" fill="#CCCCCC"/>
<path d="M197.044 187.882C196.992 187.917 196.934 187.942 196.874 187.958L174.222 194.082L167.171 195.987L147.115 201.407C147.057 201.421 146.999 201.428 146.94 201.429C146.899 201.429 146.859 201.425 146.819 201.42L65.9491 186.676L65.6801 186.627C65.5049 186.594 65.3499 186.493 65.2489 186.346C65.1479 186.199 65.1091 186.018 65.1411 185.843C65.1731 185.668 65.2732 185.512 65.4196 185.41C65.566 185.309 65.7467 185.269 65.9222 185.3L67.5495 185.596L146.913 200.066L164.199 195.395L173.868 192.782L196.17 186.753L196.524 186.658C196.677 186.618 196.84 186.633 196.983 186.7C197.126 186.767 197.242 186.882 197.309 187.026C197.326 187.06 197.34 187.096 197.349 187.134C197.386 187.275 197.376 187.424 197.321 187.559C197.266 187.694 197.169 187.807 197.044 187.882Z" fill="#CCCCCC"/>
<path d="M147.612 274.723C147.244 274.723 146.943 274.426 146.94 276.325L146.267 203.031C146.264 200.392 146.563 200.088 146.934 200.084H146.94C147.308 200.084 147.609 200.381 147.612 203.019L148.285 276.313C148.288 274.416 147.99 274.72 147.618 274.723H147.612Z" fill="#CCCCCC"/>
<path d="M174.413 275.574L167.171 275.65L164.199 195.395L88.3631 180.306C88.2888 180.293 88.2155 180.275 88.1435 180.253C87.561 180.087 87.052 179.728 86.7 179.235L97.0553 176.554L100.099 177.159L172.057 191.473C172.436 191.548 172.793 191.703 173.106 191.929C173.418 192.155 173.678 192.446 173.868 192.782C174.092 193.172 174.408 275.107 174.413 275.574Z" fill="#2F2E41"/>
<path d="M232.421 42.8044C232.415 41.8486 232.071 40.9259 231.449 40.1999C230.828 39.4739 229.969 38.9914 229.026 38.838L170.987 29.3074C170.43 29.2152 169.861 29.2405 169.314 29.3817L155.713 32.8987L147.908 34.919L133.506 38.6421C132.636 38.8679 131.866 39.3758 131.317 40.0863C130.767 40.7968 130.469 41.6696 130.469 42.5679V90.1369C130.473 91.064 130.793 91.962 131.377 92.6825C131.96 93.403 132.772 93.9029 133.678 94.0998L192.795 106.678C193.072 106.738 193.355 106.767 193.639 106.766C194.053 106.767 194.464 106.704 194.859 106.58L229.982 95.4884C230.811 95.2297 231.534 94.7108 232.045 94.0084C232.555 93.3061 232.826 92.4579 232.816 91.5896L232.421 42.8044Z" fill="white"/>
<path d="M170.33 32.8006C170.287 32.8005 170.245 32.806 170.204 32.8168L134.395 42.0772C134.287 42.1054 134.191 42.1687 134.122 42.2574C134.053 42.3461 134.016 42.4551 134.016 42.5672V90.1355C134.016 90.2513 134.056 90.3635 134.129 90.4536C134.202 90.5436 134.303 90.6061 134.417 90.6307L193.533 103.209C193.619 103.227 193.708 103.222 193.791 103.196L228.915 92.1048C229.018 92.0725 229.108 92.0077 229.172 91.92C229.236 91.8322 229.269 91.7262 229.268 91.6178L228.874 42.8328C228.874 42.7134 228.831 42.5982 228.753 42.5076C228.675 42.4169 228.568 42.3567 228.45 42.3376L170.411 32.8072C170.384 32.8029 170.357 32.8007 170.33 32.8006Z" fill="#91A0F6"/>
<path d="M232.421 42.8044C232.415 41.8486 232.071 40.9259 231.449 40.1999C230.828 39.4739 229.969 38.9914 229.026 38.838L170.987 29.3074C170.43 29.2152 169.861 29.2405 169.314 29.3817L155.713 32.8987L147.908 34.919L133.506 38.6421C132.636 38.8679 131.866 39.3758 131.317 40.0863C130.767 40.7968 130.469 41.6696 130.469 42.5679V90.1369C130.473 91.064 130.793 91.962 131.377 92.6825C131.96 93.403 132.772 93.9029 133.678 94.0998L192.795 106.678C193.072 106.738 193.355 106.767 193.639 106.766C194.053 106.767 194.464 106.704 194.859 106.58L229.982 95.4884C230.811 95.2297 231.534 94.7108 232.045 94.0084C232.555 93.3061 232.826 92.4579 232.816 91.5896L232.421 42.8044ZM229.678 94.5221L194.555 105.614C194.054 105.77 193.521 105.795 193.008 105.688L133.888 93.11C133.208 92.9618 132.6 92.5866 132.162 92.0461C131.725 91.5056 131.485 90.8321 131.482 90.1369V42.5679C131.483 41.9453 131.674 41.3378 132.03 40.8274C132.387 40.3169 132.891 39.928 133.475 39.7131C133.568 39.6782 133.663 39.6489 133.759 39.6252L148.996 35.6859L158.007 33.3548L169.568 30.3648C169.816 30.2987 170.071 30.2657 170.328 30.2668C170.493 30.2668 170.658 30.2803 170.821 30.3074L228.86 39.8381C229.327 39.9147 229.77 40.099 230.153 40.3764C230.537 40.6537 230.851 41.0166 231.07 41.4361C231.289 41.8615 231.405 42.3326 231.407 42.8112L231.803 91.5964C231.81 92.2477 231.607 92.884 231.224 93.411C230.842 93.938 230.299 94.3277 229.678 94.5221Z" fill="#3F3D56"/>
<path d="M231.07 41.4361C231.03 41.462 230.987 41.4814 230.941 41.4935L213.87 46.1085L208.555 47.5444L193.44 51.629C193.397 51.6396 193.353 51.6452 193.308 51.6459C193.278 51.6453 193.247 51.643 193.217 51.6391L132.269 40.5273L132.067 40.4901C131.934 40.4654 131.818 40.3894 131.741 40.2787C131.665 40.1679 131.636 40.0315 131.66 39.8993C131.684 39.7671 131.76 39.6498 131.87 39.5731C131.98 39.4964 132.117 39.4666 132.249 39.4901L133.475 39.7131L193.288 50.6188L206.315 47.0984L213.603 45.1287L230.411 40.5847L230.678 40.5138C230.793 40.4834 230.916 40.4944 231.024 40.5451C231.132 40.5957 231.218 40.6827 231.269 40.7908C231.282 40.8166 231.292 40.8438 231.299 40.8719C231.327 40.9781 231.32 41.0905 231.278 41.1922C231.237 41.294 231.164 41.3795 231.07 41.4361Z" fill="#3F3D56"/>
<path d="M193.815 106.884C193.681 106.884 193.553 106.831 193.458 106.737C193.363 106.643 193.31 106.515 193.308 106.382L192.802 51.1437C192.8 51.0093 192.853 50.88 192.947 50.7841C193.041 50.6882 193.169 50.6336 193.304 50.6323H193.308C193.442 50.6323 193.57 50.6851 193.665 50.7791C193.76 50.8732 193.814 51.0009 193.815 51.1345L194.322 106.373C194.323 106.507 194.271 106.636 194.177 106.732C194.082 106.828 193.954 106.883 193.82 106.884H193.815Z" fill="#3F3D56"/>
<path d="M213.87 100.164L208.555 101.6L206.315 47.0984L149.162 35.7264C149.106 35.7165 149.05 35.703 148.996 35.6859C148.557 35.5609 148.173 35.2905 147.908 34.919L155.713 32.8987L158.007 33.3548L212.238 44.1423C212.523 44.1986 212.793 44.3159 213.028 44.4862C213.264 44.6565 213.46 44.8757 213.603 45.1288C213.772 45.4227 213.866 99.8129 213.87 100.164Z" fill="#3F3D56"/>
<path d="M211.489 69.0896C211.761 69.3221 212.014 69.5756 212.246 69.8479L244.082 66.1297L247.178 58.985L258.572 62.2485L254.319 75.4295C253.976 76.4943 253.296 77.419 252.383 78.0647C251.469 78.7104 250.37 79.0423 249.252 79.0105L212.801 77.9742C212.049 79.1291 210.964 80.0279 209.69 80.551C208.415 81.0741 207.012 81.1968 205.666 80.9028C204.32 80.6087 203.095 79.9119 202.155 78.9049C201.215 77.8979 200.603 76.6285 200.402 75.2656C200.201 73.9026 200.419 72.5107 201.028 71.275C201.638 70.0393 202.609 69.0183 203.812 68.3478C205.016 67.6774 206.395 67.3893 207.766 67.5218C209.138 67.6543 210.436 68.2011 211.489 69.0896Z" fill="#FFB6B6"/>
<path d="M243.336 64.4808C243.163 64.1004 243.074 63.6871 243.075 63.2692C243.076 62.8512 243.167 62.4385 243.342 62.059L249.459 48.8052C250.06 46.7529 251.45 45.0227 253.325 43.9938C255.2 42.965 257.406 42.7216 259.46 43.317C261.514 43.9124 263.248 45.298 264.281 47.1699C265.315 49.0418 265.565 51.2474 264.975 53.3028L262.96 67.8082C262.903 68.2222 262.757 68.6188 262.532 68.9713C262.307 69.3237 262.009 69.6236 261.658 69.8505C261.307 70.0774 260.912 70.2259 260.498 70.286C260.084 70.3462 259.663 70.3165 259.262 70.199L245.165 66.068C244.764 65.9506 244.393 65.7481 244.077 65.4741C243.762 65.2002 243.509 64.8614 243.336 64.4808Z" fill="#3F3D56"/>
<path d="M350.129 276.164H0.675138C0.496417 276.163 0.325188 276.092 0.198996 275.966C0.0728038 275.839 0.00195312 275.668 0.00195312 275.489C0.00195312 275.31 0.0728038 275.139 0.198996 275.012C0.325188 274.886 0.496417 274.814 0.675138 274.814H350.129C350.308 274.814 350.479 274.885 350.606 275.011C350.733 275.138 350.804 275.31 350.804 275.489C350.804 275.668 350.733 275.84 350.606 275.966C350.479 276.093 350.308 276.164 350.129 276.164Z" fill="#91A0F6"/>
<path d="M68.1067 204.426C79.3213 204.426 88.4124 195.334 88.4124 184.12C88.4124 172.905 79.3213 163.814 68.1067 163.814C56.8922 163.814 47.801 172.905 47.801 184.12C47.801 195.334 56.8922 204.426 68.1067 204.426Z" fill="#38C6AC"/>
<path d="M65.3367 194.688C64.986 194.688 64.6402 194.606 64.3266 194.45C64.0129 194.293 63.7402 194.065 63.5299 193.784L57.9901 186.398C57.6307 185.919 57.4764 185.316 57.5612 184.723C57.6459 184.13 57.9627 183.595 58.442 183.236C58.9212 182.876 59.5236 182.722 60.1166 182.807C60.7097 182.892 61.2447 183.208 61.6041 183.688L65.2284 188.52L74.5368 174.557C74.7009 174.309 74.9123 174.096 75.1589 173.93C75.4055 173.764 75.6824 173.649 75.9737 173.59C76.2651 173.531 76.5652 173.531 76.8568 173.588C77.1484 173.646 77.4258 173.76 77.6731 173.925C77.9204 174.09 78.1327 174.302 78.2979 174.549C78.4631 174.796 78.5779 175.073 78.6357 175.365C78.6936 175.656 78.6933 175.956 78.635 176.248C78.5766 176.539 78.4613 176.816 78.2956 177.063L67.2163 193.682C67.0158 193.983 66.7463 194.231 66.4302 194.406C66.1141 194.581 65.7606 194.677 65.3995 194.687C65.3786 194.688 65.3576 194.688 65.3367 194.688Z" fill="white"/>
<path d="M154.568 76.265C154.505 76.2649 154.442 76.2579 154.38 76.244L136.802 72.2748C136.582 72.2249 136.391 72.0898 136.271 71.8992C136.151 71.7086 136.111 71.478 136.161 71.2581C136.21 71.0382 136.345 70.847 136.536 70.7265C136.726 70.606 136.957 70.566 137.177 70.6153L154.754 74.5844C154.958 74.6305 155.138 74.7502 155.26 74.9206C155.381 75.091 155.435 75.3002 155.412 75.5081C155.389 75.7161 155.29 75.9082 155.135 76.0478C154.979 76.1875 154.777 76.2648 154.568 76.265Z" fill="white"/>
<path d="M86.9182 236.016C86.8563 236.029 86.7933 236.035 86.7301 236.034L68.7124 235.73C68.4871 235.726 68.2727 235.633 68.1162 235.471C67.9598 235.308 67.874 235.091 67.8777 234.866C67.8815 234.64 67.9744 234.426 68.1362 234.269C68.298 234.112 68.5153 234.026 68.7406 234.029L86.7584 234.333C86.9676 234.336 87.1681 234.417 87.3217 234.559C87.4752 234.701 87.571 234.895 87.5908 235.103C87.6106 235.311 87.5529 235.519 87.4289 235.688C87.3048 235.856 87.123 235.973 86.9182 236.016Z" fill="#E6E6E6"/>
<path d="M93.1554 245.655C93.0936 245.668 93.0305 245.674 92.9674 245.673L74.9496 245.37C74.7244 245.365 74.51 245.272 74.3535 245.11C74.197 244.948 74.1112 244.73 74.115 244.505C74.1187 244.28 74.2117 244.065 74.3735 243.908C74.5352 243.752 74.7526 243.665 74.9779 243.669L92.9956 243.972C93.2048 243.976 93.4053 244.056 93.5589 244.198C93.7125 244.34 93.8083 244.534 93.8281 244.742C93.8478 244.951 93.7902 245.159 93.6661 245.327C93.542 245.496 93.3602 245.613 93.1554 245.655Z" fill="#E6E6E6"/>
</g>
<defs>
<clipPath id="clip0_1_186">
<rect width="350.804" height="276.325" fill="white"/>
</clipPath>
</defs>
</svg>
