<svg width="428" height="269" viewBox="0 0 428 269" fill="none" xmlns="http://www.w3.org/2000/svg">
<path d="M324.065 43.4266C343.867 23.179 383.135 20.3674 508.968 75.6509C514.264 77.8598 528.278 83.8174 541.972 89.9768C559.09 97.676 583.236 128.802 582.448 139.653C581.66 150.504 588.335 157.76 589.706 195.969C590.804 226.537 571.593 230.026 561.851 227.95C542.883 225.69 494.523 224.684 452.824 238.741C400.7 256.313 407.854 262.211 382.378 267.422C356.903 272.633 312.443 251.546 269.399 222.226C226.354 192.905 199.786 186.108 177.989 188.754C156.192 191.4 145.199 201.535 120.668 214.779C96.1375 228.023 41.0241 202.612 -8.68703 180.944C-58.3982 159.277 -66.9119 153.303 -78.5457 130.191C-90.1795 107.078 -70.4678 91.0783 -58.0465 79.3042C-45.6252 67.5301 3.39592 62.6381 31.0303 60.7499C58.6647 58.8617 74.2138 31.0641 98.1041 8.6092C121.994 -13.8457 194.816 11.1269 241.293 47.2828C287.77 83.4386 304.263 63.6742 324.065 43.4266Z" fill="white"/>
</svg>
